<svg width="850" height="200" viewBox="0 0 850 200" fill="none" xmlns="http://www.w3.org/2000/svg">
<g clip-path="url(#clip0)">
<rect width="850" height="200" rx="8" fill="#0D1117"/>
<g opacity="0.1">
<path d="M172.886 56.3438L179.024 59.9399L178.974 67.0518L172.795 70.5713L166.657 66.9752L166.707 59.8653L172.886 56.3438ZM160.964 70.215L172.754 77.1234L184.629 70.3649L184.718 56.7001L172.93 49.792L161.052 56.5503L160.964 70.215Z" fill="#CCD9DE"/>
<path d="M597 40.0077C597 33.3761 602.374 28 609.006 28C615.637 28 621.012 33.3761 621.012 40.0077C621.012 46.6372 615.637 52.0134 609.006 52.0134C602.374 52.0134 597 46.6372 597 40.0077Z" fill="#CCD9DE"/>
<path d="M543.498 160C544.884 160 546 161.049 546 162.347V182.657C546 183.951 544.884 185 543.498 185C542.121 185 541 183.951 541 182.657V162.347C541 161.049 542.121 160 543.498 160Z" fill="#CCD9DE"/>
<path d="M556 172.498C556 173.884 554.951 175 553.653 175L533.343 175C532.049 175 531 173.884 531 172.498C531 171.121 532.049 170 533.343 170L553.653 170C554.951 170 556 171.121 556 172.498Z" fill="#CCD9DE"/>
<path d="M708.882 108.571L702.701 105.051L702.664 97.9386L708.799 94.3437L714.981 97.8645L715.018 104.974L708.882 108.571ZM720.634 94.5553L708.761 87.7916L696.969 94.695L697.048 108.36L708.919 115.123L720.713 108.22L720.634 94.5553Z" fill="#CCD9DE"/>
<path d="M247.011 151.006C247.011 157.637 241.637 163.013 235.006 163.013C228.374 163.013 223 157.637 223 151.006C223 144.376 228.374 139 235.006 139C241.637 139 247.011 144.376 247.011 151.006Z" fill="#CCD9DE"/>
<path d="M310.502 34C309.116 34 308 32.9507 308 31.6529L308 11.3429C308 10.0494 309.116 9 310.502 9C311.879 9 313 10.0494 313 11.3429L313 31.6529C313 32.9507 311.879 34 310.502 34Z" fill="#CCD9DE"/>
<path d="M298 21.5023C298 20.1162 299.049 19 300.347 19L320.657 19C321.951 19 323 20.1162 323 21.5023C323 22.8792 321.951 24 320.657 24L300.347 24C299.049 24 298 22.8792 298 21.5023Z" fill="#CCD9DE"/>
</g>
<path d="M245.308 216.611C246.076 214.985 244.897 212.809 242.673 211.758C240.449 210.707 238.019 211.175 237.251 212.802C236.473 214.446 237.653 216.62 239.877 217.672C242.101 218.723 244.531 218.255 245.308 216.611ZM100.849 168.362L138.45 137.501L262.303 216.11L255.316 230.887L101.024 176.331L100.849 168.362Z" fill="#8E9CA7"/>
<path d="M101.024 176.331L101.207 178.494C101.282 179.394 102.357 179.816 103.025 179.208L103.065 179.172C103.667 178.624 104.637 178.934 104.81 179.729L104.819 179.77C104.988 180.545 105.93 180.849 106.52 180.319L106.571 180.274C107.169 179.736 108.124 180.09 108.228 180.887C108.329 181.666 109.25 182.028 109.855 181.526L109.894 181.493C110.495 180.995 111.409 181.367 111.49 182.144C111.571 182.919 112.483 183.292 113.084 182.795L113.339 182.585C113.939 182.088 114.851 182.443 114.958 183.215C115.062 183.963 115.929 184.327 116.536 183.878L116.767 183.706C117.356 183.27 118.199 183.593 118.346 184.311L118.392 184.535C118.528 185.199 119.337 185.462 119.837 185.003L119.9 184.945C120.399 184.488 121.206 184.788 121.285 185.46C121.361 186.114 122.133 186.422 122.64 186.001L122.807 185.861C123.376 185.387 124.243 185.719 124.351 186.451L124.373 186.598C124.489 187.381 125.408 187.748 126.031 187.259L126.336 187.019C126.883 186.589 127.691 186.915 127.786 187.604L127.814 187.808C127.907 188.477 128.735 188.741 129.197 188.247C129.648 187.766 130.455 188.002 130.574 188.651L130.612 188.855C130.741 189.556 131.588 189.842 132.116 189.364L132.247 189.245C132.812 188.733 133.719 189.01 133.902 189.75L134.031 190.274C134.197 190.946 135.053 191.15 135.505 190.625C135.963 190.094 136.831 190.311 136.984 190.996L137.069 191.381C137.24 192.147 138.161 192.462 138.765 191.961L138.877 191.868C139.526 191.33 140.514 191.658 140.712 192.477L140.747 192.622C140.948 193.451 141.907 193.831 142.62 193.364L143.134 193.029C143.8 192.593 144.694 192.986 144.824 193.771C144.96 194.591 145.92 194.971 146.581 194.467L146.641 194.421C147.287 193.928 148.226 194.264 148.414 195.054L148.424 195.098C148.614 195.895 149.579 196.21 150.201 195.677C150.815 195.152 151.767 195.449 151.972 196.23L152.022 196.422C152.218 197.167 153.135 197.44 153.707 196.921C154.296 196.386 155.244 196.696 155.404 197.476L155.445 197.679C155.615 198.51 156.615 198.853 157.259 198.302C157.859 197.789 158.788 198.046 159.039 198.794L159.229 199.364C159.454 200.033 160.324 200.2 160.78 199.661C161.267 199.086 162.202 199.322 162.357 200.06L162.379 200.164C162.526 200.858 163.35 201.158 163.909 200.72L164.044 200.614C164.672 200.12 165.6 200.481 165.73 201.269C165.86 202.051 166.775 202.414 167.405 201.934L167.567 201.81C168.198 201.329 169.114 201.656 169.297 202.428L169.359 202.686C169.525 203.387 170.386 203.648 170.914 203.158L170.979 203.097C171.534 202.581 172.439 202.943 172.487 203.699C172.533 204.438 173.402 204.807 173.966 204.327L174.087 204.224C174.684 203.716 175.604 204.08 175.693 204.857L175.71 205.006C175.803 205.812 176.73 206.219 177.385 205.741L177.821 205.423C178.491 204.935 179.438 205.338 179.552 206.158L179.563 206.237C179.679 207.067 180.671 207.436 181.301 206.883C181.887 206.369 182.809 206.648 183.012 207.4L183.111 207.768C183.323 208.552 184.319 208.792 184.864 208.189C185.42 207.575 186.437 207.839 186.625 208.646L186.671 208.84C186.868 209.689 187.911 210.005 188.547 209.408L188.649 209.312C189.286 208.715 190.326 208.965 190.62 209.787L190.944 210.69C191.224 211.473 192.215 211.712 192.821 211.143L192.882 211.085C193.533 210.474 194.603 210.842 194.739 211.724C194.875 212.598 195.929 212.97 196.584 212.374L196.633 212.33C197.282 211.739 198.326 212.067 198.522 212.922L198.548 213.039C198.74 213.881 199.753 214.224 200.418 213.673C201.067 213.134 202.056 213.448 202.277 214.262L202.362 214.577C202.572 215.354 203.547 215.607 204.108 215.031C204.688 214.436 205.697 214.729 205.868 215.542L205.9 215.694C206.072 216.51 207.084 216.804 207.667 216.207C208.228 215.63 209.204 215.881 209.418 216.657L209.534 217.076C209.769 217.927 210.845 218.193 211.45 217.55C212.047 216.914 213.11 217.166 213.359 218.002L213.51 218.509C213.754 219.331 214.77 219.62 215.411 219.05C216.103 218.433 217.204 218.828 217.346 219.745L217.354 219.794C217.491 220.681 218.52 221.108 219.245 220.577L219.621 220.302C220.363 219.759 221.418 220.186 221.573 221.092C221.73 222.017 222.819 222.437 223.557 221.858L223.681 221.761C224.401 221.196 225.464 221.589 225.642 222.487C225.807 223.32 226.749 223.737 227.477 223.3L227.924 223.031C228.651 222.594 229.591 223.016 229.747 223.85L229.806 224.166C229.958 224.978 230.95 225.299 231.549 224.729C232.127 224.18 233.084 224.457 233.278 225.231L233.373 225.609C233.59 226.477 234.613 226.853 235.341 226.334L235.709 226.072C236.494 225.512 237.595 225.931 237.809 226.871C238.019 227.788 239.078 228.215 239.865 227.7L240.091 227.552C240.821 227.075 241.805 227.512 241.96 228.37C242.119 229.252 243.159 229.67 243.871 229.125C244.576 228.586 245.601 228.973 245.775 229.843L245.866 230.302C246.037 231.16 247.053 231.536 247.741 230.996L247.945 230.836C248.573 230.343 249.5 230.725 249.598 231.518L249.634 231.816C249.725 232.551 250.626 232.854 251.143 232.324L251.322 232.14C251.78 231.67 252.577 231.956 252.632 232.609C252.695 233.344 253.659 233.574 254.046 232.946L254.685 231.91C255.031 231.35 254.845 230.615 254.275 230.286L232.053 217.472C231.959 217.418 231.861 217.371 231.759 217.333L165.384 192.343L111.456 174.662C111.139 174.558 110.8 174.536 110.472 174.596L101.024 176.331Z" fill="#8E9CA7"/>
<path d="M113.062 152.015C125.533 129.672 116.876 129.844 109.974 126.877C103.051 123.899 101.965 137.198 98.3086 143.748C94.6635 150.283 83.9112 158.19 90.0789 162.521C96.2266 166.843 100.602 174.34 113.062 152.015ZM81.204 167.618C62.8074 166.007 62.3817 161.812 63.4958 157.696C64.61 153.583 70.608 156.943 74.3163 156.654C78.0279 156.362 73.9372 151.7 78.9724 142.677C84.011 133.652 87.7458 132.594 91.6137 125.665C95.4717 118.751 78.2973 117.493 86.0846 108.755C92.4186 101.641 144.69 137.929 149.617 141.091C150.528 141.676 150.911 148.866 144.961 149.738C140.692 150.363 130.283 144.11 127.855 146.667C115.35 159.836 106.503 185.316 102.742 184.826C97.231 184.106 99.6172 169.24 81.204 167.618Z" fill="#16B5F9"/>
<path d="M810.05 63.4852L816.925 67.5801L820.176 62.1227L813.303 58.0269L810.05 63.4852Z" fill="#5C6B77"/>
<path d="M813.841 58.3268L665.54 -30.0278C664.592 -30.593 663.364 -30.2823 662.799 -29.3339L660.994 -26.3063C660.722 -25.8505 660.642 -25.3052 660.773 -24.7907L661.246 -22.9256C661.482 -21.9939 662.428 -21.4299 663.36 -21.6661C664.292 -21.9023 665.239 -21.3376 665.475 -20.406C665.711 -19.4743 666.658 -18.9096 667.59 -19.1457C668.522 -19.3819 669.469 -18.8172 669.705 -17.8854C669.941 -16.9538 670.888 -16.3891 671.82 -16.6253C672.752 -16.8614 673.699 -16.2975 673.935 -15.3657C674.171 -14.434 675.118 -13.8702 676.05 -14.106C676.982 -14.3419 677.93 -13.7774 678.166 -12.8453C678.402 -11.9131 679.349 -11.3486 680.281 -11.585C681.213 -11.8213 682.16 -11.2568 682.396 -10.3247C682.632 -9.39267 683.579 -8.82824 684.511 -9.06458C685.443 -9.30093 686.39 -8.7367 686.626 -7.80463C686.861 -6.87295 687.808 -6.30887 688.74 -6.54453C689.672 -6.7802 690.619 -6.21622 690.855 -5.2846C691.091 -4.35281 692.038 -3.78875 692.97 -4.02492C693.901 -4.26105 694.848 -3.6966 695.085 -2.76495C695.321 -1.83306 696.268 -1.26852 697.2 -1.50486C698.132 -1.74127 699.08 -1.17681 699.315 -0.244471C699.551 0.687671 700.499 1.252 701.431 1.0161C702.363 0.780315 703.31 1.3443 703.546 2.27599C703.782 3.208 704.729 3.77217 705.66 3.53585C706.592 3.29952 707.54 3.86381 707.775 4.79585C708.011 5.72809 708.959 6.29253 709.891 6.05613C710.823 5.81979 711.77 6.38382 712.006 7.31579C712.242 8.24731 713.189 8.81129 714.12 8.57579C715.052 8.3403 715.999 8.90545 716.236 9.83672C716.472 10.7679 717.419 11.3328 718.351 11.0967C719.283 10.8606 720.23 11.4248 720.465 12.3567C720.701 13.2885 721.648 13.8525 722.58 13.6167C723.512 13.3808 724.46 13.9446 724.696 14.8765C724.932 15.8083 725.879 16.3723 726.811 16.1366C727.743 15.9009 728.69 16.4655 728.926 17.3977C729.162 18.3299 730.109 18.8944 731.041 18.658C731.973 18.4217 732.92 18.9855 733.156 19.9173C733.392 20.8489 734.339 21.4127 735.271 21.1766C736.202 20.9404 737.149 21.505 737.386 22.4366C737.622 23.3685 738.569 23.9334 739.502 23.6976C740.433 23.462 741.38 24.0258 741.616 24.9574C741.852 25.8894 742.799 26.4533 743.731 26.217C744.663 25.9806 745.611 26.5452 745.847 27.4775C746.083 28.4094 747.029 28.9738 747.961 28.7376C748.893 28.5015 749.84 29.0663 750.076 29.9978C750.312 30.9294 751.259 31.4943 752.191 31.2582C753.123 31.022 754.069 31.5861 754.306 32.5178C754.542 33.4494 755.488 34.0135 756.42 33.7778C757.352 33.5421 758.3 34.1069 758.536 35.0388C758.772 35.9705 759.719 36.535 760.651 36.2989C761.583 36.0628 762.529 36.6266 762.766 37.5582C763.002 38.4899 763.949 39.0537 764.88 38.8174C765.813 38.581 766.76 39.1455 766.996 40.0778C767.232 41.0099 768.179 41.5743 769.112 41.3384C770.043 41.1026 770.991 41.6668 771.226 42.5987C771.462 43.5306 772.41 44.0947 773.342 43.8588C774.273 43.623 775.221 44.187 775.456 45.1188C775.692 46.0507 776.639 46.615 777.571 46.3788C778.502 46.1427 779.449 46.7074 779.685 47.6388C779.922 48.5707 780.869 49.1358 781.801 48.9C782.733 48.6644 783.68 49.2282 783.916 50.1597C784.152 51.0917 785.099 51.6557 786.031 51.4193C786.963 51.1829 787.91 51.7474 788.146 52.6796C788.382 53.6117 789.329 54.176 790.261 53.9397C791.193 53.7033 792.14 54.2675 792.376 55.1995C792.612 56.1312 793.559 56.6951 794.491 56.4593C795.422 56.2235 796.37 56.7875 796.606 57.7195C796.842 58.6514 797.789 59.2155 798.721 58.9797C799.653 58.7438 800.601 59.3084 800.837 60.2405C801.073 61.1721 802.02 61.7365 802.952 61.5004C803.884 61.2642 804.831 61.8283 805.067 62.7601C805.303 63.6917 806.249 64.2558 807.181 64.0202L809.605 63.407C809.762 63.3675 809.927 63.3916 810.066 63.474C810.355 63.6458 810.728 63.5512 810.9 63.2625L813.841 58.3268Z" fill="#5C6B77"/>
<path d="M829.225 8.70816L706.613 -64.3415C702.034 -67.0704 696.885 -68.7952 691.56 -69.0459C685.823 -69.3163 679.189 -68.0858 675.614 -62.0845C669.833 -52.3818 658.647 -33.606 654.572 -26.767C653.724 -25.3435 654.194 -23.5081 655.617 -22.6601L658.465 -20.9639C659.888 -20.116 661.73 -20.5825 662.578 -22.0058L681.017 -52.9559C681.113 -53.1178 681.191 -53.2806 681.263 -53.4546C682.028 -55.3018 687.186 -66.3516 698.642 -59.5257C710.029 -52.7412 805.749 4.28696 822.338 14.1707C823.728 14.9988 825.477 14.5475 826.351 13.1859L829.225 8.70816Z" fill="#8E9CA7"/>
<path d="M837.19 45.6724C851.076 22.3638 855.514 30.4155 861.903 35.1906C868.31 39.9788 856.681 48.0243 852.61 54.8583C848.548 61.6728 846.999 75.7503 839.749 72.3741C832.518 69.0109 823.314 68.9606 837.19 45.6724ZM839.783 83.2358C851.029 99.2991 855.105 97.4676 858.291 94.2624C861.475 91.0581 855.206 87.3231 853.503 83.7595C851.8 80.192 858.251 81.4834 863.859 72.0716C869.467 62.6558 868.456 58.6608 872.762 51.4322C877.06 44.2207 887.332 59.3472 891.218 47.5556C894.385 37.9613 833.327 9.12337 827.809 6.26816C826.788 5.74007 819.985 9.19876 822.344 15.1318C824.037 19.3882 835.303 25.6473 834.244 29.2351C828.797 47.7124 810.107 69.3499 812.554 72.5493C816.14 77.2355 828.518 67.1634 839.783 83.2358Z" fill="#16B5F9"/>
<path d="M674.444 181.233C674.444 181.233 701.786 214.809 734.781 223.318C767.779 231.827 772.188 231.835 774.563 224.259C776.939 216.683 736.448 210.971 728.248 205.459C720.05 199.946 683.79 170.193 683.79 170.193L674.444 181.233Z" fill="#16B5F9"/>
<path d="M656.404 167.323C656.025 167.558 655.743 167.921 655.61 168.346C655.314 169.29 655.81 170.299 656.738 170.642L662.861 172.904C664.109 173.365 665.513 172.949 666.307 171.88L670.295 166.519C671.462 164.95 670.84 162.702 669.033 161.956L668.073 161.56C667.182 161.192 666.168 161.275 665.349 161.782L656.404 167.323Z" fill="#8E9CA7"/>
<path d="M674.759 181.44L671.133 183.938C668.593 185.689 665.168 183.656 665.488 180.588L665.954 176.105L663.529 173.874L672.904 161.556L684.105 170.4L674.759 181.44Z" fill="#1F80C6"/>
<path d="M686.71 141.596C686.71 141.596 728.328 129.645 760.276 141.502C792.222 153.359 795.846 155.869 793.47 163.445C791.094 171.021 754.592 152.589 744.714 152.433C734.836 152.277 688.078 155.997 688.078 155.997L686.71 141.596Z" fill="#16B5F9"/>
<path d="M664.124 142.705C663.947 142.296 663.923 141.837 664.057 141.412C664.352 140.469 665.336 139.923 666.294 140.171L672.611 141.811C673.9 142.145 674.814 143.289 674.856 144.619L675.068 151.298C675.13 153.252 673.336 154.743 671.426 154.323L670.413 154.1C669.471 153.894 668.686 153.247 668.303 152.362L664.124 142.705Z" fill="#8E9CA7"/>
<path d="M687.253 141.596L685.704 137.477C684.618 134.587 680.646 134.301 679.154 137.003L676.977 140.949L673.713 141.396L674.377 156.861L688.621 155.997L687.253 141.596Z" fill="#1F80C6"/>
<path d="M623.28 145.082L642.542 151.122L652.418 154.988C653.396 155.371 653.911 156.446 653.597 157.449L650.868 166.15C650.558 167.14 649.542 167.728 648.528 167.504L621.05 161.437C620.747 161.37 620.463 161.233 620.222 161.038L603.897 147.801C603.26 147.285 603.003 146.432 603.248 145.649L603.946 143.424C604.247 142.463 605.216 141.876 606.207 142.053L608.793 142.517C609.721 142.683 610.368 143.498 610.693 144.383C611.217 145.807 612.374 146.979 613.949 147.473C615.954 148.102 618.056 147.424 619.33 145.922C619.946 145.197 620.842 144.646 621.778 144.813L623.28 145.082Z" fill="#8E9CA7"/>
<path d="M624.204 142.14L643.466 148.18L653.78 150.645C654.802 150.889 655.839 150.301 656.153 149.298L658.881 140.598C659.191 139.608 658.693 138.545 657.734 138.15L631.711 127.44C631.423 127.321 631.112 127.272 630.803 127.295L609.843 128.839C609.025 128.899 608.327 129.453 608.082 130.235L607.384 132.461C607.083 133.422 607.543 134.457 608.458 134.877L610.845 135.973C611.702 136.366 612.697 136.068 613.47 135.527C614.714 134.656 616.333 134.355 617.909 134.849C619.913 135.479 621.251 137.234 621.44 139.193C621.532 140.141 621.952 141.105 622.816 141.502L624.204 142.14Z" fill="#8E9CA7"/>
<path d="M659.43 138.848C667.428 141.355 671.877 149.872 669.369 157.869C666.863 165.867 658.345 170.318 650.347 167.809C642.349 165.302 637.899 156.784 640.407 148.787C642.916 140.79 651.432 136.339 659.43 138.848Z" fill="#8E9CA7"/>
<path d="M657.551 144.834C662.243 146.306 664.855 151.3 663.383 155.993C661.912 160.684 656.917 163.294 652.225 161.822C647.534 160.352 644.924 155.356 646.394 150.665C647.865 145.973 652.86 143.364 657.551 144.834Z" fill="#70808D"/>
<path d="M9.97067 76.8811C7.77031 73.2182 8.98586 68.4625 12.6751 66.3062L122.189 2.29L128.506 12.8003L20.5786 79.4571C16.9431 81.7022 12.1728 80.5436 9.97067 76.8811Z" fill="#16B5F9"/>
<path d="M138.881 22.3231L134.828 15.5784L146.872 8.34032L150.925 15.085L138.881 22.3231Z" fill="#768895"/>
<path d="M129.25 14.1467L121.314 0.942474C119.993 -1.25582 120.705 -4.11111 122.904 -5.43313L133.739 -11.945C135.94 -13.2663 138.794 -12.5545 140.115 -10.3559L148.051 2.84757C149.373 5.04732 148.661 7.90216 146.461 9.22397L135.626 15.7353C133.426 17.0578 130.572 16.346 129.25 14.1467Z" fill="#8E9CA7"/>
<path d="M142.277 32.3854L137.36 24.2025C136.74 23.173 137.073 21.8371 138.103 21.2179L150.14 13.9849C151.169 13.3665 152.506 13.6991 153.125 14.7296L158.042 22.9124C158.66 23.9413 158.328 25.2779 157.299 25.8962L145.262 33.1301C144.232 33.7485 142.896 33.4159 142.277 32.3854Z" fill="#8E9CA7"/>
<path d="M544.096 36.6656L544.941 32.5269L545.784 28.3872L536.065 23.9437L525.823 25.0908L447.921 9.21623L447.227 12.6158L446.535 16.0147L524.439 31.8902L533.416 36.9532L544.096 36.6656Z" fill="#8E9CA7"/>
<path fill-rule="evenodd" clip-rule="evenodd" d="M375.982 -16.2745C368.363 -17.8275 360.925 -12.9092 359.374 -5.28902C357.821 2.33033 362.739 9.76788 370.358 11.3208L425.534 22.5634L425.531 22.5744L425.559 22.5685L425.588 22.5745L425.59 22.5618L438.795 19.7348L440.523 11.2604L442.25 2.78346L431.204 -4.98457L431.211 -5.01931L375.982 -16.2745Z" fill="#16B5F9"/>
<path fill-rule="evenodd" clip-rule="evenodd" d="M450.411 3.6617L446.662 22.0612C446.297 23.8462 444.141 24.5721 442.771 23.3714L438.523 19.6476L441.978 2.69628L447.343 0.931886C449.074 0.362387 450.775 1.87586 450.411 3.6617ZM380.753 -11.7599C379.399 -12.0341 378.079 -11.1603 377.803 -9.80714C377.526 -8.45246 378.401 -7.13344 379.754 -6.85767L421.369 1.62313C422.722 1.90042 424.043 1.02512 424.319 -0.328037C424.595 -1.68119 423.72 -3.00418 422.367 -3.27994L380.753 -11.7599ZM376.184 -1.86249C376.46 -3.21564 377.781 -4.09095 379.135 -3.81278L420.747 4.66624C422.1 4.94201 422.976 6.26343 422.7 7.61659C422.423 8.97126 421.104 9.84356 419.75 9.56931L378.134 1.08854C376.781 0.812768 375.907 -0.507813 376.184 -1.86249ZM377.514 4.13099C376.161 3.85522 374.841 4.72897 374.564 6.08364C374.288 7.43679 375.162 8.75734 376.517 9.03399L418.129 17.513C419.484 17.7897 420.804 16.9159 421.081 15.5613C421.357 14.2081 420.481 12.8867 419.128 12.6109L377.514 4.13099Z" fill="#1F80C6"/>
<g clip-path="url(#clip1)">
<path d="M402.372 112.355V117.811H406.166V122.158H402.372V133.232C402.372 134.053 402.529 134.641 402.844 134.996C403.158 135.352 403.76 135.529 404.648 135.529C405.305 135.529 405.886 135.481 406.392 135.386V139.877C405.229 140.232 404.033 140.41 402.803 140.41C398.646 140.41 396.527 138.312 396.445 134.114V122.158H393.205V117.811H396.445V112.355H402.372ZM407.93 128.7C407.93 126.499 408.354 124.537 409.201 122.814C410.049 121.092 411.266 119.759 412.852 118.815C414.451 117.872 416.304 117.4 418.409 117.4C421.403 117.4 423.844 118.316 425.73 120.148C427.631 121.98 428.69 124.469 428.909 127.613L428.95 129.131C428.95 132.535 428 135.27 426.1 137.334C424.199 139.385 421.649 140.41 418.45 140.41C415.251 140.41 412.694 139.385 410.78 137.334C408.88 135.283 407.93 132.494 407.93 128.967V128.7ZM413.856 129.131C413.856 131.236 414.253 132.85 415.046 133.971C415.839 135.078 416.974 135.632 418.45 135.632C419.886 135.632 421.007 135.085 421.813 133.991C422.62 132.884 423.023 131.12 423.023 128.7C423.023 126.636 422.62 125.036 421.813 123.901C421.007 122.767 419.872 122.199 418.409 122.199C416.96 122.199 415.839 122.767 415.046 123.901C414.253 125.022 413.856 126.766 413.856 129.131ZM431.678 128.7C431.678 126.499 432.102 124.537 432.949 122.814C433.797 121.092 435.014 119.759 436.6 118.815C438.199 117.872 440.052 117.4 442.157 117.4C445.151 117.4 447.592 118.316 449.479 120.148C451.379 121.98 452.438 124.469 452.657 127.613L452.698 129.131C452.698 132.535 451.748 135.27 449.848 137.334C447.947 139.385 445.397 140.41 442.198 140.41C438.999 140.41 436.442 139.385 434.528 137.334C432.628 135.283 431.678 132.494 431.678 128.967V128.7ZM437.604 129.131C437.604 131.236 438.001 132.85 438.794 133.971C439.587 135.078 440.722 135.632 442.198 135.632C443.634 135.632 444.755 135.085 445.562 133.991C446.368 132.884 446.771 131.12 446.771 128.7C446.771 126.636 446.368 125.036 445.562 123.901C444.755 122.767 443.62 122.199 442.157 122.199C440.708 122.199 439.587 122.767 438.794 123.901C438.001 125.022 437.604 126.766 437.604 129.131ZM462.604 140H456.656V108.5H462.604V140ZM487.5 129.11C487.5 132.665 486.741 135.44 485.224 137.437C483.706 139.419 481.587 140.41 478.866 140.41C476.46 140.41 474.539 139.487 473.104 137.642L472.837 140H467.505V108.5H473.432V119.8C474.799 118.2 476.597 117.4 478.825 117.4C481.532 117.4 483.651 118.398 485.183 120.395C486.728 122.377 487.5 125.173 487.5 128.782V129.11ZM481.573 128.68C481.573 126.438 481.218 124.804 480.507 123.778C479.796 122.739 478.736 122.22 477.328 122.22C475.441 122.22 474.143 122.992 473.432 124.537V133.294C474.156 134.853 475.469 135.632 477.369 135.632C479.283 135.632 480.541 134.688 481.143 132.802C481.43 131.899 481.573 130.525 481.573 128.68ZM501.384 140.41C498.13 140.41 495.478 139.412 493.427 137.416C491.39 135.42 490.371 132.761 490.371 129.438V128.864C490.371 126.636 490.802 124.646 491.663 122.896C492.524 121.133 493.741 119.779 495.313 118.836C496.899 117.879 498.704 117.4 500.728 117.4C503.763 117.4 506.148 118.357 507.885 120.271C509.635 122.186 510.51 124.899 510.51 128.413V130.833H496.38C496.571 132.282 497.146 133.444 498.103 134.319C499.073 135.194 500.297 135.632 501.773 135.632C504.057 135.632 505.841 134.805 507.126 133.15L510.038 136.411C509.149 137.669 507.946 138.653 506.429 139.364C504.911 140.062 503.229 140.41 501.384 140.41ZM500.707 122.199C499.531 122.199 498.574 122.596 497.836 123.389C497.111 124.182 496.646 125.316 496.441 126.793H504.686V126.321C504.658 125.009 504.303 123.997 503.619 123.286C502.936 122.562 501.965 122.199 500.707 122.199ZM520.148 140H514.201V108.5H520.148V140ZM532.146 112.355V117.811H535.939V122.158H532.146V133.232C532.146 134.053 532.303 134.641 532.617 134.996C532.932 135.352 533.533 135.529 534.422 135.529C535.078 135.529 535.659 135.481 536.165 135.386V139.877C535.003 140.232 533.807 140.41 532.576 140.41C528.42 140.41 526.301 138.312 526.219 134.114V122.158H522.979V117.811H526.219V112.355H532.146Z" fill="white"/>
<rect x="309" y="76" width="72" height="72" rx="2" fill="#16B5F9"/>
<path d="M350.76 112.28V117.6H342.4V140H336.16V117.6H327.8V112.28H350.76ZM362.33 135.24C363.21 135.24 363.93 135.173 364.49 135.04C365.077 134.88 365.544 134.68 365.89 134.44C366.237 134.173 366.477 133.867 366.61 133.52C366.744 133.173 366.81 132.787 366.81 132.36C366.81 131.453 366.384 130.707 365.53 130.12C364.677 129.507 363.21 128.853 361.13 128.16C360.224 127.84 359.317 127.48 358.41 127.08C357.504 126.653 356.69 126.133 355.97 125.52C355.25 124.88 354.664 124.12 354.21 123.24C353.757 122.333 353.53 121.24 353.53 119.96C353.53 118.68 353.77 117.533 354.25 116.52C354.73 115.48 355.41 114.6 356.29 113.88C357.17 113.16 358.237 112.613 359.49 112.24C360.744 111.84 362.157 111.64 363.73 111.64C365.597 111.64 367.21 111.84 368.57 112.24C369.93 112.64 371.05 113.08 371.93 113.56L370.13 118.48C369.357 118.08 368.49 117.733 367.53 117.44C366.597 117.12 365.464 116.96 364.13 116.96C362.637 116.96 361.557 117.173 360.89 117.6C360.25 118 359.93 118.627 359.93 119.48C359.93 119.987 360.05 120.413 360.29 120.76C360.53 121.107 360.864 121.427 361.29 121.72C361.744 121.987 362.25 122.24 362.81 122.48C363.397 122.693 364.037 122.92 364.73 123.16C366.17 123.693 367.424 124.227 368.49 124.76C369.557 125.267 370.437 125.867 371.13 126.56C371.85 127.253 372.384 128.067 372.73 129C373.077 129.933 373.25 131.067 373.25 132.4C373.25 134.987 372.344 137 370.53 138.44C368.717 139.853 365.984 140.56 362.33 140.56C361.104 140.56 359.997 140.48 359.01 140.32C358.024 140.187 357.144 140.013 356.37 139.8C355.624 139.587 354.97 139.36 354.41 139.12C353.877 138.88 353.424 138.653 353.05 138.44L354.81 133.48C355.637 133.933 356.65 134.347 357.85 134.72C359.077 135.067 360.57 135.24 362.33 135.24Z" fill="#0C1117"/>
</g>
</g>
<defs>
<clipPath id="clip0">
<rect width="850" height="200" rx="8" fill="white"/>
</clipPath>
<clipPath id="clip1">
<rect width="241" height="91" fill="white" transform="translate(307 74)"/>
</clipPath>
</defs>
</svg>
