<svg width="850" height="350" viewBox="0 0 850 350" fill="none" xmlns="http://www.w3.org/2000/svg">
<g clip-path="url(#clip0)">
<rect width="850" height="350" rx="6" fill="#0D1117"/>
<g opacity="0.04">
<path d="M616.378 70.8673C616.378 59.7928 625.352 50.8148 636.427 50.8148C647.501 50.8148 656.476 59.7928 656.476 70.8673C656.476 81.9385 647.501 90.9165 636.427 90.9165C625.352 90.9165 616.378 81.9385 616.378 70.8673Z" fill="#CCD9DE"/>
<path d="M527.031 271.251C529.345 271.251 531.209 273.003 531.209 275.17V309.087C531.209 311.247 529.345 313 527.031 313C524.731 313 522.859 311.247 522.859 309.087V275.17C522.859 273.003 524.731 271.251 527.031 271.251Z" fill="#CCD9DE"/>
<path d="M547.909 292.122C547.909 294.436 546.157 296.3 543.989 296.3L510.072 296.3C507.912 296.3 506.16 294.436 506.16 292.122C506.16 289.822 507.912 287.95 510.072 287.95L543.989 287.95C546.157 287.95 547.909 289.822 547.909 292.122Z" fill="#CCD9DE"/>
<path d="M767.47 197.282L757.147 191.403L757.086 179.526L767.332 173.523L777.655 179.402L777.717 191.276L767.47 197.282ZM787.095 173.876L767.268 162.581L747.575 174.109L747.707 196.929L767.531 208.224L787.227 196.696L787.095 173.876" fill="#CCD9DE"/>
</g>
<g opacity="0.04">
<path d="M250.943 278.131C250.943 289.206 241.968 298.183 230.893 298.183C219.819 298.183 210.844 289.206 210.844 278.131C210.844 267.06 219.819 258.082 230.893 258.082C241.968 258.082 250.943 267.06 250.943 278.131Z" fill="#CCD9DE"/>
<path d="M340.289 77.749C337.974 77.749 336.11 75.9967 336.11 73.8295V39.9126C336.11 37.7525 337.974 36 340.289 36C342.589 36 344.46 37.7525 344.46 39.9126V73.8295C344.46 75.9967 342.589 77.749 340.289 77.749Z" fill="#CCD9DE"/>
<path d="M319.411 56.8783C319.411 54.5636 321.163 52.6996 323.33 52.6996L357.247 52.6996C359.407 52.6996 361.16 54.5636 361.16 56.8783C361.16 59.1778 359.407 61.0494 357.247 61.0494L323.33 61.0494C321.163 61.0494 319.411 59.1778 319.411 56.8783Z" fill="#CCD9DE"/>
<path d="M99.8511 151.717L110.174 157.596L110.235 169.473L99.9898 175.476L89.6668 169.597L89.6049 157.724L99.8511 151.717ZM80.2264 175.123L100.054 186.418L119.746 174.89L119.614 152.07L99.7904 140.776L80.0945 152.304L80.2264 175.123" fill="#CCD9DE"/>
</g>
<path d="M281.292 387.767C282.369 385.487 280.716 382.438 277.6 380.965C274.483 379.492 271.078 380.148 270.001 382.427C268.91 384.732 270.564 387.779 273.681 389.253C276.798 390.727 280.203 390.07 281.292 387.767V387.767ZM78.8374 320.147L131.534 276.895L305.111 387.064L295.319 407.773L79.083 331.315L78.8374 320.147" fill="#8E9CA7"/>
<path d="M79.0831 331.315L79.3385 334.347C79.4447 335.608 80.9507 336.199 81.8866 335.348L81.9429 335.296C82.7872 334.528 84.1466 334.962 84.3891 336.078L84.4013 336.134C84.6375 337.22 85.9586 337.647 86.7856 336.904L86.8565 336.84C87.6943 336.088 89.0328 336.583 89.1784 337.7V337.7C89.3209 338.792 90.6111 339.299 91.4587 338.595L91.5139 338.55C92.3558 337.851 93.6364 338.373 93.7499 339.461V339.461C93.8632 340.548 95.1416 341.071 95.9839 340.375L96.3416 340.079C97.183 339.384 98.4611 339.881 98.6108 340.963V340.963C98.7559 342.011 99.9707 342.522 100.821 341.892L101.146 341.651C101.972 341.04 103.153 341.492 103.359 342.498L103.423 342.812C103.614 343.744 104.748 344.111 105.449 343.468L105.537 343.388C106.236 342.747 107.367 343.167 107.477 344.109V344.109C107.585 345.026 108.667 345.458 109.376 344.867L109.611 344.671C110.408 344.007 111.624 344.471 111.775 345.497L111.806 345.704C111.968 346.802 113.256 347.315 114.128 346.63L114.557 346.293C115.324 345.691 116.455 346.148 116.589 347.114L116.628 347.399C116.758 348.338 117.918 348.707 118.566 348.015V348.015C119.198 347.341 120.329 347.672 120.496 348.581L120.549 348.868C120.73 349.849 121.918 350.251 122.657 349.58L122.841 349.414C123.633 348.696 124.904 349.084 125.16 350.121L125.341 350.855C125.574 351.798 126.774 352.084 127.407 351.348V351.348C128.048 350.603 129.265 350.908 129.479 351.868L129.599 352.407C129.839 353.481 131.129 353.922 131.976 353.22L132.133 353.089C133.042 352.336 134.427 352.795 134.704 353.943L134.754 354.147C135.034 355.308 136.38 355.84 137.379 355.187L138.098 354.716C139.032 354.106 140.285 354.656 140.468 355.757V355.757C140.658 356.906 142.003 357.439 142.929 356.732L143.013 356.668C143.918 355.977 145.235 356.447 145.498 357.555L145.513 357.617C145.778 358.734 147.131 359.174 148.003 358.428V358.428C148.863 357.692 150.197 358.109 150.485 359.203L150.555 359.471C150.83 360.517 152.115 360.898 152.916 360.172V360.172C153.742 359.422 155.071 359.856 155.294 360.95L155.352 361.233C155.591 362.398 156.992 362.879 157.895 362.106V362.106C158.736 361.387 160.037 361.747 160.388 362.796L160.656 363.595C160.97 364.533 162.189 364.767 162.829 364.012V364.012C163.511 363.206 164.822 363.537 165.04 364.57L165.07 364.716C165.276 365.69 166.431 366.11 167.213 365.495L167.403 365.347C168.284 364.655 169.584 365.16 169.767 366.265V366.265C169.948 367.361 171.231 367.87 172.114 367.196L172.341 367.023C173.225 366.349 174.509 366.808 174.766 367.889L174.852 368.251C175.085 369.234 176.291 369.6 177.031 368.912L177.122 368.827C177.901 368.104 179.169 368.611 179.236 369.671V369.671C179.301 370.706 180.519 371.223 181.308 370.551L181.479 370.406C182.314 369.695 183.605 370.204 183.73 371.294L183.754 371.503C183.883 372.632 185.182 373.202 186.101 372.532L186.712 372.087C187.65 371.403 188.978 371.967 189.138 373.117L189.153 373.227C189.315 374.391 190.706 374.908 191.588 374.133V374.133C192.409 373.413 193.701 373.803 193.986 374.857L194.126 375.373C194.423 376.472 195.818 376.808 196.582 375.964V375.964C197.361 375.103 198.787 375.472 199.05 376.603L199.114 376.876C199.391 378.066 200.853 378.508 201.743 377.672L201.887 377.537C202.779 376.7 204.237 377.051 204.649 378.203L205.103 379.469C205.495 380.566 206.884 380.9 207.734 380.102L207.82 380.022C208.732 379.165 210.23 379.681 210.422 380.917V380.917C210.612 382.143 212.09 382.664 213.007 381.829L213.076 381.766C213.985 380.938 215.449 381.397 215.723 382.596L215.76 382.76C216.029 383.94 217.449 384.421 218.38 383.648V383.648C219.29 382.893 220.677 383.333 220.985 384.474L221.105 384.916C221.399 386.005 222.765 386.36 223.552 385.552V385.552C224.364 384.718 225.779 385.129 226.018 386.268L226.063 386.481C226.304 387.624 227.723 388.036 228.539 387.2V387.2C229.327 386.392 230.693 386.743 230.994 387.83L231.156 388.419C231.486 389.611 232.993 389.984 233.841 389.082V389.082C234.679 388.191 236.168 388.544 236.517 389.716L236.728 390.427C237.071 391.579 238.495 391.983 239.392 391.184V391.184C240.363 390.319 241.906 390.873 242.105 392.158L242.116 392.227C242.308 393.471 243.751 394.068 244.766 393.325L245.293 392.939C246.333 392.178 247.811 392.776 248.028 394.047V394.047C248.249 395.343 249.775 395.931 250.81 395.12L250.983 394.983C251.992 394.192 253.481 394.743 253.731 396.001V396.001C253.963 397.169 255.282 397.753 256.303 397.14L256.93 396.764C257.949 396.151 259.266 396.743 259.485 397.912L259.568 398.354C259.781 399.492 261.17 399.942 262.01 399.144V399.144C262.82 398.374 264.161 398.763 264.433 399.848L264.566 400.377C264.871 401.593 266.304 402.121 267.325 401.393L267.84 401.025C268.94 400.241 270.484 400.828 270.784 402.145V402.145C271.077 403.43 272.561 404.029 273.664 403.308L273.982 403.1C275.005 402.431 276.383 403.043 276.601 404.246V404.246C276.824 405.483 278.28 406.068 279.279 405.305V405.305C280.266 404.55 281.704 405.092 281.947 406.311L282.075 406.955C282.315 408.157 283.738 408.683 284.702 407.926L284.988 407.702C285.869 407.011 287.167 407.546 287.305 408.658L287.356 409.076C287.483 410.105 288.745 410.531 289.47 409.787L289.721 409.529C290.363 408.872 291.48 409.272 291.558 410.187V410.187C291.645 411.217 292.996 411.539 293.539 410.659L294.435 409.207C294.919 408.422 294.659 407.393 293.86 406.932L262.717 388.973C262.585 388.897 262.447 388.831 262.304 388.778L169.281 353.755L93.7027 328.977C93.2579 328.831 92.7836 328.799 92.3232 328.883L79.0831 331.315" fill="#8E9CA7"/>
<path d="M95.9531 297.237C113.432 265.924 101.299 266.164 91.6253 262.006C81.9234 257.833 80.4016 276.47 75.2768 285.651C70.1684 294.809 55.0993 305.89 63.7432 311.961C72.359 318.018 78.4906 328.525 95.9531 297.237ZM51.3052 319.103C25.5229 316.845 24.9262 310.966 26.4877 305.199C28.0491 299.434 36.4553 304.144 41.6523 303.737C46.854 303.329 41.1209 296.796 48.1777 284.15C55.2391 271.502 60.4735 270.019 65.8942 260.308C71.301 250.618 47.2315 248.856 58.1453 236.609C67.0222 226.639 140.279 277.495 147.185 281.927C148.462 282.747 148.998 292.824 140.659 294.045C134.677 294.921 120.088 286.158 116.685 289.742C99.1598 308.197 86.7615 343.907 81.4899 343.221C73.7666 342.212 77.1109 321.378 51.3052 319.103" fill="#16B5F9"/>
<path d="M960.641 195.935L752.802 72.1086C751.472 71.3165 749.752 71.7518 748.959 73.0811L746.43 77.3241C746.049 77.963 745.937 78.7271 746.12 79.4482L746.782 82.0621C747.113 83.3679 748.44 84.1582 749.746 83.8272V83.8272C751.052 83.4963 752.379 84.2876 752.71 85.5933V85.5933C753.041 86.8991 754.368 87.6905 755.674 87.3595V87.3595C756.98 87.0286 758.307 87.82 758.638 89.1258V89.1258C758.97 90.4314 760.297 91.2228 761.602 90.8918V90.8918C762.908 90.5609 764.235 91.3513 764.566 92.6571V92.6571C764.897 93.9628 766.225 94.753 767.531 94.4225V94.4225C768.837 94.0919 770.165 94.8831 770.496 96.1894V96.1894C770.827 97.4958 772.154 98.2869 773.46 97.9557V97.9557C774.766 97.6245 776.094 98.4156 776.424 99.7219V99.7219C776.755 101.028 778.082 101.819 779.388 101.488V101.488C780.695 101.157 782.022 101.947 782.352 103.254V103.254C782.682 104.559 784.01 105.35 785.315 105.02V105.02C786.621 104.689 787.948 105.48 788.279 106.786V106.786C788.61 108.091 789.937 108.882 791.243 108.551V108.551C792.549 108.22 793.876 109.011 794.207 110.317V110.317C794.538 111.623 795.866 112.414 797.172 112.083V112.083C798.478 111.751 799.806 112.542 800.136 113.849V113.849C800.467 115.155 801.795 115.946 803.102 115.616V115.616C804.407 115.285 805.735 116.076 806.065 117.381V117.381C806.395 118.688 807.723 119.478 809.029 119.147V119.147C810.335 118.816 811.662 119.607 811.993 120.913V120.913C812.324 122.219 813.651 123.011 814.957 122.679V122.679C816.264 122.348 817.591 123.138 817.922 124.445V124.445C818.253 125.75 819.579 126.541 820.885 126.21V126.21C822.191 125.88 823.518 126.672 823.85 127.978V127.978C824.181 129.283 825.508 130.074 826.814 129.744V129.744C828.12 129.413 829.447 130.203 829.777 131.509V131.509C830.108 132.815 831.435 133.606 832.741 133.275V133.275C834.047 132.945 835.376 133.735 835.707 135.041V135.041C836.038 136.347 837.364 137.137 838.67 136.807V136.807C839.977 136.476 841.304 137.268 841.634 138.574V138.574C841.965 139.881 843.293 140.672 844.599 140.34V140.34C845.905 140.009 847.232 140.799 847.563 142.105V142.105C847.894 143.411 849.221 144.201 850.527 143.87V143.87C851.832 143.539 853.16 144.33 853.491 145.636V145.636C853.822 146.942 855.15 147.734 856.456 147.403V147.403C857.762 147.073 859.089 147.863 859.42 149.169V149.169C859.751 150.475 861.078 151.265 862.384 150.934V150.934C863.69 150.603 865.018 151.394 865.349 152.701V152.701C865.679 154.007 867.006 154.798 868.312 154.467V154.467C869.618 154.136 870.945 154.927 871.276 156.233V156.233C871.607 157.539 872.934 158.33 874.24 157.999V157.999C875.546 157.668 876.873 158.459 877.204 159.765V159.765C877.534 161.07 878.861 161.861 880.167 161.53V161.53C881.474 161.2 882.801 161.992 883.132 163.298V163.298C883.464 164.603 884.791 165.395 886.097 165.064V165.064C887.402 164.733 888.729 165.523 889.06 166.829V166.829C889.391 168.134 890.718 168.924 892.024 168.593V168.593C893.33 168.262 894.658 169.053 894.989 170.36V170.36C895.32 171.666 896.648 172.457 897.954 172.126V172.126C899.26 171.796 900.587 172.587 900.918 173.893V173.893C901.248 175.199 902.576 175.989 903.882 175.659V175.659C905.188 175.328 906.516 176.119 906.846 177.425V177.425C907.176 178.731 908.503 179.521 909.809 179.19V179.19C911.115 178.86 912.442 179.651 912.773 180.956V180.956C913.104 182.262 914.432 183.054 915.738 182.724V182.724C917.044 182.394 918.37 183.184 918.701 184.489V184.489C919.032 185.795 920.36 186.586 921.666 186.255V186.255C922.972 185.923 924.3 186.714 924.63 188.021V188.021C924.961 189.327 926.288 190.118 927.595 189.787V189.787C928.9 189.456 930.228 190.246 930.558 191.552V191.552C930.888 192.858 932.216 193.648 933.522 193.318V193.318C934.828 192.987 936.156 193.778 936.486 195.084V195.084C936.817 196.39 938.144 197.181 939.45 196.85V196.85C940.757 196.52 942.085 197.311 942.416 198.617V198.617C942.748 199.923 944.075 200.714 945.38 200.383V200.383C946.686 200.052 948.013 200.842 948.344 202.148V202.148C948.675 203.454 950.001 204.245 951.307 203.914L954.705 203.055C954.924 203 955.156 203.033 955.35 203.149V203.149C955.755 203.39 956.278 203.257 956.519 202.853L960.641 195.935" fill="#5C6B77"/>
<path d="M982.202 126.396L810.364 24.0187C803.947 20.1943 796.73 17.777 789.267 17.4257C781.227 17.0468 771.93 18.7712 766.92 27.1818C758.818 40.78 743.14 67.0937 737.43 76.6785C736.241 78.6734 736.9 81.2458 738.895 82.4342L742.886 84.8114C744.88 85.9997 747.461 85.3459 748.649 83.3512L774.492 39.9754C774.627 39.7486 774.736 39.5204 774.837 39.2764C775.909 36.6877 783.138 21.2017 799.193 30.768C815.151 40.2763 949.3 120.2 972.55 134.052C974.498 135.212 976.949 134.58 978.174 132.671L982.202 126.396" fill="#8E9CA7"/>
<path d="M733.497 76.1556L740.334 64.6818L743.466 66.5482L736.629 78.0219L733.497 76.1556Z" fill="#36404A"/>
<path d="M722.521 66.7023L726.795 59.5288L731.763 62.4867L727.487 69.6614L722.521 66.7023" fill="#4B5762"/>
<path d="M726.205 71.8104L733.042 60.3366L740.334 64.6817L733.497 76.1555L726.205 71.8104Z" fill="#5C6B77"/>
<path d="M740.334 64.6818L743.874 61.5491L745.03 59.6105L734.969 53.6178L733.618 55.8863L732.995 60.3096L740.334 64.6818Z" fill="#5C6B77"/>
<path d="M733.497 76.1555L732.43 80.7606L731.274 82.6992L721.214 76.7064L722.567 74.4367L726.16 71.782L733.497 76.1555" fill="#5C6B77"/>
<path d="M722.715 298.185C722.715 298.185 761.035 345.241 807.276 357.166C853.521 369.091 859.701 369.102 863.029 358.485C866.359 347.868 809.613 339.863 798.121 332.138C786.631 324.411 735.813 282.713 735.813 282.713L722.715 298.185Z" fill="#16B5F9"/>
<path d="M697.433 278.691C696.902 279.02 696.507 279.528 696.32 280.124V280.124C695.906 281.447 696.601 282.862 697.901 283.342L706.482 286.512C708.232 287.159 710.199 286.575 711.312 285.078L716.901 277.564C718.537 275.365 717.665 272.214 715.132 271.168L713.787 270.613C712.538 270.098 711.117 270.214 709.969 270.925L697.433 278.691Z" fill="#8E9CA7"/>
<path d="M723.157 298.475L718.076 301.977C714.516 304.43 709.715 301.581 710.164 297.281L710.818 290.998L707.418 287.872L720.558 270.608L736.255 283.003L723.157 298.475" fill="#1F80C6"/>
<path d="M739.906 242.635C739.906 242.635 798.233 225.886 843.006 242.503C887.778 259.121 892.858 262.638 889.528 273.256C886.197 283.873 835.041 258.042 821.197 257.823C807.353 257.604 741.823 262.818 741.823 262.818L739.906 242.635" fill="#16B5F9"/>
<path d="M708.253 244.188C708.005 243.616 707.971 242.973 708.158 242.377V242.377C708.573 241.055 709.951 240.29 711.293 240.638L720.147 242.936C721.953 243.405 723.234 245.007 723.293 246.872L723.591 256.231C723.678 258.971 721.163 261.06 718.486 260.471L717.066 260.159C715.746 259.869 714.646 258.963 714.109 257.723L708.253 244.188Z" fill="#8E9CA7"/>
<path d="M740.666 242.635L738.497 236.862C736.974 232.812 731.407 232.411 729.317 236.198L726.266 241.728L721.69 242.355L722.622 264.029L742.584 262.818L740.666 242.635Z" fill="#1F80C6"/>
<path d="M651.011 247.52L678.006 255.986L691.846 261.403C693.218 261.94 693.94 263.447 693.499 264.852L689.674 277.047C689.239 278.434 687.816 279.258 686.396 278.945L647.886 270.442C647.46 270.348 647.063 270.156 646.725 269.882L623.846 251.331C622.953 250.607 622.592 249.412 622.936 248.316L623.914 245.196C624.336 243.849 625.694 243.027 627.084 243.276L630.707 243.926C632.008 244.159 632.914 245.3 633.371 246.54C634.105 248.537 635.726 250.179 637.933 250.872C640.744 251.752 643.689 250.802 645.475 248.698C646.339 247.681 647.593 246.909 648.906 247.144L651.011 247.52" fill="#8E9CA7"/>
<path d="M652.305 243.397L679.3 251.862L693.755 255.317C695.188 255.659 696.641 254.835 697.082 253.429L700.904 241.236C701.339 239.848 700.641 238.359 699.297 237.805L662.826 222.795C662.423 222.629 661.987 222.56 661.553 222.592L632.179 224.756C631.033 224.841 630.055 225.617 629.711 226.713L628.733 229.833C628.311 231.179 628.955 232.63 630.238 233.219L633.583 234.754C634.784 235.306 636.179 234.887 637.262 234.129C639.005 232.909 641.274 232.487 643.483 233.179C646.292 234.062 648.168 236.522 648.432 239.267C648.561 240.595 649.149 241.946 650.361 242.503L652.305 243.397" fill="#8E9CA7"/>
<path d="M701.673 238.783C712.882 242.297 719.118 254.234 715.604 265.44C712.09 276.65 700.153 282.889 688.945 279.372C677.736 275.859 671.499 263.92 675.013 252.713C678.53 241.505 690.465 235.267 701.673 238.783" fill="#8E9CA7"/>
<path d="M699.041 247.173C705.617 249.236 709.276 256.235 707.213 262.811C705.152 269.386 698.152 273.043 691.576 270.98C685.002 268.921 681.344 261.919 683.405 255.344C685.466 248.769 692.466 245.112 699.041 247.173Z" fill="#70808D"/>
<path d="M-66.5265 161.781C-69.6103 156.648 -67.9067 149.983 -62.7363 146.961L90.7451 57.2436L99.597 71.9734L-51.6597 165.391C-56.7548 168.538 -63.4403 166.914 -66.5265 161.781" fill="#16B5F9"/>
<path d="M114.138 85.3194L108.458 75.8669L125.337 65.7229L131.018 75.1754L114.138 85.3194Z" fill="#768895"/>
<path d="M100.64 73.8605L89.5189 55.3551C87.6674 52.2742 88.6646 48.2726 91.7466 46.4198L106.932 37.2937C110.016 35.4418 114.017 36.4394 115.868 39.5208L126.989 58.025C128.842 61.1079 127.845 65.1089 124.761 66.9614L109.576 76.0869C106.493 77.9403 102.493 76.9427 100.64 73.8605Z" fill="#8E9CA7"/>
<path d="M102.55 29.2661L86.7154 38.7812L83.2673 19.2258C82.9059 17.1786 85.2608 15.7619 86.9004 17.0425L102.55 29.2661Z" fill="#8E9CA7"/>
<path d="M118.897 99.4215L112.006 87.9535C111.138 86.5105 111.605 84.6384 113.048 83.7706L129.917 73.6337C131.36 72.767 133.233 73.2331 134.1 74.6773L140.992 86.1454C141.858 87.5874 141.393 89.4605 139.95 90.327L123.081 100.465C121.638 101.332 119.765 100.866 118.897 99.4215" fill="#8E9CA7"/>
<path d="M92.8338 45.7663L88.1262 37.9332L101.383 29.9662L106.09 37.7994L92.8338 45.7663Z" fill="#768895"/>
<path d="M594.512 61.0371L595.696 55.2367L596.878 49.4351L583.258 43.2076L568.904 44.8153L459.726 22.5675L458.753 27.3319L457.784 32.0953L566.965 54.3444L579.545 61.4401L594.512 61.0371" fill="#8E9CA7"/>
<path fill-rule="evenodd" clip-rule="evenodd" d="M358.905 -13.1572C348.227 -15.3336 337.803 -8.44088 335.629 2.23868C333.453 12.917 340.345 23.3405 351.024 25.5169L428.351 41.2731L428.347 41.2885L428.386 41.2803L428.427 41.2886L428.43 41.2708L446.936 37.3089L449.357 25.4322L451.778 13.552L436.297 2.66532L436.307 2.61667L358.905 -13.1572Z" fill="#16B5F9"/>
<path fill-rule="evenodd" clip-rule="evenodd" d="M463.216 14.7829L457.962 40.5693C457.451 43.0709 454.428 44.0882 452.509 42.4056L446.554 37.1867L451.397 13.4299L458.916 10.9571C461.342 10.159 463.725 12.2801 463.216 14.7829ZM365.592 -6.83006C363.694 -7.21441 361.844 -5.98977 361.457 -4.09337C361.069 -2.19482 362.295 -0.34625 364.192 0.04023L422.515 11.9258C424.41 12.3145 426.262 11.0877 426.648 9.19134C427.035 7.29493 425.809 5.4408 423.913 5.05432L365.592 -6.83006ZM359.188 7.04087C359.575 5.14446 361.427 3.91775 363.324 4.30759L421.643 16.1907C423.539 16.5772 424.766 18.4291 424.379 20.3255C423.992 22.2241 422.142 23.4466 420.244 23.0622L361.921 11.1767C360.025 10.7902 358.8 8.93941 359.188 7.04087ZM361.053 15.4405C359.156 15.0541 357.306 16.2786 356.918 18.1771C356.532 20.0735 357.756 21.9242 359.655 22.312L417.973 34.1951C419.872 34.5828 421.723 33.3583 422.11 31.4598C422.497 29.5633 421.27 27.7114 419.374 27.3249L361.053 15.4405Z" fill="#1F80C6"/>
<g clip-path="url(#clip1)">
<path d="M389.661 181.997V189.643H394.979V195.736H389.661V211.256C389.661 212.406 389.882 213.23 390.322 213.728C390.763 214.226 391.606 214.475 392.852 214.475C393.771 214.475 394.586 214.408 395.295 214.274V220.568C393.666 221.066 391.989 221.315 390.265 221.315C384.44 221.315 381.47 218.374 381.355 212.492V195.736H376.814V189.643H381.355V181.997H389.661ZM397.45 204.904C397.45 201.819 398.044 199.07 399.232 196.655C400.42 194.241 402.126 192.373 404.348 191.051C406.59 189.729 409.186 189.068 412.137 189.068C416.333 189.068 419.753 190.352 422.398 192.919C425.061 195.487 426.546 198.974 426.853 203.381L426.91 205.508C426.91 210.279 425.578 214.111 422.915 217.004C420.252 219.878 416.678 221.315 412.195 221.315C407.711 221.315 404.128 219.878 401.445 217.004C398.782 214.13 397.45 210.221 397.45 205.278V204.904ZM405.756 205.508C405.756 208.459 406.312 210.719 407.423 212.291C408.535 213.843 410.125 214.619 412.195 214.619C414.206 214.619 415.778 213.852 416.908 212.319C418.039 210.767 418.604 208.296 418.604 204.904C418.604 202.011 418.039 199.769 416.908 198.179C415.778 196.588 414.187 195.793 412.137 195.793C410.106 195.793 408.535 196.588 407.423 198.179C406.312 199.75 405.756 202.193 405.756 205.508ZM430.733 204.904C430.733 201.819 431.327 199.07 432.515 196.655C433.702 194.241 435.408 192.373 437.63 191.051C439.872 189.729 442.469 189.068 445.419 189.068C449.616 189.068 453.036 190.352 455.68 192.919C458.343 195.487 459.828 198.974 460.135 203.381L460.192 205.508C460.192 210.279 458.861 214.111 456.197 217.004C453.534 219.878 449.96 221.315 445.477 221.315C440.993 221.315 437.41 219.878 434.728 217.004C432.064 214.13 430.733 210.221 430.733 205.278V204.904ZM439.039 205.508C439.039 208.459 439.594 210.719 440.706 212.291C441.817 213.843 443.407 214.619 445.477 214.619C447.489 214.619 449.06 213.852 450.19 212.319C451.321 210.767 451.886 208.296 451.886 204.904C451.886 202.011 451.321 199.769 450.19 198.179C449.06 196.588 447.47 195.793 445.419 195.793C443.388 195.793 441.817 196.588 440.706 198.179C439.594 199.75 439.039 202.193 439.039 205.508ZM474.074 220.741H465.739V176.594H474.074V220.741ZM508.966 205.479C508.966 210.461 507.903 214.35 505.776 217.148C503.649 219.926 500.679 221.315 496.866 221.315C493.494 221.315 490.802 220.022 488.79 217.435L488.416 220.741H480.943V176.594H489.25V192.431C491.166 190.189 493.685 189.068 496.809 189.068C500.602 189.068 503.572 190.467 505.718 193.264C507.883 196.042 508.966 199.961 508.966 205.019V205.479ZM500.66 204.875C500.66 201.733 500.162 199.443 499.165 198.006C498.169 196.55 496.684 195.822 494.71 195.822C492.066 195.822 490.246 196.905 489.25 199.07V211.342C490.265 213.527 492.105 214.619 494.768 214.619C497.45 214.619 499.213 213.297 500.056 210.652C500.459 209.388 500.66 207.462 500.66 204.875ZM528.424 221.315C523.864 221.315 520.146 219.917 517.272 217.119C514.417 214.322 512.99 210.595 512.99 205.939V205.134C512.99 202.011 513.593 199.223 514.8 196.77C516.008 194.299 517.713 192.402 519.916 191.08C522.139 189.738 524.668 189.068 527.504 189.068C531.758 189.068 535.101 190.409 537.535 193.092C539.987 195.774 541.214 199.577 541.214 204.502V207.893H521.411C521.679 209.924 522.484 211.553 523.825 212.779C525.186 214.006 526.901 214.619 528.97 214.619C532.17 214.619 534.67 213.459 536.471 211.141L540.553 215.711C539.307 217.474 537.621 218.853 535.494 219.85C533.367 220.827 531.011 221.315 528.424 221.315ZM527.475 195.793C525.828 195.793 524.486 196.349 523.452 197.46C522.436 198.572 521.785 200.162 521.497 202.231H533.051V201.57C533.013 199.731 532.515 198.313 531.557 197.317C530.599 196.301 529.238 195.793 527.475 195.793ZM554.722 220.741H546.387V176.594H554.722V220.741ZM571.536 181.997V189.643H576.853V195.736H571.536V211.256C571.536 212.406 571.756 213.23 572.197 213.728C572.637 214.226 573.48 214.475 574.726 214.475C575.646 214.475 576.46 214.408 577.169 214.274V220.568C575.54 221.066 573.864 221.315 572.139 221.315C566.314 221.315 563.344 218.374 563.229 212.492V195.736H558.688V189.643H563.229V181.997H571.536Z" fill="white"/>
<rect x="258.803" y="130.704" width="100.906" height="100.906" rx="2.80295" fill="#16B5F9"/>
<path d="M317.328 181.293V188.749H305.612V220.142H296.867V188.749H285.151V181.293H317.328ZM333.544 213.471C334.777 213.471 335.786 213.378 336.571 213.191C337.393 212.966 338.047 212.686 338.533 212.35C339.019 211.976 339.355 211.546 339.542 211.06C339.729 210.575 339.823 210.033 339.823 209.435C339.823 208.164 339.225 207.118 338.029 206.295C336.833 205.436 334.777 204.52 331.862 203.549C330.592 203.1 329.321 202.596 328.05 202.035C326.78 201.437 325.64 200.708 324.631 199.849C323.622 198.952 322.799 197.887 322.164 196.653C321.529 195.383 321.211 193.85 321.211 192.056C321.211 190.263 321.547 188.656 322.22 187.235C322.893 185.778 323.846 184.545 325.079 183.536C326.312 182.526 327.807 181.76 329.564 181.237C331.32 180.677 333.301 180.396 335.506 180.396C338.122 180.396 340.383 180.677 342.289 181.237C344.195 181.798 345.765 182.414 346.998 183.087L344.475 189.982C343.392 189.422 342.177 188.936 340.832 188.525C339.524 188.076 337.935 187.852 336.067 187.852C333.974 187.852 332.46 188.151 331.526 188.749C330.629 189.31 330.18 190.188 330.18 191.384C330.18 192.094 330.349 192.692 330.685 193.178C331.021 193.664 331.488 194.112 332.086 194.523C332.722 194.897 333.432 195.252 334.217 195.588C335.039 195.887 335.936 196.205 336.907 196.541C338.926 197.289 340.682 198.036 342.177 198.784C343.672 199.494 344.905 200.335 345.877 201.306C346.886 202.278 347.633 203.418 348.119 204.726C348.605 206.034 348.848 207.622 348.848 209.491C348.848 213.116 347.577 215.938 345.036 217.956C342.495 219.936 338.664 220.927 333.544 220.927C331.825 220.927 330.274 220.815 328.891 220.591C327.508 220.404 326.275 220.161 325.191 219.862C324.145 219.563 323.229 219.245 322.444 218.909C321.697 218.572 321.061 218.255 320.538 217.956L323.005 211.004C324.163 211.64 325.584 212.219 327.265 212.742C328.984 213.228 331.077 213.471 333.544 213.471Z" fill="#0C1117"/>
</g>
</g>
<defs>
<clipPath id="clip0">
<rect width="850" height="350" rx="6" fill="white"/>
</clipPath>
<clipPath id="clip1">
<rect width="337.755" height="127.534" fill="white" transform="translate(256 127.901)"/>
</clipPath>
</defs>
</svg>
