<svg width="850" height="220" viewBox="0 0 850 220" fill="none" xmlns="http://www.w3.org/2000/svg">
<g clip-path="url(#clip0)">
<rect width="850" height="220" rx="6" fill="#0D1117"/>
<g opacity="0.1">
<path d="M172.886 66.3438L179.024 69.9399L178.974 77.0518L172.795 80.5713L166.657 76.9752L166.707 69.8653L172.886 66.3438ZM160.964 80.215L172.754 87.1234L184.629 80.3649L184.718 66.7001L172.93 59.792L161.052 66.5503L160.964 80.215" fill="#CCD9DE"/>
<path d="M597 50.0077C597 43.3762 602.374 38 609.006 38C615.637 38 621.012 43.3762 621.012 50.0077C621.012 56.6373 615.637 62.0135 609.006 62.0135C602.374 62.0135 597 56.6373 597 50.0077Z" fill="#CCD9DE"/>
<path d="M543.498 170C544.884 170 546 171.049 546 172.347V192.657C546 193.951 544.884 195 543.498 195C542.121 195 541 193.951 541 192.657V172.347C541 171.049 542.121 170 543.498 170Z" fill="#CCD9DE"/>
<path d="M556 182.498C556 183.884 554.951 185 553.653 185L533.343 185C532.049 185 531 183.884 531 182.498C531 181.121 532.049 180 533.343 180L553.653 180C554.951 180 556 181.121 556 182.498Z" fill="#CCD9DE"/>
<path d="M708.882 118.571L702.701 115.051L702.664 107.939L708.799 104.344L714.981 107.864L715.018 114.974L708.882 118.571ZM720.634 104.555L708.761 97.7916L696.969 104.695L697.048 118.36L708.919 125.123L720.713 118.22L720.634 104.555" fill="#CCD9DE"/>
<path d="M247.011 161.006C247.011 167.637 241.637 173.013 235.006 173.013C228.374 173.013 223 167.637 223 161.006C223 154.376 228.374 149 235.006 149C241.637 149 247.011 154.376 247.011 161.006Z" fill="#CCD9DE"/>
<path d="M310.502 44C309.116 44 308 42.9507 308 41.6529L308 21.3429C308 20.0494 309.116 19 310.502 19C311.879 19 313 20.0494 313 21.3429L313 41.6529C313 42.9507 311.879 44 310.502 44Z" fill="#CCD9DE"/>
<path d="M298 31.5023C298 30.1162 299.049 29 300.347 29L320.657 29C321.951 29 323 30.1162 323 31.5023C323 32.8792 321.951 34 320.657 34L300.347 34C299.049 34 298 32.8792 298 31.5023Z" fill="#CCD9DE"/>
</g>
<path d="M245.308 226.611C246.076 224.985 244.897 222.809 242.673 221.758C240.449 220.707 238.019 221.175 237.251 222.802C236.473 224.446 237.653 226.62 239.877 227.672C242.101 228.723 244.531 228.254 245.308 226.611V226.611ZM100.849 178.362L138.45 147.501L262.303 226.11L255.316 240.887L101.024 186.331L100.849 178.362" fill="#8E9CA7"/>
<path d="M101.024 186.331L101.207 188.494C101.282 189.394 102.357 189.816 103.025 189.208L103.065 189.172C103.667 188.624 104.637 188.934 104.81 189.729L104.819 189.77C104.988 190.545 105.93 190.849 106.52 190.319L106.571 190.273C107.169 189.736 108.124 190.09 108.228 190.887V190.887C108.329 191.666 109.25 192.028 109.855 191.526L109.894 191.493C110.495 190.995 111.409 191.367 111.49 192.144V192.144C111.571 192.919 112.483 193.292 113.084 192.795L113.339 192.585C113.939 192.088 114.851 192.443 114.958 193.215V193.215C115.062 193.963 115.929 194.327 116.536 193.878L116.767 193.706C117.356 193.27 118.199 193.593 118.346 194.311L118.392 194.535C118.528 195.199 119.337 195.461 119.837 195.003L119.9 194.945C120.399 194.488 121.206 194.788 121.285 195.46V195.46C121.361 196.114 122.133 196.422 122.64 196.001L122.807 195.861C123.376 195.387 124.243 195.719 124.351 196.451L124.373 196.598C124.489 197.381 125.408 197.748 126.031 197.259L126.336 197.019C126.883 196.589 127.691 196.915 127.786 197.604L127.814 197.808C127.907 198.477 128.735 198.741 129.197 198.247V198.247C129.648 197.766 130.455 198.002 130.574 198.651L130.612 198.855C130.741 199.556 131.588 199.842 132.116 199.364L132.247 199.245C132.812 198.733 133.719 199.01 133.902 199.75L134.031 200.273C134.197 200.946 135.053 201.15 135.505 200.625V200.625C135.963 200.094 136.831 200.311 136.984 200.996L137.069 201.381C137.24 202.147 138.161 202.462 138.765 201.961L138.877 201.868C139.526 201.33 140.514 201.658 140.712 202.477L140.747 202.622C140.948 203.451 141.907 203.831 142.62 203.364L143.134 203.029C143.8 202.593 144.694 202.986 144.824 203.771V203.771C144.96 204.591 145.92 204.971 146.581 204.467L146.641 204.421C147.287 203.928 148.226 204.264 148.414 205.054L148.424 205.098C148.614 205.895 149.579 206.21 150.201 205.677V205.677C150.815 205.152 151.767 205.449 151.972 206.23L152.022 206.422C152.218 207.167 153.135 207.439 153.707 206.921V206.921C154.296 206.386 155.244 206.696 155.404 207.476L155.445 207.679C155.615 208.51 156.615 208.853 157.259 208.302V208.302C157.859 207.789 158.788 208.046 159.039 208.794L159.229 209.364C159.454 210.033 160.324 210.2 160.78 209.661V209.661C161.267 209.086 162.202 209.322 162.357 210.06L162.379 210.164C162.526 210.858 163.35 211.158 163.909 210.72L164.044 210.614C164.672 210.12 165.6 210.481 165.73 211.269V211.269C165.86 212.051 166.775 212.414 167.405 211.934L167.567 211.81C168.198 211.329 169.114 211.656 169.297 212.428L169.359 212.686C169.525 213.387 170.386 213.648 170.914 213.158L170.979 213.097C171.534 212.581 172.439 212.943 172.487 213.699V213.699C172.533 214.438 173.402 214.807 173.966 214.327L174.087 214.224C174.684 213.716 175.604 214.08 175.693 214.857L175.711 215.006C175.803 215.812 176.73 216.219 177.385 215.741L177.821 215.423C178.491 214.935 179.438 215.338 179.552 216.158L179.563 216.237C179.679 217.067 180.671 217.436 181.301 216.883V216.883C181.887 216.369 182.809 216.648 183.012 217.4L183.111 217.768C183.323 218.552 184.319 218.792 184.864 218.189V218.189C185.42 217.575 186.437 217.839 186.625 218.646L186.671 218.84C186.868 219.689 187.911 220.005 188.547 219.408L188.649 219.312C189.286 218.715 190.326 218.965 190.62 219.787L190.944 220.69C191.224 221.473 192.215 221.712 192.821 221.143L192.882 221.085C193.533 220.474 194.603 220.842 194.739 221.724V221.724C194.875 222.598 195.929 222.97 196.584 222.374L196.633 222.33C197.282 221.739 198.326 222.067 198.522 222.922L198.548 223.039C198.74 223.881 199.753 224.224 200.418 223.673V223.673C201.067 223.134 202.056 223.448 202.277 224.262L202.362 224.577C202.572 225.354 203.547 225.607 204.108 225.031V225.031C204.688 224.436 205.697 224.729 205.868 225.542L205.9 225.694C206.072 226.51 207.084 226.804 207.667 226.207V226.207C208.228 225.63 209.204 225.881 209.418 226.657L209.534 227.076C209.769 227.927 210.845 228.193 211.45 227.55V227.55C212.047 226.914 213.11 227.166 213.359 228.002L213.51 228.509C213.754 229.331 214.77 229.62 215.411 229.05V229.05C216.103 228.433 217.204 228.828 217.346 229.745L217.354 229.794C217.491 230.681 218.52 231.107 219.245 230.577L219.621 230.302C220.363 229.759 221.418 230.186 221.573 231.092V231.092C221.73 232.017 222.819 232.437 223.557 231.858L223.681 231.761C224.401 231.196 225.464 231.589 225.642 232.487V232.487C225.807 233.32 226.749 233.737 227.477 233.3L227.924 233.031C228.651 232.594 229.591 233.016 229.747 233.85L229.806 234.166C229.958 234.978 230.95 235.299 231.549 234.729V234.729C232.127 234.18 233.084 234.457 233.278 235.231L233.373 235.609C233.59 236.477 234.613 236.853 235.341 236.334L235.709 236.072C236.494 235.512 237.595 235.931 237.809 236.871V236.871C238.019 237.788 239.078 238.215 239.865 237.7L240.091 237.552C240.821 237.075 241.805 237.512 241.96 238.37V238.37C242.119 239.252 243.159 239.67 243.871 239.125V239.125C244.576 238.586 245.601 238.973 245.775 239.843L245.866 240.302C246.037 241.16 247.053 241.536 247.741 240.996L247.945 240.836C248.573 240.343 249.5 240.725 249.598 241.518L249.634 241.816C249.725 242.551 250.626 242.854 251.143 242.324L251.322 242.14C251.78 241.67 252.577 241.956 252.632 242.609V242.609C252.695 243.344 253.659 243.574 254.046 242.946L254.685 241.91C255.031 241.35 254.845 240.615 254.275 240.286L232.053 227.472C231.959 227.418 231.861 227.371 231.759 227.333L165.384 202.343L111.456 184.662C111.139 184.558 110.8 184.535 110.472 184.596L101.024 186.331" fill="#8E9CA7"/>
<path d="M113.062 162.015C125.533 139.672 116.876 139.844 109.974 136.876C103.051 133.899 101.965 147.198 98.3086 153.748C94.6635 160.283 83.9112 168.19 90.0789 172.521C96.2266 176.843 100.602 184.34 113.062 162.015ZM81.204 177.618C62.8074 176.007 62.3817 171.811 63.4958 167.696C64.61 163.583 70.608 166.943 74.3163 166.653C78.0279 166.362 73.9371 161.7 78.9724 152.677C84.011 143.652 87.7458 142.594 91.6137 135.665C95.4716 128.751 78.2973 127.493 86.0846 118.755C92.4186 111.641 144.69 147.929 149.617 151.091C150.528 151.676 150.911 158.866 144.961 159.738C140.692 160.362 130.283 154.11 127.855 156.667C115.35 169.836 106.503 195.316 102.742 194.826C97.231 194.106 99.6172 179.24 81.204 177.618" fill="#16B5F9"/>
<path d="M810.05 73.4852L816.924 77.5801L820.176 72.1228L813.303 68.027L810.05 73.4852Z" fill="#5C6B77"/>
<path d="M813.841 68.3269L665.54 -20.0277C664.592 -20.5929 663.364 -20.2823 662.799 -19.3338L660.994 -16.3063C660.722 -15.8504 660.642 -15.3052 660.773 -14.7907L661.246 -12.9256C661.482 -11.9938 662.428 -11.4299 663.36 -11.6661V-11.6661C664.292 -11.9022 665.239 -11.3375 665.475 -10.4059V-10.4059C665.711 -9.47419 666.658 -8.90949 667.59 -9.14564V-9.14564C668.522 -9.38179 669.469 -8.8171 669.705 -7.88538V-7.88538C669.941 -6.95373 670.888 -6.38908 671.82 -6.62522V-6.62522C672.752 -6.86139 673.699 -6.29739 673.935 -5.36563V-5.36563C674.171 -4.43398 675.118 -3.87014 676.05 -4.10595V-4.10595C676.982 -4.34186 677.93 -3.77735 678.166 -2.8452V-2.8452C678.402 -1.91308 679.349 -1.34856 680.281 -1.58491V-1.58491C681.213 -1.82126 682.16 -1.25676 682.396 -0.324649V-0.324649C682.632 0.607391 683.579 1.17182 684.511 0.935479V0.935479C685.443 0.699136 686.39 1.26336 686.626 2.19544V2.19544C686.861 3.12711 687.808 3.69119 688.74 3.45553V3.45553C689.672 3.21986 690.619 3.78384 690.855 4.71546V4.71546C691.091 5.64725 692.038 6.21131 692.97 5.97514V5.97514C693.901 5.73901 694.848 6.30346 695.085 7.23511V7.23511C695.321 8.167 696.268 8.73154 697.2 8.49521V8.49521C698.132 8.25879 699.08 8.82325 699.315 9.75559V9.75559C699.551 10.6877 700.499 11.2521 701.431 11.0162V11.0162C702.363 10.7804 703.31 11.3444 703.546 12.2761V12.2761C703.781 13.2081 704.729 13.7722 705.66 13.5359V13.5359C706.592 13.2996 707.54 13.8639 707.775 14.7959V14.7959C708.011 15.7281 708.959 16.2926 709.891 16.0562V16.0562C710.823 15.8199 711.77 16.3839 712.006 17.3159V17.3159C712.242 18.2474 713.189 18.8114 714.12 18.5758V18.5758C715.052 18.3404 715.999 18.9055 716.236 19.8368V19.8368C716.472 20.768 717.419 21.3328 718.351 21.0968V21.0968C719.282 20.8606 720.23 21.4248 720.465 22.3568V22.3568C720.701 23.2885 721.648 23.8525 722.58 23.6167V23.6167C723.512 23.3809 724.46 23.9447 724.696 24.8766V24.8766C724.932 25.8083 725.879 26.3724 726.811 26.1367V26.1367C727.743 25.9009 728.69 26.4656 728.926 27.3977V27.3977C729.162 28.33 730.109 28.8945 731.041 28.6581V28.6581C731.973 28.4218 732.92 28.9856 733.156 29.9173V29.9173C733.392 30.849 734.339 31.4128 735.271 31.1766V31.1766C736.202 30.9405 737.149 31.5051 737.386 32.4367V32.4367C737.622 33.3686 738.569 33.9334 739.502 33.6977V33.6977C740.433 33.4621 741.38 34.0259 741.616 34.9574V34.9574C741.852 35.8894 742.799 36.4534 743.731 36.217V36.217C744.663 35.9806 745.611 36.5453 745.847 37.4775V37.4775C746.083 38.4094 747.029 38.9739 747.961 38.7377V38.7377C748.893 38.5016 749.84 39.0664 750.076 39.9978V39.9978C750.312 40.9295 751.259 41.4944 752.191 41.2582V41.2582C753.123 41.0221 754.069 41.5861 754.305 42.5179V42.5179C754.542 43.4495 755.488 44.0135 756.42 43.7779V43.7779C757.352 43.5421 758.3 44.1069 758.536 45.0389V45.0389C758.772 45.9705 759.719 46.5351 760.651 46.299V46.299C761.583 46.0628 762.529 46.6266 762.766 47.5583V47.5583C763.002 48.49 763.949 49.0538 764.88 48.8175V48.8175C765.813 48.5811 766.76 49.1455 766.996 50.0778V50.0778C767.232 51.01 768.179 51.5744 769.112 51.3385V51.3385C770.043 51.1026 770.991 51.6668 771.226 52.5987V52.5987C771.462 53.5306 772.41 54.0947 773.342 53.8589V53.8589C774.273 53.6231 775.221 54.1871 775.456 55.1188V55.1188C775.692 56.0508 776.639 56.615 777.571 56.3789V56.3789C778.502 56.1428 779.449 56.7075 779.685 57.6389V57.6389C779.922 58.5708 780.869 59.1358 781.801 58.9001V58.9001C782.733 58.6644 783.68 59.2283 783.916 60.1598V60.1598C784.152 61.0918 785.099 61.6557 786.031 61.4194V61.4194C786.963 61.183 787.91 61.7474 788.146 62.6797V62.6797C788.382 63.6118 789.329 64.1761 790.261 63.9397V63.9397C791.193 63.7034 792.14 64.2676 792.376 65.1996V65.1996C792.612 66.1312 793.559 66.6952 794.491 66.4594V66.4594C795.422 66.2235 796.37 66.7876 796.606 67.7195V67.7195C796.842 68.6514 797.789 69.2156 798.721 68.9798V68.9798C799.653 68.7438 800.601 69.3085 800.837 70.2406V70.2406C801.073 71.1722 802.02 71.7366 802.952 71.5005V71.5005C803.884 71.2643 804.831 71.8284 805.067 72.7601V72.7601C805.303 73.6917 806.249 74.2559 807.181 74.0202L809.605 73.4071C809.762 73.3675 809.927 73.3916 810.066 73.4741V73.4741C810.355 73.6459 810.728 73.5512 810.9 73.2626L813.841 68.3269" fill="#5C6B77"/>
<path d="M829.225 18.7081L706.613 -54.3415C702.034 -57.0704 696.885 -58.7952 691.56 -59.0459C685.823 -59.3163 679.189 -58.0858 675.614 -52.0845C669.833 -42.3818 658.647 -23.606 654.572 -16.767C653.724 -15.3435 654.194 -13.5081 655.617 -12.6601L658.465 -10.9639C659.888 -10.116 661.73 -10.5825 662.578 -12.0058L681.017 -42.9559C681.113 -43.1178 681.191 -43.2806 681.263 -43.4546C682.028 -45.3018 687.186 -56.3516 698.642 -49.5257C710.029 -42.7412 805.749 14.287 822.338 24.1707C823.728 24.9988 825.477 24.5475 826.351 23.1859L829.225 18.7081" fill="#8E9CA7"/>
<path d="M837.19 55.6724C851.076 32.3638 855.514 40.4156 861.902 45.1907C868.31 49.9789 856.681 58.0244 852.61 64.8584C848.548 71.6728 846.999 85.7503 839.749 82.3741C832.518 79.011 823.314 78.9606 837.19 55.6724ZM839.783 93.2359C851.029 109.299 855.105 107.468 858.291 104.262C861.475 101.058 855.206 97.3232 853.503 93.7596C851.8 90.192 858.25 91.4835 863.859 82.0717C869.467 72.6559 868.456 68.6608 872.762 61.4322C877.06 54.2207 887.332 69.3473 891.218 57.5557C894.385 47.9613 833.327 19.1234 827.808 16.2682C826.788 15.7401 819.985 19.1988 822.344 25.1319C824.037 29.3883 835.303 35.6474 834.244 39.2351C828.797 57.7125 810.107 79.3499 812.554 82.5493C816.14 87.2355 828.518 77.1635 839.783 93.2359" fill="#16B5F9"/>
<path d="M674.444 191.233C674.444 191.233 701.786 224.809 734.781 233.318C767.778 241.826 772.188 241.835 774.562 234.259C776.939 226.683 736.448 220.971 728.248 215.459C720.05 209.946 683.79 180.193 683.79 180.193L674.444 191.233Z" fill="#16B5F9"/>
<path d="M656.404 177.323C656.025 177.558 655.743 177.921 655.61 178.346V178.346C655.314 179.29 655.81 180.299 656.738 180.642L662.861 182.904C664.109 183.365 665.513 182.949 666.307 181.88L670.295 176.519C671.462 174.95 670.84 172.702 669.033 171.956L668.073 171.56C667.182 171.192 666.168 171.275 665.349 171.782L656.404 177.323Z" fill="#8E9CA7"/>
<path d="M674.759 191.44L671.133 193.938C668.593 195.689 665.168 193.656 665.488 190.588L665.954 186.105L663.529 183.874L672.904 171.556L684.105 180.4L674.759 191.44" fill="#1F80C6"/>
<path d="M686.71 151.596C686.71 151.596 728.328 139.645 760.276 151.502C792.222 163.359 795.846 165.869 793.47 173.445C791.094 181.021 754.592 162.589 744.714 162.433C734.836 162.277 688.078 165.997 688.078 165.997L686.71 151.596" fill="#16B5F9"/>
<path d="M664.124 152.705C663.947 152.296 663.923 151.837 664.057 151.412V151.412C664.352 150.469 665.336 149.923 666.294 150.171L672.611 151.811C673.9 152.145 674.814 153.289 674.856 154.619L675.068 161.298C675.13 163.252 673.336 164.743 671.426 164.323L670.413 164.1C669.471 163.894 668.686 163.247 668.303 162.362L664.124 152.705Z" fill="#8E9CA7"/>
<path d="M687.253 151.596L685.704 147.477C684.618 144.587 680.646 144.301 679.154 147.003L676.977 150.949L673.712 151.396L674.377 166.861L688.621 165.997L687.253 151.596Z" fill="#1F80C6"/>
<path d="M623.28 155.082L642.542 161.122L652.418 164.988C653.396 165.371 653.911 166.446 653.597 167.449L650.868 176.15C650.558 177.14 649.542 177.728 648.528 177.504L621.05 171.437C620.747 171.37 620.463 171.233 620.222 171.038L603.897 157.801C603.26 157.285 603.003 156.432 603.248 155.649L603.946 153.424C604.247 152.463 605.216 151.876 606.207 152.053L608.793 152.517C609.721 152.683 610.368 153.498 610.693 154.383C611.217 155.807 612.374 156.979 613.949 157.473C615.954 158.102 618.056 157.424 619.33 155.922C619.946 155.197 620.841 154.646 621.778 154.813L623.28 155.082" fill="#8E9CA7"/>
<path d="M624.204 152.14L643.466 158.18L653.78 160.645C654.802 160.889 655.839 160.301 656.153 159.298L658.881 150.598C659.191 149.608 658.693 148.545 657.734 148.15L631.711 137.44C631.423 137.321 631.112 137.272 630.803 137.295L609.843 138.839C609.025 138.899 608.327 139.453 608.082 140.235L607.384 142.461C607.083 143.422 607.543 144.457 608.458 144.877L610.845 145.973C611.702 146.366 612.697 146.068 613.47 145.527C614.714 144.656 616.333 144.355 617.909 144.849C619.913 145.479 621.251 147.234 621.44 149.193C621.532 150.141 621.952 151.105 622.816 151.502L624.204 152.14" fill="#8E9CA7"/>
<path d="M659.43 148.848C667.428 151.355 671.877 159.872 669.369 167.869C666.863 175.867 658.345 180.318 650.347 177.809C642.349 175.302 637.899 166.784 640.407 158.787C642.916 150.79 651.432 146.339 659.43 148.848" fill="#8E9CA7"/>
<path d="M657.551 154.834C662.243 156.306 664.855 161.3 663.383 165.993C661.912 170.684 656.917 173.294 652.225 171.822C647.534 170.352 644.924 165.356 646.394 160.665C647.865 155.973 652.86 153.364 657.551 154.834Z" fill="#70808D"/>
<path d="M9.97061 86.8811C7.77026 83.2182 8.98581 78.4625 12.675 76.3062L122.189 12.29L128.505 22.8003L20.5786 89.4571C16.9431 91.7022 12.1728 90.5436 9.97061 86.8811" fill="#16B5F9"/>
<path d="M138.881 32.323L134.828 25.5784L146.872 18.3403L150.925 25.0849L138.881 32.323Z" fill="#768895"/>
<path d="M129.249 24.1466L121.314 10.9424C119.993 8.74411 120.705 5.88883 122.904 4.56681L133.739 -1.94502C135.94 -3.26638 138.794 -2.55456 140.115 -0.355916L148.051 12.8475C149.373 15.0473 148.661 17.9021 146.461 19.2239L135.626 25.7353C133.426 27.0577 130.572 26.3459 129.249 24.1466Z" fill="#8E9CA7"/>
<path d="M130.612 -7.67298L119.314 -0.883613L116.854 -14.8371C116.596 -16.2978 118.276 -17.3087 119.446 -16.3949L130.612 -7.67298Z" fill="#8E9CA7"/>
<path d="M142.277 42.3854L137.36 34.2025C136.74 33.1729 137.073 31.8371 138.103 31.2178L150.14 23.9848C151.169 23.3664 152.506 23.699 153.125 24.7295L158.042 32.9124C158.66 33.9413 158.328 35.2778 157.299 35.8961L145.262 43.13C144.232 43.7484 142.896 43.4158 142.277 42.3854" fill="#8E9CA7"/>
<path d="M123.68 4.10048L120.321 -1.48874L129.78 -7.17342L133.139 -1.58419L123.68 4.10048Z" fill="#768895"/>
<path d="M544.096 46.6656L544.941 42.5269L545.784 38.3872L536.065 33.9437L525.823 35.0908L447.921 19.2162L447.227 22.6158L446.535 26.0147L524.439 41.8902L533.416 46.9532L544.096 46.6656" fill="#8E9CA7"/>
<path fill-rule="evenodd" clip-rule="evenodd" d="M375.982 -6.27451C368.363 -7.82745 360.925 -2.90925 359.374 4.71098C357.821 12.3303 362.739 19.7679 370.358 21.3208L425.534 32.5634L425.531 32.5744L425.559 32.5685L425.588 32.5745L425.59 32.5618L438.795 29.7348L440.523 21.2604L442.25 12.7834L431.204 5.01543L431.211 4.98069L375.982 -6.27451Z" fill="#16B5F9"/>
<path fill-rule="evenodd" clip-rule="evenodd" d="M450.411 13.6617L446.662 32.0612C446.297 33.8462 444.141 34.5721 442.771 33.3714L438.523 29.6476L441.978 12.6963L447.343 10.9319C449.074 10.3624 450.775 11.8759 450.411 13.6617ZM380.753 -1.75987C379.399 -2.03411 378.079 -1.16029 377.803 0.192861C377.526 1.54754 378.401 2.86656 379.754 3.14233L421.369 11.6231C422.722 11.9004 424.043 11.0251 424.319 9.67196C424.595 8.3188 423.72 6.99582 422.367 6.72005L380.753 -1.75987ZM376.184 8.13751C376.46 6.78436 377.781 5.90905 379.135 6.18722L420.747 14.6662C422.1 14.942 422.976 16.2634 422.7 17.6166C422.423 18.9713 421.104 19.8436 419.75 19.5693L378.134 11.0885C376.781 10.8128 375.907 9.49219 376.184 8.13751ZM377.514 14.131C376.161 13.8552 374.841 14.729 374.564 16.0836C374.288 17.4368 375.162 18.7573 376.517 19.034L418.129 27.513C419.484 27.7897 420.804 26.9159 421.081 25.5613C421.357 24.2081 420.481 22.8867 419.128 22.6109L377.514 14.131Z" fill="#1F80C6"/>
<g clip-path="url(#clip1)">
<path d="M402.372 122.355V127.811H406.166V132.158H402.372V143.232C402.372 144.053 402.529 144.641 402.844 144.996C403.158 145.352 403.76 145.529 404.648 145.529C405.305 145.529 405.886 145.481 406.392 145.386V149.877C405.229 150.232 404.033 150.41 402.803 150.41C398.646 150.41 396.527 148.312 396.445 144.114V132.158H393.205V127.811H396.445V122.355H402.372ZM407.93 138.7C407.93 136.499 408.354 134.537 409.201 132.814C410.049 131.092 411.266 129.759 412.852 128.815C414.451 127.872 416.304 127.4 418.409 127.4C421.403 127.4 423.844 128.316 425.73 130.148C427.631 131.98 428.69 134.469 428.909 137.613L428.95 139.131C428.95 142.535 428 145.27 426.1 147.334C424.199 149.385 421.649 150.41 418.45 150.41C415.251 150.41 412.694 149.385 410.78 147.334C408.88 145.283 407.93 142.494 407.93 138.967V138.7ZM413.856 139.131C413.856 141.236 414.253 142.85 415.046 143.971C415.839 145.078 416.974 145.632 418.45 145.632C419.886 145.632 421.007 145.085 421.813 143.991C422.62 142.884 423.023 141.12 423.023 138.7C423.023 136.636 422.62 135.036 421.813 133.901C421.007 132.767 419.872 132.199 418.409 132.199C416.96 132.199 415.839 132.767 415.046 133.901C414.253 135.022 413.856 136.766 413.856 139.131ZM431.678 138.7C431.678 136.499 432.102 134.537 432.949 132.814C433.797 131.092 435.014 129.759 436.6 128.815C438.199 127.872 440.052 127.4 442.157 127.4C445.151 127.4 447.592 128.316 449.479 130.148C451.379 131.98 452.438 134.469 452.657 137.613L452.698 139.131C452.698 142.535 451.748 145.27 449.848 147.334C447.947 149.385 445.397 150.41 442.198 150.41C438.999 150.41 436.442 149.385 434.528 147.334C432.628 145.283 431.678 142.494 431.678 138.967V138.7ZM437.604 139.131C437.604 141.236 438.001 142.85 438.794 143.971C439.587 145.078 440.722 145.632 442.198 145.632C443.634 145.632 444.755 145.085 445.562 143.991C446.368 142.884 446.771 141.12 446.771 138.7C446.771 136.636 446.368 135.036 445.562 133.901C444.755 132.767 443.62 132.199 442.157 132.199C440.708 132.199 439.587 132.767 438.794 133.901C438.001 135.022 437.604 136.766 437.604 139.131ZM462.604 150H456.656V118.5H462.604V150ZM487.5 139.11C487.5 142.665 486.741 145.44 485.224 147.437C483.706 149.419 481.587 150.41 478.866 150.41C476.46 150.41 474.539 149.487 473.104 147.642L472.837 150H467.505V118.5H473.432V129.8C474.799 128.2 476.597 127.4 478.825 127.4C481.532 127.4 483.651 128.398 485.183 130.395C486.728 132.377 487.5 135.173 487.5 138.782V139.11ZM481.573 138.68C481.573 136.438 481.218 134.804 480.507 133.778C479.796 132.739 478.736 132.22 477.328 132.22C475.441 132.22 474.143 132.992 473.432 134.537V143.294C474.156 144.853 475.469 145.632 477.369 145.632C479.283 145.632 480.541 144.688 481.143 142.802C481.43 141.899 481.573 140.525 481.573 138.68ZM501.384 150.41C498.13 150.41 495.478 149.412 493.427 147.416C491.39 145.42 490.371 142.761 490.371 139.438V138.864C490.371 136.636 490.802 134.646 491.663 132.896C492.524 131.133 493.741 129.779 495.313 128.836C496.899 127.879 498.704 127.4 500.728 127.4C503.763 127.4 506.148 128.357 507.885 130.271C509.635 132.186 510.51 134.899 510.51 138.413V140.833H496.38C496.571 142.282 497.146 143.444 498.103 144.319C499.073 145.194 500.297 145.632 501.773 145.632C504.057 145.632 505.841 144.805 507.126 143.15L510.038 146.411C509.149 147.669 507.946 148.653 506.429 149.364C504.911 150.062 503.229 150.41 501.384 150.41ZM500.707 132.199C499.531 132.199 498.574 132.596 497.836 133.389C497.111 134.182 496.646 135.316 496.441 136.793H504.686V136.321C504.658 135.009 504.303 133.997 503.619 133.286C502.936 132.562 501.965 132.199 500.707 132.199ZM520.148 150H514.201V118.5H520.148V150ZM532.146 122.355V127.811H535.939V132.158H532.146V143.232C532.146 144.053 532.303 144.641 532.617 144.996C532.932 145.352 533.533 145.529 534.422 145.529C535.078 145.529 535.659 145.481 536.165 145.386V149.877C535.003 150.232 533.807 150.41 532.576 150.41C528.42 150.41 526.301 148.312 526.219 144.114V132.158H522.979V127.811H526.219V122.355H532.146Z" fill="white"/>
<rect x="309" y="86" width="72" height="72" rx="2" fill="#16B5F9"/>
<path d="M350.76 122.28V127.6H342.4V150H336.16V127.6H327.8V122.28H350.76ZM362.33 145.24C363.21 145.24 363.93 145.173 364.49 145.04C365.077 144.88 365.544 144.68 365.89 144.44C366.237 144.173 366.477 143.867 366.61 143.52C366.744 143.173 366.81 142.787 366.81 142.36C366.81 141.453 366.384 140.707 365.53 140.12C364.677 139.507 363.21 138.853 361.13 138.16C360.224 137.84 359.317 137.48 358.41 137.08C357.504 136.653 356.69 136.133 355.97 135.52C355.25 134.88 354.664 134.12 354.21 133.24C353.757 132.333 353.53 131.24 353.53 129.96C353.53 128.68 353.77 127.533 354.25 126.52C354.73 125.48 355.41 124.6 356.29 123.88C357.17 123.16 358.237 122.613 359.49 122.24C360.744 121.84 362.157 121.64 363.73 121.64C365.597 121.64 367.21 121.84 368.57 122.24C369.93 122.64 371.05 123.08 371.93 123.56L370.13 128.48C369.357 128.08 368.49 127.733 367.53 127.44C366.597 127.12 365.464 126.96 364.13 126.96C362.637 126.96 361.557 127.173 360.89 127.6C360.25 128 359.93 128.627 359.93 129.48C359.93 129.987 360.05 130.413 360.29 130.76C360.53 131.107 360.864 131.427 361.29 131.72C361.744 131.987 362.25 132.24 362.81 132.48C363.397 132.693 364.037 132.92 364.73 133.16C366.17 133.693 367.424 134.227 368.49 134.76C369.557 135.267 370.437 135.867 371.13 136.56C371.85 137.253 372.384 138.067 372.73 139C373.077 139.933 373.25 141.067 373.25 142.4C373.25 144.987 372.344 147 370.53 148.44C368.717 149.853 365.984 150.56 362.33 150.56C361.104 150.56 359.997 150.48 359.01 150.32C358.024 150.187 357.144 150.013 356.37 149.8C355.624 149.587 354.97 149.36 354.41 149.12C353.877 148.88 353.424 148.653 353.05 148.44L354.81 143.48C355.637 143.933 356.65 144.347 357.85 144.72C359.077 145.067 360.57 145.24 362.33 145.24Z" fill="#0C1117"/>
</g>
</g>
<defs>
<clipPath id="clip0">
<rect width="850" height="220" rx="6" fill="white"/>
</clipPath>
<clipPath id="clip1">
<rect width="241" height="91" fill="white" transform="translate(307 84)"/>
</clipPath>
</defs>
</svg>
