<svg width="130" height="25" viewBox="0 0 130 25" fill="none" xmlns="http://www.w3.org/2000/svg">
<rect width="130" height="25" rx="2" fill="#A77355"/>
<path d="M15.4648 17V8.46875H18.5293C19.627 8.46875 20.4609 8.66992 21.0312 9.07227C21.6055 9.47461 21.8926 10.0586 21.8926 10.8242C21.8926 11.2656 21.791 11.6426 21.5879 11.9551C21.3848 12.2676 21.0859 12.498 20.6914 12.6465C21.1367 12.7637 21.4785 12.9824 21.7168 13.3027C21.9551 13.623 22.0742 14.0137 22.0742 14.4746C22.0742 15.3105 21.8086 15.9395 21.2773 16.3613C20.75 16.7793 19.9668 16.9922 18.9277 17H15.4648ZM17.5215 13.373V15.418H18.8691C19.2402 15.418 19.5254 15.334 19.7246 15.166C19.9238 14.9941 20.0234 14.7539 20.0234 14.4453C20.0234 13.7344 19.6699 13.377 18.9629 13.373H17.5215ZM17.5215 12.0254H18.5938C19.043 12.0215 19.3633 11.9395 19.5547 11.7793C19.7461 11.6191 19.8418 11.3828 19.8418 11.0703C19.8418 10.7109 19.7383 10.4531 19.5312 10.2969C19.3242 10.1367 18.9902 10.0566 18.5293 10.0566H17.5215V12.0254ZM29.9023 8.46875V14.0527C29.9023 14.6855 29.7676 15.2344 29.498 15.6992C29.2285 16.1602 28.8418 16.5117 28.3379 16.7539C27.834 16.9961 27.2383 17.1172 26.5508 17.1172C25.5117 17.1172 24.6934 16.8477 24.0957 16.3086C23.498 15.7695 23.1934 15.0312 23.1816 14.0938V8.46875H25.25V14.1348C25.2734 15.0684 25.707 15.5352 26.5508 15.5352C26.9766 15.5352 27.2988 15.418 27.5176 15.1836C27.7363 14.9492 27.8457 14.5684 27.8457 14.041V8.46875H29.9023ZM34.3145 12.1719L35.8848 8.46875H38.1055L35.3574 13.9355V17H33.2715V13.9355L30.5293 8.46875H32.7383L34.3145 12.1719ZM44.416 8.46875L46.3203 14.4043L48.2188 8.46875H50.9258V17H48.8633V15.0078L49.0625 10.9297L47 17H45.6406L43.5723 10.9238L43.7715 15.0078V17H41.7148V8.46875H44.416ZM57.5293 13.3848H54.2949V15.418H58.1152V17H52.2383V8.46875H58.127V10.0566H54.2949V11.8555H57.5293V13.3848ZM66.7871 15.4062H63.9688L63.4766 17H61.2793L64.4082 8.46875H66.3418L69.4941 17H67.2852L66.7871 15.4062ZM64.4609 13.8184H66.2949L65.375 10.8594L64.4609 13.8184ZM80.0117 14.1113C79.9844 14.7051 79.8242 15.2305 79.5312 15.6875C79.2383 16.1406 78.8262 16.4922 78.2949 16.7422C77.7676 16.9922 77.1641 17.1172 76.4844 17.1172C75.3633 17.1172 74.4805 16.752 73.8359 16.0215C73.1914 15.291 72.8691 14.2598 72.8691 12.9277V12.5059C72.8691 11.6699 73.0137 10.9395 73.3027 10.3145C73.5957 9.68555 74.0156 9.20117 74.5625 8.86133C75.1094 8.51758 75.7422 8.3457 76.4609 8.3457C77.4961 8.3457 78.3281 8.61914 78.957 9.16602C79.5859 9.70898 79.9434 10.459 80.0293 11.416H77.9785C77.9629 10.8965 77.832 10.5234 77.5859 10.2969C77.3398 10.0703 76.9648 9.95703 76.4609 9.95703C75.9492 9.95703 75.5742 10.1484 75.3359 10.5312C75.0977 10.9141 74.9727 11.5254 74.9609 12.3652V12.9688C74.9609 13.8789 75.0742 14.5293 75.3008 14.9199C75.5312 15.3105 75.9258 15.5059 76.4844 15.5059C76.957 15.5059 77.3184 15.3945 77.5684 15.1719C77.8184 14.9492 77.9512 14.5957 77.9668 14.1113H80.0117ZM88.209 12.9102C88.209 13.7422 88.0547 14.4785 87.7461 15.1191C87.4375 15.7598 86.998 16.2539 86.4277 16.6016C85.8613 16.9453 85.2148 17.1172 84.4883 17.1172C83.7617 17.1172 83.1172 16.9512 82.5547 16.6191C81.9922 16.2832 81.5527 15.8047 81.2363 15.1836C80.9238 14.5625 80.7598 13.8496 80.7441 13.0449V12.5645C80.7441 11.7285 80.8965 10.9922 81.2012 10.3555C81.5098 9.71484 81.9492 9.2207 82.5195 8.87305C83.0938 8.52539 83.7461 8.35156 84.4766 8.35156C85.1992 8.35156 85.8438 8.52344 86.4102 8.86719C86.9766 9.21094 87.416 9.70117 87.7285 10.3379C88.0449 10.9707 88.2051 11.6973 88.209 12.5176V12.9102ZM86.1172 12.5527C86.1172 11.7051 85.9746 11.0625 85.6895 10.625C85.4082 10.1836 85.0039 9.96289 84.4766 9.96289C83.4453 9.96289 82.9004 10.7363 82.8418 12.2832L82.8359 12.9102C82.8359 13.7461 82.9746 14.3887 83.252 14.8379C83.5293 15.2871 83.9414 15.5117 84.4883 15.5117C85.0078 15.5117 85.4082 15.291 85.6895 14.8496C85.9707 14.4082 86.1133 13.7734 86.1172 12.9453V12.5527ZM94.6426 13.6016H91.3262V17H89.2695V8.46875H94.9766V10.0566H91.3262V12.0195H94.6426V13.6016ZM101.205 13.6016H97.8887V17H95.832V8.46875H101.539V10.0566H97.8887V12.0195H101.205V13.6016ZM107.686 13.3848H104.451V15.418H108.271V17H102.395V8.46875H108.283V10.0566H104.451V11.8555H107.686V13.3848ZM114.4 13.3848H111.166V15.418H114.986V17H109.109V8.46875H114.998V10.0566H111.166V11.8555H114.4V13.3848Z" fill="white"/>
</svg>
