<svg width="130" height="20" viewBox="0 0 130 20" fill="none" xmlns="http://www.w3.org/2000/svg">
<rect width="130" height="20" rx="2" fill="#FF7E48"/>
<path d="M19.5928 14V6.17969H22.4019C23.408 6.17969 24.1725 6.3641 24.6953 6.73291C25.2217 7.10173 25.4849 7.63704 25.4849 8.33887C25.4849 8.74349 25.3918 9.08903 25.2056 9.37549C25.0194 9.66195 24.7454 9.87321 24.3838 10.0093C24.792 10.1167 25.1053 10.3172 25.3237 10.6108C25.5422 10.9045 25.6514 11.2625 25.6514 11.6851C25.6514 12.4513 25.4079 13.0278 24.9209 13.4146C24.4375 13.7977 23.7196 13.9928 22.7671 14H19.5928ZM21.478 10.6753V12.5498H22.7134C23.0535 12.5498 23.3149 12.4728 23.4976 12.3188C23.6802 12.1613 23.7715 11.9411 23.7715 11.6582C23.7715 11.0065 23.4474 10.6789 22.7993 10.6753H21.478ZM21.478 9.43994H22.4609C22.8727 9.43636 23.1663 9.36117 23.3418 9.21436C23.5173 9.06755 23.605 8.85091 23.605 8.56445C23.605 8.23503 23.5101 7.9987 23.3203 7.85547C23.1305 7.70866 22.8244 7.63525 22.4019 7.63525H21.478V9.43994ZM32.8271 6.17969V11.2983C32.8271 11.8784 32.7036 12.3815 32.4565 12.8076C32.2095 13.2301 31.855 13.5524 31.3931 13.7744C30.9312 13.9964 30.3851 14.1074 29.7549 14.1074C28.8024 14.1074 28.0522 13.8604 27.5044 13.3662C26.9565 12.8721 26.6772 12.1953 26.6665 11.3359V6.17969H28.5625V11.3735C28.584 12.2293 28.9814 12.6572 29.7549 12.6572C30.1452 12.6572 30.4406 12.5498 30.6411 12.335C30.8416 12.1201 30.9419 11.771 30.9419 11.2876V6.17969H32.8271ZM36.8716 9.57422L38.311 6.17969H40.3467L37.8276 11.1909V14H35.9155V11.1909L33.4019 6.17969H35.4268L36.8716 9.57422ZM46.1313 6.17969L47.877 11.6206L49.6172 6.17969H52.0986V14H50.208V12.1738L50.3906 8.43555L48.5 14H47.2539L45.3579 8.43018L45.5405 12.1738V14H43.6553V6.17969H46.1313ZM58.1519 10.686H55.187V12.5498H58.689V14H53.3018V6.17969H58.6997V7.63525H55.187V9.28418H58.1519V10.686ZM66.6382 12.5391H64.0547L63.6035 14H61.5894L64.4575 6.17969H66.23L69.1196 14H67.0947L66.6382 12.5391ZM64.5059 11.0835H66.187L65.3438 8.37109L64.5059 11.0835ZM78.7607 11.3521C78.7357 11.8963 78.5889 12.3779 78.3203 12.7969C78.0518 13.2122 77.674 13.5345 77.187 13.7637C76.7036 13.9928 76.1504 14.1074 75.5273 14.1074C74.4997 14.1074 73.6904 13.7726 73.0996 13.103C72.5088 12.4334 72.2134 11.4881 72.2134 10.2671V9.88037C72.2134 9.1141 72.3459 8.4445 72.6108 7.87158C72.8794 7.29508 73.2643 6.85107 73.7656 6.53955C74.2669 6.22445 74.847 6.06689 75.5059 6.06689C76.4548 6.06689 77.2174 6.31755 77.7939 6.81885C78.3704 7.31657 78.6981 8.00407 78.7769 8.88135H76.897C76.8826 8.40511 76.7627 8.06315 76.5371 7.85547C76.3115 7.64779 75.9678 7.54395 75.5059 7.54395C75.0368 7.54395 74.693 7.7194 74.4746 8.07031C74.2562 8.42122 74.1416 8.98161 74.1309 9.75146V10.3047C74.1309 11.139 74.2347 11.7352 74.4424 12.0933C74.6536 12.4513 75.0153 12.6304 75.5273 12.6304C75.9606 12.6304 76.2918 12.5283 76.521 12.3242C76.7502 12.1201 76.8719 11.7961 76.8862 11.3521H78.7607ZM86.2749 10.251C86.2749 11.0137 86.1335 11.6886 85.8506 12.2759C85.5677 12.8631 85.1649 13.3161 84.6421 13.6348C84.1229 13.9499 83.5303 14.1074 82.8643 14.1074C82.1982 14.1074 81.6074 13.9552 81.0918 13.6509C80.5762 13.3429 80.1733 12.9043 79.8833 12.335C79.5968 11.7656 79.4465 11.1121 79.4321 10.3745V9.93408C79.4321 9.16781 79.5718 8.49284 79.8511 7.90918C80.134 7.32194 80.5368 6.86898 81.0596 6.55029C81.5859 6.23161 82.1839 6.07227 82.8535 6.07227C83.516 6.07227 84.1068 6.22982 84.626 6.54492C85.1452 6.86003 85.548 7.30941 85.8345 7.89307C86.1245 8.47314 86.2713 9.13916 86.2749 9.89111V10.251ZM84.3574 9.92334C84.3574 9.14632 84.2267 8.55729 83.9653 8.15625C83.7075 7.75163 83.3369 7.54932 82.8535 7.54932C81.9082 7.54932 81.4087 8.2583 81.355 9.67627L81.3496 10.251C81.3496 11.0173 81.4767 11.6063 81.731 12.0181C81.9852 12.4299 82.363 12.6357 82.8643 12.6357C83.3405 12.6357 83.7075 12.4334 83.9653 12.0288C84.2231 11.6242 84.3538 11.0423 84.3574 10.2832V9.92334ZM92.1724 10.8848H89.1323V14H87.2471V6.17969H92.4785V7.63525H89.1323V9.43457H92.1724V10.8848ZM98.188 10.8848H95.1479V14H93.2627V6.17969H98.4941V7.63525H95.1479V9.43457H98.188V10.8848ZM104.128 10.686H101.164V12.5498H104.666V14H99.2783V6.17969H104.676V7.63525H101.164V9.28418H104.128V10.686ZM110.284 10.686H107.319V12.5498H110.821V14H105.434V6.17969H110.832V7.63525H107.319V9.28418H110.284V10.686Z" fill="white"/>
</svg>
