<svg width="130" height="20" viewBox="0 0 130 20" fill="none" xmlns="http://www.w3.org/2000/svg">
<rect width="130" height="20" rx="2" fill="#FF7E48"/>
<path d="M15.4648 14V5.46875H18.5293C19.627 5.46875 20.4609 5.66992 21.0312 6.07227C21.6055 6.47461 21.8926 7.05859 21.8926 7.82422C21.8926 8.26562 21.791 8.64258 21.5879 8.95508C21.3848 9.26758 21.0859 9.49805 20.6914 9.64648C21.1367 9.76367 21.4785 9.98242 21.7168 10.3027C21.9551 10.623 22.0742 11.0137 22.0742 11.4746C22.0742 12.3105 21.8086 12.9395 21.2773 13.3613C20.75 13.7793 19.9668 13.9922 18.9277 14H15.4648ZM17.5215 10.373V12.418H18.8691C19.2402 12.418 19.5254 12.334 19.7246 12.166C19.9238 11.9941 20.0234 11.7539 20.0234 11.4453C20.0234 10.7344 19.6699 10.377 18.9629 10.373H17.5215ZM17.5215 9.02539H18.5938C19.043 9.02148 19.3633 8.93945 19.5547 8.7793C19.7461 8.61914 19.8418 8.38281 19.8418 8.07031C19.8418 7.71094 19.7383 7.45312 19.5312 7.29688C19.3242 7.13672 18.9902 7.05664 18.5293 7.05664H17.5215V9.02539ZM29.9023 5.46875V11.0527C29.9023 11.6855 29.7676 12.2344 29.498 12.6992C29.2285 13.1602 28.8418 13.5117 28.3379 13.7539C27.834 13.9961 27.2383 14.1172 26.5508 14.1172C25.5117 14.1172 24.6934 13.8477 24.0957 13.3086C23.498 12.7695 23.1934 12.0312 23.1816 11.0938V5.46875H25.25V11.1348C25.2734 12.0684 25.707 12.5352 26.5508 12.5352C26.9766 12.5352 27.2988 12.418 27.5176 12.1836C27.7363 11.9492 27.8457 11.5684 27.8457 11.041V5.46875H29.9023ZM34.3145 9.17188L35.8848 5.46875H38.1055L35.3574 10.9355V14H33.2715V10.9355L30.5293 5.46875H32.7383L34.3145 9.17188ZM44.416 5.46875L46.3203 11.4043L48.2188 5.46875H50.9258V14H48.8633V12.0078L49.0625 7.92969L47 14H45.6406L43.5723 7.92383L43.7715 12.0078V14H41.7148V5.46875H44.416ZM57.5293 10.3848H54.2949V12.418H58.1152V14H52.2383V5.46875H58.127V7.05664H54.2949V8.85547H57.5293V10.3848ZM66.7871 12.4062H63.9688L63.4766 14H61.2793L64.4082 5.46875H66.3418L69.4941 14H67.2852L66.7871 12.4062ZM64.4609 10.8184H66.2949L65.375 7.85938L64.4609 10.8184ZM80.0117 11.1113C79.9844 11.7051 79.8242 12.2305 79.5312 12.6875C79.2383 13.1406 78.8262 13.4922 78.2949 13.7422C77.7676 13.9922 77.1641 14.1172 76.4844 14.1172C75.3633 14.1172 74.4805 13.752 73.8359 13.0215C73.1914 12.291 72.8691 11.2598 72.8691 9.92773V9.50586C72.8691 8.66992 73.0137 7.93945 73.3027 7.31445C73.5957 6.68555 74.0156 6.20117 74.5625 5.86133C75.1094 5.51758 75.7422 5.3457 76.4609 5.3457C77.4961 5.3457 78.3281 5.61914 78.957 6.16602C79.5859 6.70898 79.9434 7.45898 80.0293 8.41602H77.9785C77.9629 7.89648 77.832 7.52344 77.5859 7.29688C77.3398 7.07031 76.9648 6.95703 76.4609 6.95703C75.9492 6.95703 75.5742 7.14844 75.3359 7.53125C75.0977 7.91406 74.9727 8.52539 74.9609 9.36523V9.96875C74.9609 10.8789 75.0742 11.5293 75.3008 11.9199C75.5312 12.3105 75.9258 12.5059 76.4844 12.5059C76.957 12.5059 77.3184 12.3945 77.5684 12.1719C77.8184 11.9492 77.9512 11.5957 77.9668 11.1113H80.0117ZM88.209 9.91016C88.209 10.7422 88.0547 11.4785 87.7461 12.1191C87.4375 12.7598 86.998 13.2539 86.4277 13.6016C85.8613 13.9453 85.2148 14.1172 84.4883 14.1172C83.7617 14.1172 83.1172 13.9512 82.5547 13.6191C81.9922 13.2832 81.5527 12.8047 81.2363 12.1836C80.9238 11.5625 80.7598 10.8496 80.7441 10.0449V9.56445C80.7441 8.72852 80.8965 7.99219 81.2012 7.35547C81.5098 6.71484 81.9492 6.2207 82.5195 5.87305C83.0938 5.52539 83.7461 5.35156 84.4766 5.35156C85.1992 5.35156 85.8438 5.52344 86.4102 5.86719C86.9766 6.21094 87.416 6.70117 87.7285 7.33789C88.0449 7.9707 88.2051 8.69727 88.209 9.51758V9.91016ZM86.1172 9.55273C86.1172 8.70508 85.9746 8.0625 85.6895 7.625C85.4082 7.18359 85.0039 6.96289 84.4766 6.96289C83.4453 6.96289 82.9004 7.73633 82.8418 9.2832L82.8359 9.91016C82.8359 10.7461 82.9746 11.3887 83.252 11.8379C83.5293 12.2871 83.9414 12.5117 84.4883 12.5117C85.0078 12.5117 85.4082 12.291 85.6895 11.8496C85.9707 11.4082 86.1133 10.7734 86.1172 9.94531V9.55273ZM94.6426 10.6016H91.3262V14H89.2695V5.46875H94.9766V7.05664H91.3262V9.01953H94.6426V10.6016ZM101.205 10.6016H97.8887V14H95.832V5.46875H101.539V7.05664H97.8887V9.01953H101.205V10.6016ZM107.686 10.3848H104.451V12.418H108.271V14H102.395V5.46875H108.283V7.05664H104.451V8.85547H107.686V10.3848ZM114.4 10.3848H111.166V12.418H114.986V14H109.109V5.46875H114.998V7.05664H111.166V8.85547H114.4V10.3848Z" fill="white"/>
</svg>
