<svg width="130" height="20" viewBox="0 0 130 20" fill="none" xmlns="http://www.w3.org/2000/svg">
<rect width="130" height="20" rx="2" fill="#49CDAE"/>
<path d="M36.3398 10.8848H33.2998V14H31.4146V6.17969H36.646V7.63525H33.2998V9.43457H36.3398V10.8848ZM43.564 6.17969V11.2983C43.564 11.8784 43.4404 12.3815 43.1934 12.8076C42.9463 13.2301 42.5918 13.5524 42.1299 13.7744C41.668 13.9964 41.1219 14.1074 40.4917 14.1074C39.5392 14.1074 38.7891 13.8604 38.2412 13.3662C37.6934 12.8721 37.4141 12.1953 37.4033 11.3359V6.17969H39.2993V11.3735C39.3208 12.2293 39.7183 12.6572 40.4917 12.6572C40.882 12.6572 41.1774 12.5498 41.3779 12.335C41.5785 12.1201 41.6787 11.771 41.6787 11.2876V6.17969H43.564ZM51.2769 14H49.4023L46.6309 9.13379V14H44.7456V6.17969H46.6309L49.397 11.0459V6.17969H51.2769V14ZM52.4692 14V6.17969H54.9883C55.6794 6.17969 56.3006 6.33724 56.8521 6.65234C57.4035 6.96387 57.8332 7.40609 58.1411 7.979C58.4526 8.54834 58.6102 9.1875 58.6138 9.89648V10.2563C58.6138 10.9725 58.4616 11.6152 58.1572 12.1846C57.8564 12.7503 57.4303 13.1943 56.8789 13.5166C56.3311 13.8353 55.7188 13.9964 55.042 14H52.4692ZM54.3545 7.63525V12.5498H55.0098C55.5505 12.5498 55.9658 12.3582 56.2559 11.9751C56.5459 11.5884 56.6909 11.0155 56.6909 10.2563V9.91797C56.6909 9.16243 56.5459 8.5931 56.2559 8.20996C55.9658 7.82682 55.5433 7.63525 54.9883 7.63525H54.3545ZM64.3286 14H62.4487V6.17969H64.3286V14ZM69.6729 11.9214C69.6729 11.6457 69.5744 11.4308 69.3774 11.2769C69.1841 11.1229 68.8421 10.9635 68.3516 10.7988C67.861 10.6341 67.46 10.4748 67.1484 10.3208C66.1351 9.82308 65.6284 9.13916 65.6284 8.26904C65.6284 7.83577 65.7537 7.45443 66.0044 7.125C66.2586 6.79199 66.6167 6.53418 67.0786 6.35156C67.5405 6.16536 68.0597 6.07227 68.6362 6.07227C69.1984 6.07227 69.7015 6.17253 70.1455 6.37305C70.5931 6.57357 70.9404 6.86003 71.1875 7.23242C71.4346 7.60124 71.5581 8.02376 71.5581 8.5H69.6782C69.6782 8.18132 69.5798 7.93424 69.3828 7.75879C69.1895 7.58333 68.9263 7.49561 68.5933 7.49561C68.2567 7.49561 67.9899 7.5708 67.793 7.72119C67.5996 7.868 67.5029 8.05599 67.5029 8.28516C67.5029 8.48568 67.6104 8.66829 67.8252 8.83301C68.04 8.99414 68.4178 9.16243 68.9585 9.33789C69.4992 9.50977 69.9432 9.69596 70.2905 9.89648C71.1356 10.3835 71.5581 11.0549 71.5581 11.9106C71.5581 12.5946 71.3003 13.1317 70.7847 13.522C70.269 13.9123 69.5618 14.1074 68.6631 14.1074C68.0293 14.1074 67.4546 13.9946 66.939 13.769C66.4269 13.5399 66.0402 13.2284 65.7788 12.8345C65.521 12.437 65.3921 11.9805 65.3921 11.4648H67.2827C67.2827 11.8838 67.3901 12.1935 67.605 12.394C67.8234 12.591 68.1761 12.6895 68.6631 12.6895C68.9746 12.6895 69.2199 12.6232 69.3989 12.4907C69.5815 12.3547 69.6729 12.1649 69.6729 11.9214ZM76.5586 11.9214C76.5586 11.6457 76.4601 11.4308 76.2632 11.2769C76.0698 11.1229 75.7279 10.9635 75.2373 10.7988C74.7467 10.6341 74.3457 10.4748 74.0342 10.3208C73.0208 9.82308 72.5142 9.13916 72.5142 8.26904C72.5142 7.83577 72.6395 7.45443 72.8901 7.125C73.1444 6.79199 73.5024 6.53418 73.9644 6.35156C74.4263 6.16536 74.9455 6.07227 75.522 6.07227C76.0841 6.07227 76.5872 6.17253 77.0312 6.37305C77.4788 6.57357 77.8262 6.86003 78.0732 7.23242C78.3203 7.60124 78.4438 8.02376 78.4438 8.5H76.564C76.564 8.18132 76.4655 7.93424 76.2686 7.75879C76.0752 7.58333 75.812 7.49561 75.479 7.49561C75.1424 7.49561 74.8757 7.5708 74.6787 7.72119C74.4854 7.868 74.3887 8.05599 74.3887 8.28516C74.3887 8.48568 74.4961 8.66829 74.7109 8.83301C74.9258 8.99414 75.3035 9.16243 75.8442 9.33789C76.3849 9.50977 76.8289 9.69596 77.1763 9.89648C78.0213 10.3835 78.4438 11.0549 78.4438 11.9106C78.4438 12.5946 78.186 13.1317 77.6704 13.522C77.1548 13.9123 76.4476 14.1074 75.5488 14.1074C74.915 14.1074 74.3403 13.9946 73.8247 13.769C73.3127 13.5399 72.9259 13.2284 72.6646 12.8345C72.4067 12.437 72.2778 11.9805 72.2778 11.4648H74.1685C74.1685 11.8838 74.2759 12.1935 74.4907 12.394C74.7091 12.591 75.0618 12.6895 75.5488 12.6895C75.8604 12.6895 76.1056 12.6232 76.2847 12.4907C76.4673 12.3547 76.5586 12.1649 76.5586 11.9214ZM85.5444 6.17969V11.2983C85.5444 11.8784 85.4209 12.3815 85.1738 12.8076C84.9268 13.2301 84.5723 13.5524 84.1104 13.7744C83.6484 13.9964 83.1024 14.1074 82.4722 14.1074C81.5197 14.1074 80.7695 13.8604 80.2217 13.3662C79.6738 12.8721 79.3945 12.1953 79.3838 11.3359V6.17969H81.2798V11.3735C81.3013 12.2293 81.6987 12.6572 82.4722 12.6572C82.8625 12.6572 83.1579 12.5498 83.3584 12.335C83.5589 12.1201 83.6592 11.771 83.6592 11.2876V6.17969H85.5444ZM91.5762 10.686H88.6113V12.5498H92.1133V14H86.7261V6.17969H92.124V7.63525H88.6113V9.28418H91.5762V10.686ZM96.915 11.9214C96.915 11.6457 96.8166 11.4308 96.6196 11.2769C96.4263 11.1229 96.0843 10.9635 95.5938 10.7988C95.1032 10.6341 94.7021 10.4748 94.3906 10.3208C93.3773 9.82308 92.8706 9.13916 92.8706 8.26904C92.8706 7.83577 92.9959 7.45443 93.2466 7.125C93.5008 6.79199 93.8589 6.53418 94.3208 6.35156C94.7827 6.16536 95.3019 6.07227 95.8784 6.07227C96.4406 6.07227 96.9437 6.17253 97.3877 6.37305C97.8353 6.57357 98.1826 6.86003 98.4297 7.23242C98.6768 7.60124 98.8003 8.02376 98.8003 8.5H96.9204C96.9204 8.18132 96.8219 7.93424 96.625 7.75879C96.4316 7.58333 96.1685 7.49561 95.8354 7.49561C95.4989 7.49561 95.2321 7.5708 95.0352 7.72119C94.8418 7.868 94.7451 8.05599 94.7451 8.28516C94.7451 8.48568 94.8525 8.66829 95.0674 8.83301C95.2822 8.99414 95.66 9.16243 96.2007 9.33789C96.7414 9.50977 97.1854 9.69596 97.5327 9.89648C98.3778 10.3835 98.8003 11.0549 98.8003 11.9106C98.8003 12.5946 98.5425 13.1317 98.0269 13.522C97.5112 13.9123 96.804 14.1074 95.9053 14.1074C95.2715 14.1074 94.6968 13.9946 94.1812 13.769C93.6691 13.5399 93.2824 13.2284 93.021 12.8345C92.7632 12.437 92.6343 11.9805 92.6343 11.4648H94.5249C94.5249 11.8838 94.6323 12.1935 94.8472 12.394C95.0656 12.591 95.4183 12.6895 95.9053 12.6895C96.2168 12.6895 96.4621 12.6232 96.6411 12.4907C96.8237 12.3547 96.915 12.1649 96.915 11.9214Z" fill="white"/>
</svg>
