<svg width="130" height="20" viewBox="0 0 130 20" fill="none" xmlns="http://www.w3.org/2000/svg">
<rect width="130" height="20" rx="2" fill="#49CDAE"/>
<path d="M33.7344 10.6016H30.418V14H28.3613V5.46875H34.0684V7.05664H30.418V9.01953H33.7344V10.6016ZM41.6152 5.46875V11.0527C41.6152 11.6855 41.4805 12.2344 41.2109 12.6992C40.9414 13.1602 40.5547 13.5117 40.0508 13.7539C39.5469 13.9961 38.9512 14.1172 38.2637 14.1172C37.2246 14.1172 36.4062 13.8477 35.8086 13.3086C35.2109 12.7695 34.9062 12.0312 34.8945 11.0938V5.46875H36.9629V11.1348C36.9863 12.0684 37.4199 12.5352 38.2637 12.5352C38.6895 12.5352 39.0117 12.418 39.2305 12.1836C39.4492 11.9492 39.5586 11.5684 39.5586 11.041V5.46875H41.6152ZM50.0293 14H47.9844L44.9609 8.69141V14H42.9043V5.46875H44.9609L47.9785 10.7773V5.46875H50.0293V14ZM51.3301 14V5.46875H54.0781C54.832 5.46875 55.5098 5.64062 56.1113 5.98438C56.7129 6.32422 57.1816 6.80664 57.5176 7.43164C57.8574 8.05273 58.0293 8.75 58.0332 9.52344V9.91602C58.0332 10.6973 57.8672 11.3984 57.5352 12.0195C57.207 12.6367 56.7422 13.1211 56.1406 13.4727C55.543 13.8203 54.875 13.9961 54.1367 14H51.3301ZM53.3867 7.05664V12.418H54.1016C54.6914 12.418 55.1445 12.209 55.4609 11.791C55.7773 11.3691 55.9355 10.7441 55.9355 9.91602V9.54688C55.9355 8.72266 55.7773 8.10156 55.4609 7.68359C55.1445 7.26562 54.6836 7.05664 54.0781 7.05664H53.3867ZM64.2676 14H62.2168V5.46875H64.2676V14ZM70.0977 11.7324C70.0977 11.4316 69.9902 11.1973 69.7754 11.0293C69.5645 10.8613 69.1914 10.6875 68.6562 10.5078C68.1211 10.3281 67.6836 10.1543 67.3438 9.98633C66.2383 9.44336 65.6855 8.69727 65.6855 7.74805C65.6855 7.27539 65.8223 6.85938 66.0957 6.5C66.373 6.13672 66.7637 5.85547 67.2676 5.65625C67.7715 5.45312 68.3379 5.35156 68.9668 5.35156C69.5801 5.35156 70.1289 5.46094 70.6133 5.67969C71.1016 5.89844 71.4805 6.21094 71.75 6.61719C72.0195 7.01953 72.1543 7.48047 72.1543 8H70.1035C70.1035 7.65234 69.9961 7.38281 69.7812 7.19141C69.5703 7 69.2832 6.9043 68.9199 6.9043C68.5527 6.9043 68.2617 6.98633 68.0469 7.15039C67.8359 7.31055 67.7305 7.51562 67.7305 7.76562C67.7305 7.98438 67.8477 8.18359 68.082 8.36328C68.3164 8.53906 68.7285 8.72266 69.3184 8.91406C69.9082 9.10156 70.3926 9.30469 70.7715 9.52344C71.6934 10.0547 72.1543 10.7871 72.1543 11.7207C72.1543 12.4668 71.873 13.0527 71.3105 13.4785C70.748 13.9043 69.9766 14.1172 68.9961 14.1172C68.3047 14.1172 67.6777 13.9941 67.1152 13.748C66.5566 13.498 66.1348 13.1582 65.8496 12.7285C65.5684 12.2949 65.4277 11.7969 65.4277 11.2344H67.4902C67.4902 11.6914 67.6074 12.0293 67.8418 12.248C68.0801 12.4629 68.4648 12.5703 68.9961 12.5703C69.3359 12.5703 69.6035 12.498 69.7988 12.3535C69.998 12.2051 70.0977 11.998 70.0977 11.7324ZM77.6094 11.7324C77.6094 11.4316 77.502 11.1973 77.2871 11.0293C77.0762 10.8613 76.7031 10.6875 76.168 10.5078C75.6328 10.3281 75.1953 10.1543 74.8555 9.98633C73.75 9.44336 73.1973 8.69727 73.1973 7.74805C73.1973 7.27539 73.334 6.85938 73.6074 6.5C73.8848 6.13672 74.2754 5.85547 74.7793 5.65625C75.2832 5.45312 75.8496 5.35156 76.4785 5.35156C77.0918 5.35156 77.6406 5.46094 78.125 5.67969C78.6133 5.89844 78.9922 6.21094 79.2617 6.61719C79.5312 7.01953 79.666 7.48047 79.666 8H77.6152C77.6152 7.65234 77.5078 7.38281 77.293 7.19141C77.082 7 76.7949 6.9043 76.4316 6.9043C76.0645 6.9043 75.7734 6.98633 75.5586 7.15039C75.3477 7.31055 75.2422 7.51562 75.2422 7.76562C75.2422 7.98438 75.3594 8.18359 75.5938 8.36328C75.8281 8.53906 76.2402 8.72266 76.8301 8.91406C77.4199 9.10156 77.9043 9.30469 78.2832 9.52344C79.2051 10.0547 79.666 10.7871 79.666 11.7207C79.666 12.4668 79.3848 13.0527 78.8223 13.4785C78.2598 13.9043 77.4883 14.1172 76.5078 14.1172C75.8164 14.1172 75.1895 13.9941 74.627 13.748C74.0684 13.498 73.6465 13.1582 73.3613 12.7285C73.0801 12.2949 72.9395 11.7969 72.9395 11.2344H75.002C75.002 11.6914 75.1191 12.0293 75.3535 12.248C75.5918 12.4629 75.9766 12.5703 76.5078 12.5703C76.8477 12.5703 77.1152 12.498 77.3105 12.3535C77.5098 12.2051 77.6094 11.998 77.6094 11.7324ZM87.4121 5.46875V11.0527C87.4121 11.6855 87.2773 12.2344 87.0078 12.6992C86.7383 13.1602 86.3516 13.5117 85.8477 13.7539C85.3438 13.9961 84.748 14.1172 84.0605 14.1172C83.0215 14.1172 82.2031 13.8477 81.6055 13.3086C81.0078 12.7695 80.7031 12.0312 80.6914 11.0938V5.46875H82.7598V11.1348C82.7832 12.0684 83.2168 12.5352 84.0605 12.5352C84.4863 12.5352 84.8086 12.418 85.0273 12.1836C85.2461 11.9492 85.3555 11.5684 85.3555 11.041V5.46875H87.4121ZM93.9922 10.3848H90.7578V12.418H94.5781V14H88.7012V5.46875H94.5898V7.05664H90.7578V8.85547H93.9922V10.3848ZM99.8164 11.7324C99.8164 11.4316 99.709 11.1973 99.4941 11.0293C99.2832 10.8613 98.9102 10.6875 98.375 10.5078C97.8398 10.3281 97.4023 10.1543 97.0625 9.98633C95.957 9.44336 95.4043 8.69727 95.4043 7.74805C95.4043 7.27539 95.541 6.85938 95.8145 6.5C96.0918 6.13672 96.4824 5.85547 96.9863 5.65625C97.4902 5.45312 98.0566 5.35156 98.6855 5.35156C99.2988 5.35156 99.8477 5.46094 100.332 5.67969C100.82 5.89844 101.199 6.21094 101.469 6.61719C101.738 7.01953 101.873 7.48047 101.873 8H99.8223C99.8223 7.65234 99.7148 7.38281 99.5 7.19141C99.2891 7 99.002 6.9043 98.6387 6.9043C98.2715 6.9043 97.9805 6.98633 97.7656 7.15039C97.5547 7.31055 97.4492 7.51562 97.4492 7.76562C97.4492 7.98438 97.5664 8.18359 97.8008 8.36328C98.0352 8.53906 98.4473 8.72266 99.0371 8.91406C99.627 9.10156 100.111 9.30469 100.49 9.52344C101.412 10.0547 101.873 10.7871 101.873 11.7207C101.873 12.4668 101.592 13.0527 101.029 13.4785C100.467 13.9043 99.6953 14.1172 98.7148 14.1172C98.0234 14.1172 97.3965 13.9941 96.834 13.748C96.2754 13.498 95.8535 13.1582 95.5684 12.7285C95.2871 12.2949 95.1465 11.7969 95.1465 11.2344H97.209C97.209 11.6914 97.3262 12.0293 97.5605 12.248C97.7988 12.4629 98.1836 12.5703 98.7148 12.5703C99.0547 12.5703 99.3223 12.498 99.5176 12.3535C99.7168 12.2051 99.8164 11.998 99.8164 11.7324Z" fill="white"/>
</svg>
