<svg width="130" height="25" viewBox="0 0 130 25" fill="none" xmlns="http://www.w3.org/2000/svg">
<rect width="130" height="25" rx="2" fill="#5CD2B6"/>
<path d="M33.7344 13.6016H30.418V17H28.3613V8.46875H34.0684V10.0566H30.418V12.0195H33.7344V13.6016ZM41.6152 8.46875V14.0527C41.6152 14.6855 41.4805 15.2344 41.2109 15.6992C40.9414 16.1602 40.5547 16.5117 40.0508 16.7539C39.5469 16.9961 38.9512 17.1172 38.2637 17.1172C37.2246 17.1172 36.4062 16.8477 35.8086 16.3086C35.2109 15.7695 34.9062 15.0312 34.8945 14.0938V8.46875H36.9629V14.1348C36.9863 15.0684 37.4199 15.5352 38.2637 15.5352C38.6895 15.5352 39.0117 15.418 39.2305 15.1836C39.4492 14.9492 39.5586 14.5684 39.5586 14.041V8.46875H41.6152ZM50.0293 17H47.9844L44.9609 11.6914V17H42.9043V8.46875H44.9609L47.9785 13.7773V8.46875H50.0293V17ZM51.3301 17V8.46875H54.0781C54.832 8.46875 55.5098 8.64062 56.1113 8.98438C56.7129 9.32422 57.1816 9.80664 57.5176 10.4316C57.8574 11.0527 58.0293 11.75 58.0332 12.5234V12.916C58.0332 13.6973 57.8672 14.3984 57.5352 15.0195C57.207 15.6367 56.7422 16.1211 56.1406 16.4727C55.543 16.8203 54.875 16.9961 54.1367 17H51.3301ZM53.3867 10.0566V15.418H54.1016C54.6914 15.418 55.1445 15.209 55.4609 14.791C55.7773 14.3691 55.9355 13.7441 55.9355 12.916V12.5469C55.9355 11.7227 55.7773 11.1016 55.4609 10.6836C55.1445 10.2656 54.6836 10.0566 54.0781 10.0566H53.3867ZM64.2676 17H62.2168V8.46875H64.2676V17ZM70.0977 14.7324C70.0977 14.4316 69.9902 14.1973 69.7754 14.0293C69.5645 13.8613 69.1914 13.6875 68.6562 13.5078C68.1211 13.3281 67.6836 13.1543 67.3438 12.9863C66.2383 12.4434 65.6855 11.6973 65.6855 10.748C65.6855 10.2754 65.8223 9.85938 66.0957 9.5C66.373 9.13672 66.7637 8.85547 67.2676 8.65625C67.7715 8.45312 68.3379 8.35156 68.9668 8.35156C69.5801 8.35156 70.1289 8.46094 70.6133 8.67969C71.1016 8.89844 71.4805 9.21094 71.75 9.61719C72.0195 10.0195 72.1543 10.4805 72.1543 11H70.1035C70.1035 10.6523 69.9961 10.3828 69.7812 10.1914C69.5703 10 69.2832 9.9043 68.9199 9.9043C68.5527 9.9043 68.2617 9.98633 68.0469 10.1504C67.8359 10.3105 67.7305 10.5156 67.7305 10.7656C67.7305 10.9844 67.8477 11.1836 68.082 11.3633C68.3164 11.5391 68.7285 11.7227 69.3184 11.9141C69.9082 12.1016 70.3926 12.3047 70.7715 12.5234C71.6934 13.0547 72.1543 13.7871 72.1543 14.7207C72.1543 15.4668 71.873 16.0527 71.3105 16.4785C70.748 16.9043 69.9766 17.1172 68.9961 17.1172C68.3047 17.1172 67.6777 16.9941 67.1152 16.748C66.5566 16.498 66.1348 16.1582 65.8496 15.7285C65.5684 15.2949 65.4277 14.7969 65.4277 14.2344H67.4902C67.4902 14.6914 67.6074 15.0293 67.8418 15.248C68.0801 15.4629 68.4648 15.5703 68.9961 15.5703C69.3359 15.5703 69.6035 15.498 69.7988 15.3535C69.998 15.2051 70.0977 14.998 70.0977 14.7324ZM77.6094 14.7324C77.6094 14.4316 77.502 14.1973 77.2871 14.0293C77.0762 13.8613 76.7031 13.6875 76.168 13.5078C75.6328 13.3281 75.1953 13.1543 74.8555 12.9863C73.75 12.4434 73.1973 11.6973 73.1973 10.748C73.1973 10.2754 73.334 9.85938 73.6074 9.5C73.8848 9.13672 74.2754 8.85547 74.7793 8.65625C75.2832 8.45312 75.8496 8.35156 76.4785 8.35156C77.0918 8.35156 77.6406 8.46094 78.125 8.67969C78.6133 8.89844 78.9922 9.21094 79.2617 9.61719C79.5312 10.0195 79.666 10.4805 79.666 11H77.6152C77.6152 10.6523 77.5078 10.3828 77.293 10.1914C77.082 10 76.7949 9.9043 76.4316 9.9043C76.0645 9.9043 75.7734 9.98633 75.5586 10.1504C75.3477 10.3105 75.2422 10.5156 75.2422 10.7656C75.2422 10.9844 75.3594 11.1836 75.5938 11.3633C75.8281 11.5391 76.2402 11.7227 76.8301 11.9141C77.4199 12.1016 77.9043 12.3047 78.2832 12.5234C79.2051 13.0547 79.666 13.7871 79.666 14.7207C79.666 15.4668 79.3848 16.0527 78.8223 16.4785C78.2598 16.9043 77.4883 17.1172 76.5078 17.1172C75.8164 17.1172 75.1895 16.9941 74.627 16.748C74.0684 16.498 73.6465 16.1582 73.3613 15.7285C73.0801 15.2949 72.9395 14.7969 72.9395 14.2344H75.002C75.002 14.6914 75.1191 15.0293 75.3535 15.248C75.5918 15.4629 75.9766 15.5703 76.5078 15.5703C76.8477 15.5703 77.1152 15.498 77.3105 15.3535C77.5098 15.2051 77.6094 14.998 77.6094 14.7324ZM87.4121 8.46875V14.0527C87.4121 14.6855 87.2773 15.2344 87.0078 15.6992C86.7383 16.1602 86.3516 16.5117 85.8477 16.7539C85.3438 16.9961 84.748 17.1172 84.0605 17.1172C83.0215 17.1172 82.2031 16.8477 81.6055 16.3086C81.0078 15.7695 80.7031 15.0312 80.6914 14.0938V8.46875H82.7598V14.1348C82.7832 15.0684 83.2168 15.5352 84.0605 15.5352C84.4863 15.5352 84.8086 15.418 85.0273 15.1836C85.2461 14.9492 85.3555 14.5684 85.3555 14.041V8.46875H87.4121ZM93.9922 13.3848H90.7578V15.418H94.5781V17H88.7012V8.46875H94.5898V10.0566H90.7578V11.8555H93.9922V13.3848ZM99.8164 14.7324C99.8164 14.4316 99.709 14.1973 99.4941 14.0293C99.2832 13.8613 98.9102 13.6875 98.375 13.5078C97.8398 13.3281 97.4023 13.1543 97.0625 12.9863C95.957 12.4434 95.4043 11.6973 95.4043 10.748C95.4043 10.2754 95.541 9.85938 95.8145 9.5C96.0918 9.13672 96.4824 8.85547 96.9863 8.65625C97.4902 8.45312 98.0566 8.35156 98.6855 8.35156C99.2988 8.35156 99.8477 8.46094 100.332 8.67969C100.82 8.89844 101.199 9.21094 101.469 9.61719C101.738 10.0195 101.873 10.4805 101.873 11H99.8223C99.8223 10.6523 99.7148 10.3828 99.5 10.1914C99.2891 10 99.002 9.9043 98.6387 9.9043C98.2715 9.9043 97.9805 9.98633 97.7656 10.1504C97.5547 10.3105 97.4492 10.5156 97.4492 10.7656C97.4492 10.9844 97.5664 11.1836 97.8008 11.3633C98.0352 11.5391 98.4473 11.7227 99.0371 11.9141C99.627 12.1016 100.111 12.3047 100.49 12.5234C101.412 13.0547 101.873 13.7871 101.873 14.7207C101.873 15.4668 101.592 16.0527 101.029 16.4785C100.467 16.9043 99.6953 17.1172 98.7148 17.1172C98.0234 17.1172 97.3965 16.9941 96.834 16.748C96.2754 16.498 95.8535 16.1582 95.5684 15.7285C95.2871 15.2949 95.1465 14.7969 95.1465 14.2344H97.209C97.209 14.6914 97.3262 15.0293 97.5605 15.248C97.7988 15.4629 98.1836 15.5703 98.7148 15.5703C99.0547 15.5703 99.3223 15.498 99.5176 15.3535C99.7168 15.2051 99.8164 14.998 99.8164 14.7324Z" fill="white"/>
</svg>
