<?xml version="1.0" encoding="UTF-8"?>
<svg width="452px" height="52px" viewBox="0 0 452 52" version="1.1" xmlns="http://www.w3.org/2000/svg" xmlns:xlink="http://www.w3.org/1999/xlink">
    <!-- Generator: Sketch 52.5 (67469) - http://www.bohemiancoding.com/sketch -->
    <title>issuehunt-button-v.1.0.0</title>
    <desc>Created with Sketch.</desc>
    <defs>
        <polygon id="path-1" points="0 0.0262090845 28.8409797 0.0262090845 28.8409797 33.1744186 0 33.1744186"></polygon>
        <polygon id="path-3" points="0.0735339615 0.0492906977 13.3083467 0.0492906977 13.3083467 12.4943711 0.0735339615 12.4943711"></polygon>
    </defs>
    <g id="issuehunt-button-v.1.0.0" stroke="none" stroke-width="1" fill="none" fill-rule="evenodd">
        <g id="Button">
            <rect id="Box" stroke="#DFDFDF" fill="#FFFFFF" x="0" y="0" width="452" height="52" rx="4"></rect>
            <g id="Logo" transform="translate(27.000000, 8.000000)">
                <path d="M25.7646977,34.857 C22.0892442,33.6968372 19.5900698,30.287407 19.5900698,26.4325814 C19.5900698,22.5757674 22.0921744,19.1648721 25.7646977,18.0081628 L25.7646977,13.5992093 C24.3248023,18.8738372 20.0996163,22.4895349 15.2992674,22.4895349 C13.6315465,22.4895349 12.0298605,22.0525116 10.5894419,21.258314 C10.6507674,24.619814 11.5242907,27.918 13.1370698,30.8713605 C16.6412093,33.5449884 21.0178256,35.1332791 25.7646977,35.1352674 L25.7646977,34.857" id="Fill-12" fill="#FFFFFF"></path>
                <path d="M10.5894419,21.258314 C12.0298605,22.0525116 13.6315465,22.4895349 15.2992674,22.4895349 C20.0996163,22.4895349 24.3248023,18.8738372 25.7646977,13.5992093 L25.7646977,7.24813953 C26.9655698,6.68867442 27.7866628,5.37216279 27.7866628,3.86706977 L27.7853023,3.73343023 C27.7853023,3.73343023 23.4208256,3.68926744 20.4072907,6.13255814 L19.8085814,6.13255814 C18.9957558,6.51181395 17.5465465,7.17467442 16.6348256,8.23343023 C16.5157326,8.37261628 16.404593,8.5180814 16.305593,8.67045349 C16.1365814,8.93113953 15.9312558,9.1662907 15.698093,9.37601163 C15.246314,9.78362791 14.6897791,10.0981047 14.0866744,10.323 C12.7432674,11.0735581 11.3459651,11.0662326 10.3156744,10.5904884 C8.96044186,10.2617791 8.04034884,9.41609302 8.42096512,8.0869186 C8.5317907,7.69887209 8.75365116,7.26927907 9.1084186,6.79939535 C9.34409302,6.48627907 9.5175,6.27561628 9.64590698,6.13255814 L9.55622093,6.13255814 C6.20801163,3.68926744 1.35711628,3.73343023 1.35711628,3.73343023 L1.35418605,3.86706977 C1.35418605,5.68925581 2.69267442,7.23495349 4.49612791,7.49553488 C4.95669767,7.6954186 5.40544186,7.9159186 5.841,8.15651163 C5.26677907,10.0255814 4.95868605,11.9647674 4.92436047,13.9186047 C5.90954651,17.2174186 7.98540698,19.8218721 10.5894419,21.258314" id="Fill-13" fill="#FFFFFF"></path>
                <path d="M12.6471977,30.8713605 C11.034314,27.918 10.1607907,24.619814 10.0994651,21.258314 C7.49553488,19.8218721 5.41967442,17.2174186 4.43438372,13.9186047 C4.4325,14.0395814 4.43145349,14.1606628 4.43145349,14.2816395 C4.43145349,21.0477558 7.65376744,27.0612209 12.6471977,30.8713605" id="Fill-14" fill="#2CC28C"></path>
                <path d="M9.06613953,6.23023256 L19.9172093,6.23023256" id="Stroke-15" stroke="#147853" stroke-linecap="round" stroke-linejoin="round"></path>
                <g id="Group-18" transform="translate(0.000000, 2.825581)">
                    <mask id="mask-2" fill="white">
                        <use xlink:href="#path-1"></use>
                    </mask>
                    <g id="Clip-17"></g>
                    <path d="M7.63712791,7.98540698 C7.21674419,8.18476744 6.85915116,8.48166279 6.59061628,8.84323256 C6.2412907,9.31311628 6.03889535,9.89665116 6.03889535,10.5178605 C6.03889535,11.2919651 6.35295349,11.9930233 6.85956977,12.4996395 C7.36618605,13.0062558 8.06734884,13.320314 8.84093023,13.320314 C9.34503488,13.320314 9.82611628,13.1885581 10.2396977,12.9508953 C10.5356512,12.7809419 10.8011512,12.5555233 11.0200814,12.2845814 C10.4194884,11.1450349 9.67772093,10.0906744 8.81686047,9.14609302 C8.44503488,8.73837209 8.05112791,8.35084884 7.63712791,7.98540698 Z M5.74890698,7.21036047 C5.8855814,7.08247674 6.03010465,6.96286047 6.18247674,6.85213953 C6.08201163,6.78359302 5.98112791,6.71598837 5.87919767,6.64984884 C5.83315116,6.83602326 5.78961628,7.02272093 5.74890698,7.21036047 Z M24.4106163,31.4268488 L24.4106163,14.8895581 C23.6957442,16.0256512 22.8359302,17.0222442 21.8668605,17.8478372 C19.8713721,19.5478953 17.4171977,20.5282674 14.8092907,20.5282674 C13.502093,20.5282674 12.231314,20.2808721 11.0357791,19.8192558 C11.1372907,20.9529419 11.335186,22.077 11.6271628,23.1783488 C12.0210698,24.664186 12.5854535,26.1047093 13.3115233,27.4647558 C16.4309651,29.8011977 20.2563837,31.2475814 24.4106163,31.4268488 Z M24.8593605,3.66467442 C24.8926395,3.64646512 24.9273837,3.63034884 24.9631744,3.61611628 C25.2905233,3.45296512 25.580093,3.21048837 25.8132558,2.91160465 C26.0538488,2.60246512 26.2345814,2.23210465 26.3370349,1.82396512 C24.9666279,1.95331395 22.3979651,2.40498837 20.4606628,3.97527907 C20.0917674,4.27510465 19.5489419,4.21922093 19.2491163,3.85032558 C18.949186,3.48143023 19.0051744,2.93860465 19.3740698,2.63877907 C22.6336395,-0.00397674419 27.2820349,0.0435348837 27.2953256,0.0435348837 C27.7725349,0.0435348837 28.1595349,0.430639535 28.1595349,0.907848837 L28.1575465,0.964674419 L28.161,1.04148837 C28.161,2.14733721 27.7901163,3.17563953 27.1703721,3.97182558 C26.8783953,4.34616279 26.5305349,4.66953488 26.1390349,4.92477907 L26.1390349,10.6163372 C26.1503372,10.696186 26.1507558,10.7785465 26.1390349,10.8613256 L26.1390349,31.4288372 C26.2884767,31.4224535 26.4355116,31.4146047 26.5800349,31.4052907 C27.0233372,31.3769302 27.4535581,31.3347558 27.8685,31.2808605 C28.3398488,31.2196395 28.7724767,31.5523256 28.8336977,32.0236744 C28.8950233,32.4949186 28.5622326,32.9274419 28.0909884,32.9887674 C27.6128372,33.0510349 27.1434767,33.0980233 26.6878256,33.1270116 C26.2051744,33.1583023 25.7367558,33.1745233 25.2856047,33.1745233 C19.2887791,33.1745233 13.8588488,30.7433721 9.92856977,26.8131977 C5.9982907,22.8829186 3.56724419,17.4528837 3.56724419,11.4560581 C3.56724419,10.3777326 3.64855814,9.29836047 3.80877907,8.22934884 L3.81369767,8.20088372 C3.9370814,7.38418605 4.10860465,6.57146512 4.32763953,5.76701163 C4.14387209,5.67627907 3.95822093,5.58910465 3.77005814,5.50580233 C2.70397674,5.32454651 1.77551163,4.77680233 1.1072093,4.00468605 C0.414523256,3.20462791 0,2.16397674 0,1.04148837 C0,1.01365116 0.00198837209,0.986127907 0.00439534884,0.958709302 L0.00293023256,0.907848837 C0.00293023256,0.857825581 0.00690697674,0.808848837 0.0156976744,0.761337209 L0.0166395349,0.754953488 L0.0191511628,0.73977907 L0.0205116279,0.733813953 C0.0940813953,0.325255814 0.455651163,0.0181046512 0.884302326,0.026372093 C0.941127907,0.0273139535 0.997011628,0.0342209302 1.05090698,0.0455232558 C1.99506977,0.0656162791 6.3852907,0.286116279 9.57233721,2.61177907 C9.95598837,2.89109302 10.0407558,3.42952326 9.76154651,3.81306977 C9.48223256,4.19672093 8.94380233,4.28148837 8.56015116,4.00217442 C6.32898837,2.37369767 3.34873256,1.93416279 1.83631395,1.81559302 C1.94944186,2.21201163 2.14744186,2.574 2.41043023,2.87780233 C2.83772093,3.37123256 3.4384186,3.7165814 4.12775581,3.81610465 C4.22916279,3.83023256 4.32418605,3.86215116 4.40989535,3.90767442 C4.86115116,4.10556977 5.30110465,4.32219767 5.72933721,4.55630233 C5.75424419,4.56865116 5.77873256,4.58183721 5.80238372,4.59648837 L5.80625581,4.599 C7.42206977,5.49355814 8.86782558,6.64053488 10.0926628,7.98488372 C11.2014419,9.20093023 12.132314,10.5810698 12.8485465,12.0841744 C13.9083488,9.91716279 15.3256395,8.09173256 16.9801744,6.7090814 C19.1461395,4.89882558 21.7232791,3.84394186 24.4448372,3.76555814 C24.4840814,3.76461628 24.5228023,3.7660814 24.561,3.76995349 C24.6629302,3.74211628 24.7628721,3.70684884 24.8593605,3.66467442 Z M20.1692093,6.63666279 C21.4455349,5.97181395 22.8177209,5.57780233 24.2341744,5.49847674 C24.291,5.51469767 24.3503372,5.52495349 24.4106163,5.52934884 L24.4106163,10.6614419 C23.7271395,13.0802442 22.4223488,15.1100581 20.7458372,16.5386512 C19.0624186,17.972686 16.9973372,18.7997442 14.8092907,18.7997442 C12.7456744,18.7997442 10.7839884,18.0623721 9.15006977,16.7660581 C8.42881395,16.1938256 7.77034884,15.5138023 7.19330233,14.739593 C7.7042093,14.9390581 8.25980233,15.0488372 8.84093023,15.0488372 C9.64151163,15.0488372 10.4180233,14.8327326 11.0971047,14.4422791 C11.337593,14.3040349 11.5654186,14.1439186 11.7775465,13.9630814 C11.8593837,14.1786628 11.9368256,14.3967558 12.0088256,14.6171512 L12.0117558,14.6244767 L12.0161512,14.638186 L12.0185581,14.6440465 C12.0353023,14.6907209 12.0553953,14.7351977 12.0793605,14.7768488 L12.0897209,14.7940116 L12.0901395,14.7954767 L12.1005,14.8116977 L12.1014419,14.8135814 L12.1465465,14.8778372 L12.147907,14.8797209 L12.1504186,14.8827558 L12.1509419,14.8836977 L12.1743837,14.9120581 L12.1768953,14.9155116 L12.1881977,14.9277558 L12.1910233,14.9312093 L12.2023256,14.9429302 L12.2052558,14.9463837 L12.2165581,14.9581047 L12.2200116,14.9611395 L12.2317326,14.9728605 L12.2346628,14.9757907 L12.246907,14.987093 L12.2498372,14.9900233 L12.2626047,15.0012209 L12.2655349,15.0037326 L12.2788256,15.0150349 L12.2817558,15.0169186 L12.2949419,15.0282209 L12.2978721,15.0302093 C12.3405698,15.0644302 12.3875581,15.0934186 12.4374767,15.1188488 L12.4394651,15.120314 C12.4718023,15.1369535 12.5050814,15.1517093 12.5403488,15.1639535 C12.9891977,15.3236512 13.4839884,15.0894419 13.643686,14.6406977 C13.8161512,14.1571047 14.0067209,13.6882674 14.2140349,13.2355465 C14.5853372,13.729814 15.0522907,14.139 15.5795233,14.4422791 C16.2585,14.8327326 17.0350116,15.0488372 17.835593,15.0488372 C19.0859651,15.0488372 20.2191279,14.5411744 21.0388605,13.7215465 C21.8584884,12.9019186 22.3660465,11.7686512 22.3660465,10.5178605 C22.3660465,9.52189535 22.0373372,8.58118605 21.4695,7.81733721 C21.1196512,7.34703488 20.6791744,6.94433721 20.1692093,6.63666279 Z M15.072907,11.6025698 C15.2101047,11.6756163 15.329093,11.7863372 15.4129186,11.9308605 C15.664186,12.3625465 16.0204186,12.7113488 16.4369302,12.9508953 C16.850407,13.1885581 17.3314884,13.320314 17.835593,13.320314 C18.6092791,13.320314 19.3103372,13.0062558 19.8169535,12.4996395 C20.3234651,11.9930233 20.6375233,11.2919651 20.6375233,10.5178605 C20.6375233,9.89665116 20.4352326,9.31311628 20.085907,8.84323256 C19.7365814,8.37387209 19.2372907,8.01188372 18.6445465,7.83355814 C18.5724419,7.812 18.5053605,7.78206977 18.4441395,7.74481395 C18.3235814,7.83795349 18.2050116,7.9339186 18.0874884,8.03197674 C16.9399884,8.99068605 15.9190116,10.1950116 15.072907,11.6025698 Z M10.2572791,24.6373953 C10.1500116,24.2992674 10.0500698,23.9592558 9.95944186,23.6172558 C9.55622093,22.0969884 9.31761628,20.5277442 9.25294186,18.9379884 C8.84731395,18.6904884 8.45487209,18.416093 8.0770814,18.1162674 C7.21182558,17.4298605 6.42505814,16.609814 5.742,15.675907 C6.46953488,19.0608488 8.05447674,22.1278605 10.2572791,24.6373953 Z" id="Fill-16" fill="#147853" mask="url(#mask-2)"></path>
                </g>
                <path d="M15.6031744,4.57074419 C15.5702093,4.99866279 15.5600581,5.40743023 15.547814,5.76627907 L15.7398488,5.75863953 C17.8776628,5.65702326 19.2670116,4.79145349 19.7516512,4.4365814 C19.9524767,5.28268605 19.8599651,5.73362791 19.9368837,5.85659302 C19.9652442,5.90211628 19.8511744,5.98384884 19.6440698,6.10503488 C18.969593,6.49831395 17.3079419,7.30234884 16.3542558,8.59081395 C9.65365116,9.18376744 8.74276744,7.71268605 8.74276744,7.71268605 C8.96263953,7.37215116 9.24331395,7.00765116 9.59274419,6.61918605 C9.59274419,6.61918605 9.58730233,6.02706977 9.7202093,5.23967442 C9.7202093,5.23967442 10.8398721,5.45766279 12.3075,5.61547674 C12.2880349,5.76376744 12.2712907,5.91613953 12.2573721,6.07363953 C12.2717093,5.91613953 12.2895,5.76387209 12.3098023,5.61589535 C12.3720698,5.16045349 12.4597674,4.7472907 12.5676628,4.37243023 C12.5645233,4.37190698 12.5614884,4.37159302 12.5583488,4.37106977 C11.4281163,4.20362791 10.4897093,3.97956977 10.0728837,3.87303488 C10.2692093,3.3349186 10.5452791,2.80234884 10.9341628,2.36595349 C10.9459884,2.35276744 10.9582326,2.3395814 10.9704767,2.32639535 C11.1683721,2.37997674 12.2307907,2.51968605 13.3438605,2.66337209 C14.5641977,0.855837209 16.3757093,0.736325581 16.7476395,0.751709302 C16.753814,0.752232558 16.7594651,0.75244186 16.7646977,0.752651163 C16.7803953,0.755790698 16.7958837,0.759453488 16.8115814,0.762593023 C16.992,0.802255814 17.1665581,0.852802326 17.3332674,0.914755814 C17.0197326,1.10448837 16.7630233,1.3365 16.5523605,1.59875581 C16.2229186,2.00877907 16.0063953,2.49143023 15.8619767,2.99773256 L16.2301395,2.98580233 C17.3468721,2.93033721 18.1762326,2.53611628 18.765314,2.10286047 C19.0078953,2.52010465 19.197314,2.89956977 19.3460233,3.24261628 C18.9438488,3.61151163 17.7932093,4.46703488 15.6850116,4.5672907 L15.6031744,4.57074419 Z M8.15117442,9.04761628 C7.52232558,12.0730814 13.1949419,12.213 15.5040698,9.79890698 C10.187686,10.2541395 8.57584884,9.3957907 8.15117442,9.04761628 Z" id="Fill-19" fill="#FFFFFF"></path>
                <g id="Group-23" transform="translate(7.534884, 0.000000)">
                    <mask id="mask-4" fill="white">
                        <use xlink:href="#path-3"></use>
                    </mask>
                    <g id="Clip-21"></g>
                    <path d="M9.22981395,0.752651163 C7.19937209,0.329965116 4.44034884,1.25068605 3.43559302,2.32639535 C3.80993023,2.42748837 7.27377907,2.83793023 8.32709302,2.99773256 C8.44995349,2.99574419 8.57302326,2.99176744 8.69525581,2.98580233 C9.81198837,2.93033721 10.6413488,2.53611628 11.2304302,2.10286047 C11.2166163,2.079 11.2028023,2.05513953 11.1885698,2.03138372 C10.8708488,1.49232558 10.3819186,1.13232558 9.79838372,0.914755814 C9.48484884,1.10448837 9.22813953,1.3365 9.01747674,1.59875581 C9.24331395,0.872895349 8.99790698,0.738627907 9.22981395,0.752651163 Z M0.616290698,9.04761628 C1.04096512,9.3957907 2.65280233,10.2541395 7.96918605,9.79890698 C8.18602326,9.57202326 8.37366279,9.32253488 8.52310465,9.05075581 C8.61080233,8.89095349 8.71063953,8.73774419 8.81937209,8.59081395 C2.11876744,9.18376744 1.20788372,7.71268605 1.20788372,7.71268605 C0.888488372,8.20747674 0.698755814,8.65213953 0.616290698,9.04761628 Z M2.538,3.87303488 C2.36647674,4.34396512 2.25627907,4.81960465 2.18532558,5.23967442 C2.18532558,5.23967442 3.30498837,5.45766279 4.77261628,5.61547674 C5.77287209,5.72347674 6.9347093,5.80290698 8.01293023,5.76627907 C8.07739535,5.76439535 8.14144186,5.76146512 8.20496512,5.75863953 C10.3427791,5.65702326 11.7321279,4.79145349 12.2167674,4.4365814 C12.1373372,4.10201163 12.0114419,3.70548837 11.8111395,3.24261628 C11.4089651,3.61151163 10.2583256,4.46703488 8.15012791,4.5672907 C8.1227093,4.56865116 8.09581395,4.56980233 8.0682907,4.57074419 C7.04783721,4.61166279 5.96856977,4.51098837 5.02346512,4.37106977 C3.89323256,4.20362791 2.95482558,3.97956977 2.538,3.87303488 Z" id="Fill-20" fill="#2CC28C" mask="url(#mask-4)"></path>
                    <path d="M7.63252326,8.30396512 C5.49544186,8.28931395 3.3475814,7.82968605 2.37704651,7.59212791 C1.79790698,8.38433721 1.69409302,9.08246512 1.89983721,9.60823256 C2.04582558,9.98152326 2.35255814,10.2891977 2.75232558,10.4920116 C3.1952093,10.7163837 3.74933721,10.8153837 4.34113953,10.7472558 C5.46059302,10.6184302 6.69830233,9.89131395 7.63252326,8.30396512 Z M10.133686,2.28809302 C9.63533721,2.73443023 9.38553488,3.3032093 9.29051163,3.88475581 C9.15425581,4.7200814 9.30327907,5.57696512 9.50316279,6.20361628 C10.073407,5.94596512 10.6167558,5.73184884 11.060686,5.55739535 L11.546686,5.3644186 C11.5642674,4.98809302 11.4976047,4.27081395 10.6652093,2.85833721 L10.6666744,2.8572907 L10.6652093,2.85498837 C10.5456977,2.65165116 10.3865233,2.47866279 10.1998256,2.33654651 L10.133686,2.28809302 Z M4.54887209,6.28252326 C4.82818605,4.04937209 5.74880233,2.72365116 6.75994186,1.94023256 C6.20539535,2.07146512 5.6830814,2.27480233 5.25139535,2.52910465 C4.92906977,2.71873256 4.66555814,2.93431395 4.49256977,3.16161628 C3.73656977,4.1537093 3.31430233,5.27222093 3.10018605,5.99243023 C3.48477907,6.08117442 3.98354651,6.18603488 4.54887209,6.28252326 Z M7.67176744,1.79424419 C6.48753488,2.42822093 5.24166279,3.72306977 4.91724419,6.34332558 C5.80803488,6.48136047 6.82953488,6.5882093 7.82706977,6.57994186 C7.58155814,5.73959302 7.41798837,4.65739535 7.58940698,3.60847674 C7.69384884,2.97052326 7.91372093,2.34146512 8.29883721,1.77509302 C8.15525581,1.77122093 8.0097907,1.77310465 7.86327907,1.78095349 L7.67176744,1.79424419 Z M1.26052326,6.22172093 C1.41676744,5.5397093 1.92526744,3.68633721 3.12268605,2.11510465 C3.43182558,1.70947674 3.86686047,1.3459186 4.38038372,1.0435814 C5.31910465,0.4905 6.5605814,0.122546512 7.77516279,0.0593372093 C8.66825581,0.012244186 9.56187209,0.128406977 10.3390116,0.450313953 C10.3869419,0.466430233 10.4335116,0.486523256 10.4786163,0.511116279 C10.7524884,0.635023256 11.0097209,0.786348837 11.2463372,0.966662791 C11.6015233,1.23760465 11.9091977,1.57426744 12.1492674,1.98136047 L12.1507326,1.9804186 C13.3633256,4.03765116 13.3030465,5.12330233 13.2540698,5.64122093 C13.4064419,6.05563953 13.2345,6.40109302 12.7823023,6.68375581 C12.7563488,6.69987209 12.7298721,6.71462791 12.7028721,6.7272907 C12.4706512,6.85622093 12.1242558,6.9934186 11.6886977,7.1644186 C11.1208605,7.38732558 10.3834884,7.67783721 9.70011628,8.01345349 C8.45717442,10.9491279 6.39983721,12.2479535 4.53715116,12.4620698 C3.60282558,12.5698605 2.70962791,12.4032558 1.97623256,12.0313256 C1.20066279,11.6384651 0.59755814,11.0148488 0.292813953,10.2362442 C-0.152476744,9.09962791 0.0375697674,7.67386047 1.26052326,6.22172093 Z" id="Fill-22" fill="#147853" mask="url(#mask-4)"></path>
                </g>
                <path d="M14.0975581,7.39789535 C14.0975581,7.39789535 16.0831047,7.60374419 19.6440698,6.10503488" id="Stroke-24" stroke="#147853" stroke-linecap="round" stroke-linejoin="round"></path>
                <path d="M15.2266395,9.5899186 C17.9154419,8.55198837 20.9368256,9.89037209 21.9747558,12.5791744 C23.0127907,15.2678721 21.674407,18.2893605 18.9856047,19.3272907 C16.2968023,20.3652209 13.2754186,19.0268372 12.2374884,16.3380349 C11.1994535,13.6493372 12.5378372,10.6278488 15.2266395,9.5899186" id="Fill-25" fill="#FFFFFF"></path>
                <polyline id="Fill-26" fill="#2CC28C" points="17.394907 19.302593 18.0073256 20.8883721 20.220593 20.034 20.6325 19.8751395 20.020186 18.2892558 17.394907 19.302593"></polyline>
                <path d="M18.6072907,11.0706279 C17.7400465,10.6865581 16.7258721,10.633186 15.7730233,11.0006163 L15.7715581,11.0010349 C14.8180814,11.3689884 14.1023721,12.0902442 13.7187209,12.9568605 C13.3385233,13.8147907 13.2822209,14.8171395 13.6359419,15.7613023 C13.6456744,15.781814 13.6540465,15.8029535 13.6603256,15.8249302 C14.0322558,16.762186 14.7470233,17.4666977 15.6044302,17.8459535 C16.4623605,18.2261512 17.4647093,18.2825581 18.4088721,17.928314 C18.4289651,17.919 18.4495814,17.9106279 18.4710349,17.9042442 C19.4093372,17.5328372 20.1142674,16.8180698 20.4940465,15.9597209 C20.8766512,15.0955116 20.9305465,14.0842674 20.5675116,13.1342442 L20.5631163,13.1225233 C20.1951628,12.1695698 19.4740116,11.4542791 18.6072907,11.0706279 Z M15.4721512,10.1932326 C16.6456047,9.74386047 17.8909535,9.8095814 18.9551512,10.2808256 C20.0232209,10.7541628 20.9124419,11.6355349 21.3666279,12.8119186 L21.3675698,12.8143256 C21.8212326,13.9906047 21.7565581,15.2404535 21.2838488,16.3075814 C21.0211744,16.899907 20.6336512,17.4373953 20.1392791,17.8758837 C20.2642326,17.9115698 20.3715,18.0037674 20.4219419,18.1340581 L21.0295465,19.7087442 L21.0339419,19.7199419 C21.1196512,19.9413837 21.0089302,20.1912907 20.7874884,20.277 L18.1736163,21.2858372 L18.1624186,21.2902326 C17.9409767,21.3759419 17.6910698,21.2652209 17.6053605,21.0437791 L16.9978605,19.469093 L16.9934651,19.4577907 C16.9350698,19.307407 16.967407,19.143314 17.064,19.0271512 C16.4358837,19.0217093 15.8205349,18.8856628 15.2565698,18.6357558 C14.1880814,18.1624186 13.2988605,17.2806279 12.8446744,16.1042442 L12.8397558,16.0909535 C12.3914302,14.9176047 12.4575698,13.6726744 12.9289186,12.6091047 C13.4022558,11.5405116 14.2840465,10.6517093 15.4608488,10.1976279 L15.4721512,10.1932326 Z M18.2539884,20.3314186 L20.0751279,19.6283721 L19.773314,18.8464186 L17.9522791,19.5494651 L18.2539884,20.3314186 Z" id="Fill-27" fill="#147853"></path>
                <path d="M16.8298953,12.5267442 C17.8602907,12.575407 18.6557442,13.4496628 18.6070814,14.4800581 C18.5585233,15.5104535 17.6842674,16.305907 16.6537674,16.2572442 C15.6234767,16.208686 14.8280233,15.3343256 14.8765814,14.3039302 C14.9252442,13.2736395 15.7995,12.478186 16.8298953,12.5267442" id="Fill-28" fill="#2CC28C"></path>
                <path d="M16.785314,13.4703837 C17.2944419,13.4943488 17.6875116,13.9263488 17.6634419,14.4354767 C17.6394767,14.9446047 17.2074767,15.3376744 16.6983488,15.3136047 C16.1892209,15.2896395 15.7962558,14.8576395 15.8202209,14.3485116 C15.8442907,13.8393837 16.2762907,13.446314 16.785314,13.4703837" id="Fill-29" fill="#147853"></path>
                <path d="M17.2677558,13.4931977 C17.5103372,13.5046047 17.6977674,13.7104535 17.6862558,13.9531395 C17.6748488,14.1958256 17.4688953,14.3831512 17.226314,14.3716395 C16.9836279,14.3602326 16.7963023,14.1542791 16.807814,13.9116977 C16.8192209,13.6690116 17.0250698,13.481686 17.2677558,13.4931977" id="Fill-30" fill="#FFFFFF"></path>
                <polyline id="Fill-31" fill="#FFFFFF" points="18.418814 20.7295116 20.9878953 27.3844884 22.7896744 26.6890814 20.220593 20.034 18.418814 20.7295116"></polyline>
                <path d="M19.8507558,20.8694302 L19.2544535,21.0996628 L21.3578372,26.5491628 L21.9545581,26.3194535 L19.8507558,20.8694302 Z M18.1863837,20.1271395 L19.9879535,19.431314 C20.3205349,19.3030116 20.6948721,19.4686744 20.8232791,19.8013605 L23.3924651,26.4565465 C23.5208721,26.7892326 23.3552093,27.1635698 23.0225233,27.2919767 L21.2206395,27.9870698 C20.8879535,28.1154767 20.5136163,27.9499186 20.3852093,27.6172326 L17.8165465,20.9623605 C17.6881395,20.6297791 17.8538023,20.2554419 18.1863837,20.1271395 Z" id="Fill-32" fill="#147853"></path>
                <path d="M14.4800721,15.5818814 L14.4926721,15.6142814 L14.4800721,15.5818814 Z M16.1780093,11.8329209 L16.1444093,11.8455209 L16.1459093,11.8455209 L16.1780093,11.8329209 Z M18.2853837,11.7981628 C17.6077674,11.4983372 16.8150349,11.4557442 16.0693953,11.7393488 L16.0425,11.7497093 C15.3011512,12.0402209 14.7451395,12.6036628 14.4457326,13.2792907 C14.145907,13.9568023 14.1027907,14.7491163 14.3865,15.4947558 L14.3967558,15.5217558 C14.6877907,16.2639419 15.2512326,16.8195349 15.9268605,17.1188372 C16.6078256,17.4202326 17.4049535,17.4628256 18.1540465,17.1732558 C18.9032442,16.883686 19.4651163,16.3178372 19.7665116,15.6373953 C20.0678023,14.9563256 20.1098721,14.1596163 19.8213488,13.4106279 C19.5317791,12.6614302 18.9659302,12.0994535 18.2853837,11.7981628 Z M15.934186,11.3929535 C16.7768372,11.0716744 17.6709767,11.119186 18.4353488,11.4572093 C19.2030698,11.7972209 19.8419651,12.4311977 20.1681628,13.2762558 C20.4940465,14.1219419 20.4470581,15.0200581 20.1074651,15.7872558 C19.7674535,16.5549767 19.1334767,17.1938721 18.288314,17.5201744 C17.4426279,17.8468953 16.5441977,17.7993837 15.7768953,17.4598953 C15.0091744,17.1198837 14.3698605,16.4864302 14.0439767,15.6407442 L14.0401047,15.6299651 C13.7187209,14.787314 13.7667558,13.893593 14.1047791,13.1293256 C14.4447907,12.3616047 15.0787674,11.7227093 15.923407,11.3969302 L15.934186,11.3929535 Z" id="Fill-33" fill="#CCCCCC"></path>
                <path d="M19.100093,26.4325814 C19.100093,30.287407 20.7350581,33.0918488 24.4106163,34.2524302 L24.4106163,18.3310116 C20.7379884,19.4873023 19.100093,22.5757674 19.100093,26.4325814" id="Fill-34" fill="#2CC28C"></path>
                <path d="M25.5344651,34.0335 C25.9891744,34.1765581 26.2414884,34.6620349 26.0983256,35.1166395 C25.9553721,35.5713488 25.4697907,35.8236628 25.0150814,35.6806047 C23.0000233,35.0447442 21.3048837,33.7894535 20.1138488,32.1648488 C18.922814,30.5397209 18.2358837,28.5456977 18.2358837,26.4325814 C18.2358837,24.3185233 18.9237558,22.3239767 20.1157326,20.697907 C21.3068721,19.0737209 23.0049419,17.8185349 25.0245,17.1825698 C25.4791047,17.0409767 25.9631163,17.2947558 26.1047093,17.7494651 C26.246407,18.2041744 25.9926279,18.688186 25.5379186,18.8296744 C23.8795116,19.352093 22.4846163,20.3828023 21.5062326,21.7168953 C20.5282674,23.0504651 19.964407,24.6908721 19.964407,26.4325814 C19.964407,28.1738721 20.5278488,29.8135465 21.5042442,31.1457558 C22.4811628,32.4788023 23.8750116,33.5097209 25.5344651,34.0335" id="Fill-35" fill="#147853"></path>
                <path d="M7.9917907,14.2346512 C7.85710465,14.4301395 7.58856977,14.4791163 7.3930814,14.3444302 C7.19759302,14.2096395 7.14861628,13.9412093 7.28340698,13.7457209 C7.43086047,13.5320233 7.61609302,13.3615465 7.82236047,13.2439186 L7.82183721,13.2435 C8.03783721,13.1200116 8.27748837,13.0534535 8.5234186,13.0534535 C8.77824419,13.0534535 9.02511628,13.1249302 9.24697674,13.2562674 L9.27544186,13.2747907 C9.47490698,13.3993256 9.65365116,13.5751395 9.79377907,13.7917674 C9.92323256,13.9911279 9.86682558,14.2581977 9.66746512,14.3875465 C9.468,14.5167907 9.20103488,14.4604884 9.07168605,14.2611279 C9.00209302,14.1537558 8.91732558,14.0676279 8.82617442,14.008814 L8.80806977,13.9989767 C8.71943023,13.9465465 8.62189535,13.9176628 8.5234186,13.9176628 C8.42839535,13.9176628 8.33431395,13.9441395 8.25006977,13.9920698 L8.24954651,13.9916512 L8.2485,13.9920698 C8.15347674,14.0459651 8.06483721,14.1287442 7.9917907,14.2346512" id="Fill-36" fill="#147853"></path>
            </g>
            <path d="M73.928,20.704 L73.928,32 L72.104,32 L72.104,20.704 L73.928,20.704 Z M79.032,23.072 C80.0666718,23.072 80.8959969,23.3359974 81.52,23.864 C82.1440031,24.3920026 82.5253326,25.0986622 82.664,25.984 L80.936,25.984 C80.861333,25.5039976 80.6560017,25.1173348 80.32,24.824 C79.9839983,24.5306652 79.5386694,24.384 78.984,24.384 C78.525331,24.384 78.1706679,24.4933322 77.92,24.712 C77.6693321,24.9306678 77.544,25.2266648 77.544,25.6 C77.544,25.8773347 77.6346658,26.1013325 77.816,26.272 C77.9973342,26.4426675 78.2239986,26.5759995 78.496,26.672 C78.7680014,26.7680005 79.1546642,26.8746661 79.656,26.992 C80.3173366,27.1413341 80.8533313,27.2959992 81.264,27.456 C81.6746687,27.6160008 82.0266652,27.8693316 82.32,28.216 C82.6133348,28.5626684 82.76,29.0346637 82.76,29.632 C82.76,30.3680037 82.4800028,30.965331 81.92,31.424 C81.3599972,31.882669 80.6053381,32.112 79.656,32.112 C78.5573278,32.112 77.6693367,31.8560026 76.992,31.344 C76.3146633,30.8319974 75.9066674,30.1173379 75.768,29.2 L77.544,29.2 C77.5973336,29.6800024 77.8106648,30.0693318 78.184,30.368 C78.5573352,30.6666682 79.047997,30.816 79.656,30.816 C80.0933355,30.816 80.4373321,30.7013345 80.688,30.472 C80.9386679,30.2426655 81.064,29.9520018 81.064,29.6 C81.064,29.2906651 80.968001,29.0453342 80.776,28.864 C80.583999,28.6826658 80.3440014,28.5413338 80.056,28.44 C79.7679986,28.3386662 79.3733358,28.2346672 78.872,28.128 C78.2319968,27.9786659 77.712002,27.8293341 77.312,27.68 C76.911998,27.5306659 76.5706681,27.2880017 76.288,26.952 C76.0053319,26.6159983 75.864,26.1600029 75.864,25.584 C75.864,24.8373296 76.1439972,24.2320023 76.704,23.768 C77.2640028,23.3039977 78.039995,23.072 79.032,23.072 Z M87.48,23.072 C88.5146718,23.072 89.3439969,23.3359974 89.968,23.864 C90.5920031,24.3920026 90.9733326,25.0986622 91.112,25.984 L89.384,25.984 C89.309333,25.5039976 89.1040017,25.1173348 88.768,24.824 C88.4319983,24.5306652 87.9866694,24.384 87.432,24.384 C86.973331,24.384 86.6186679,24.4933322 86.368,24.712 C86.1173321,24.9306678 85.992,25.2266648 85.992,25.6 C85.992,25.8773347 86.0826658,26.1013325 86.264,26.272 C86.4453342,26.4426675 86.6719986,26.5759995 86.944,26.672 C87.2160014,26.7680005 87.6026642,26.8746661 88.104,26.992 C88.7653366,27.1413341 89.3013313,27.2959992 89.712,27.456 C90.1226687,27.6160008 90.4746652,27.8693316 90.768,28.216 C91.0613348,28.5626684 91.208,29.0346637 91.208,29.632 C91.208,30.3680037 90.9280028,30.965331 90.368,31.424 C89.8079972,31.882669 89.0533381,32.112 88.104,32.112 C87.0053278,32.112 86.1173367,31.8560026 85.44,31.344 C84.7626633,30.8319974 84.3546674,30.1173379 84.216,29.2 L85.992,29.2 C86.0453336,29.6800024 86.2586648,30.0693318 86.632,30.368 C87.0053352,30.6666682 87.495997,30.816 88.104,30.816 C88.5413355,30.816 88.8853321,30.7013345 89.136,30.472 C89.3866679,30.2426655 89.512,29.9520018 89.512,29.6 C89.512,29.2906651 89.416001,29.0453342 89.224,28.864 C89.031999,28.6826658 88.7920014,28.5413338 88.504,28.44 C88.2159986,28.3386662 87.8213358,28.2346672 87.32,28.128 C86.6799968,27.9786659 86.160002,27.8293341 85.76,27.68 C85.359998,27.5306659 85.0186681,27.2880017 84.736,26.952 C84.4533319,26.6159983 84.312,26.1600029 84.312,25.584 C84.312,24.8373296 84.5919972,24.2320023 85.152,23.768 C85.7120028,23.3039977 86.487995,23.072 87.48,23.072 Z M101.16,23.184 L101.16,32 L99.32,32 L99.32,30.08 C99.0959989,30.7306699 98.7066694,31.2346649 98.152,31.592 C97.5973306,31.9493351 96.9520037,32.128 96.216,32.128 C95.1919949,32.128 94.3706698,31.7973366 93.752,31.136 C93.1333302,30.4746634 92.824,29.5306728 92.824,28.304 L92.824,23.184 L94.648,23.184 L94.648,28.112 C94.648,28.912004 94.8506646,29.5279978 95.256,29.96 C95.6613354,30.3920022 96.2159965,30.608 96.92,30.608 C97.645337,30.608 98.2266645,30.3733357 98.664,29.904 C99.1013355,29.4346643 99.32,28.7520045 99.32,27.856 L99.32,23.184 L101.16,23.184 Z M111.544,27.168 C111.544,27.4666682 111.522667,27.7279989 111.48,27.952 L104.696,27.952 C104.728,28.8586712 104.978664,29.5306645 105.448,29.968 C105.917336,30.4053355 106.498663,30.624 107.192,30.624 C107.800003,30.624 108.314665,30.4693349 108.736,30.16 C109.157335,29.8506651 109.416,29.4400026 109.512,28.928 L111.464,28.928 C111.346666,29.5466698 111.101335,30.0959976 110.728,30.576 C110.354665,31.0560024 109.869336,31.4319986 109.272,31.704 C108.674664,31.9760014 108.008004,32.112 107.272,32.112 C106.418662,32.112 105.664003,31.9306685 105.008,31.568 C104.351997,31.2053315 103.837335,30.6826701 103.464,30 C103.090665,29.3173299 102.904,28.5120046 102.904,27.584 C102.904,26.6666621 103.090665,25.8666701 103.464,25.184 C103.837335,24.5013299 104.351997,23.9786685 105.008,23.616 C105.664003,23.2533315 106.418662,23.072 107.272,23.072 C108.136004,23.072 108.890663,23.2506649 109.536,23.608 C110.181337,23.9653351 110.677332,24.4559969 111.024,25.08 C111.370668,25.7040031 111.544,26.3999962 111.544,27.168 Z M109.704,27.12 C109.725333,26.5439971 109.626668,26.0613353 109.408,25.672 C109.189332,25.2826647 108.890669,24.9946676 108.512,24.808 C108.133331,24.6213324 107.720002,24.528 107.272,24.528 C106.55733,24.528 105.960002,24.7466645 105.48,25.184 C104.999998,25.6213355 104.738667,26.2666624 104.696,27.12 L109.704,27.12 Z M122.28,20.704 L122.28,32 L120.44,32 L120.44,26.928 L115.128,26.928 L115.128,32 L113.304,32 L113.304,20.704 L115.128,20.704 L115.128,25.44 L120.44,25.44 L120.44,20.704 L122.28,20.704 Z M132.616,23.184 L132.616,32 L130.776,32 L130.776,30.08 C130.551999,30.7306699 130.162669,31.2346649 129.608,31.592 C129.053331,31.9493351 128.408004,32.128 127.672,32.128 C126.647995,32.128 125.82667,31.7973366 125.208,31.136 C124.58933,30.4746634 124.28,29.5306728 124.28,28.304 L124.28,23.184 L126.104,23.184 L126.104,28.112 C126.104,28.912004 126.306665,29.5279978 126.712,29.96 C127.117335,30.3920022 127.671996,30.608 128.376,30.608 C129.101337,30.608 129.682664,30.3733357 130.12,29.904 C130.557336,29.4346643 130.776,28.7520045 130.776,27.856 L130.776,23.184 L132.616,23.184 Z M139.736,23.04 C140.760005,23.04 141.58133,23.3706634 142.2,24.032 C142.81867,24.6933366 143.128,25.6373272 143.128,26.864 L143.128,32 L141.304,32 L141.304,27.056 C141.304,26.2666627 141.101335,25.6560022 140.696,25.224 C140.290665,24.7919978 139.736004,24.576 139.032,24.576 C138.306663,24.576 137.725336,24.8079977 137.288,25.272 C136.850664,25.7360023 136.632,26.4159955 136.632,27.312 L136.632,32 L134.808,32 L134.808,23.184 L136.632,23.184 L136.632,25.12 C136.866668,24.4586634 137.261331,23.9466685 137.816,23.584 C138.370669,23.2213315 139.010663,23.04 139.736,23.04 Z M149.688,30.416 L149.688,32 L148.568,32 C147.629329,32 146.917336,31.7733356 146.432,31.32 C145.946664,30.8666644 145.704,30.1120053 145.704,29.056 L145.704,24.736 L144.44,24.736 L144.44,23.184 L145.704,23.184 L145.704,20.992 L147.544,20.992 L147.544,23.184 L149.672,23.184 L149.672,24.736 L147.544,24.736 L147.544,29.088 C147.544,29.5893358 147.637332,29.935999 147.824,30.128 C148.010668,30.320001 148.338664,30.416 148.808,30.416 L149.688,30.416 Z" id="Title" fill="#0D4D35"></path>
            <path d="M165.624,30.864 L169.624,30.864 L169.624,32 L164.168,32 L164.168,20.72 L165.624,20.72 L165.624,30.864 Z M179.192,27.12 C179.192,27.4293349 179.170667,27.6959989 179.128,27.92 L172.104,27.92 C172.136,28.9226717 172.421331,29.6746642 172.96,30.176 C173.498669,30.6773358 174.157329,30.928 174.936,30.928 C175.640004,30.928 176.229331,30.7493351 176.704,30.392 C177.178669,30.0346649 177.469333,29.5573363 177.576,28.96 L179.128,28.96 C179.021333,29.568003 178.784002,30.1119976 178.416,30.592 C178.047998,31.0720024 177.57067,31.445332 176.984,31.712 C176.39733,31.978668 175.736004,32.112 175,32.112 C174.157329,32.112 173.41067,31.9306685 172.76,31.568 C172.10933,31.2053315 171.600002,30.6853367 171.232,30.008 C170.863998,29.3306633 170.68,28.5333379 170.68,27.616 C170.68,26.6986621 170.863998,25.8986701 171.232,25.216 C171.600002,24.5333299 172.10933,24.0106685 172.76,23.648 C173.41067,23.2853315 174.157329,23.104 175,23.104 C175.853338,23.104 176.59733,23.2853315 177.232,23.648 C177.86667,24.0106685 178.351998,24.495997 178.688,25.104 C179.024002,25.712003 179.192,26.3839963 179.192,27.12 Z M177.72,27.216 C177.752,26.5653301 177.645335,26.0213355 177.4,25.584 C177.154665,25.1466645 176.818669,24.8213344 176.392,24.608 C175.965331,24.3946656 175.501336,24.288 175,24.288 C174.199996,24.288 173.528003,24.5359975 172.984,25.032 C172.439997,25.5280025 172.146667,26.2559952 172.104,27.216 L177.72,27.216 Z M185.288,30.72 L185.288,32 L184.2,32 C183.303996,32 182.634669,31.7866688 182.192,31.36 C181.749331,30.9333312 181.528,30.2186717 181.528,29.216 L181.528,24.48 L180.216,24.48 L180.216,23.216 L181.528,23.216 L181.528,21.024 L183,21.024 L183,23.216 L185.272,23.216 L185.272,24.48 L183,24.48 L183,29.248 C183,29.8133362 183.103999,30.199999 183.312,30.408 C183.520001,30.616001 183.879997,30.72 184.392,30.72 L185.288,30.72 Z M187.976,19.392 C188.093334,19.9040026 188.152,20.3946643 188.152,20.864 C188.152,21.4613363 188.016001,21.9119985 187.744,22.216 C187.471999,22.5200015 187.069336,22.672 186.536,22.672 L186.536,22.016 C186.813335,22.016 187.010666,21.9440007 187.128,21.8 C187.245334,21.6559993 187.304,21.4346682 187.304,21.136 L187.304,20.768 L186.504,20.768 L186.504,19.392 L187.976,19.392 Z M192.664,23.104 C193.656005,23.104 194.45333,23.3626641 195.056,23.88 C195.65867,24.3973359 196.023999,25.093329 196.152,25.968 L194.76,25.968 C194.696,25.4453307 194.480002,25.0160017 194.112,24.68 C193.743998,24.3439983 193.25067,24.176 192.632,24.176 C192.109331,24.176 191.701335,24.3013321 191.408,24.552 C191.114665,24.8026679 190.968,25.1413312 190.968,25.568 C190.968,25.8880016 191.066666,26.1466657 191.264,26.344 C191.461334,26.5413343 191.706665,26.6906662 192,26.792 C192.293335,26.8933338 192.695997,27.0026661 193.208,27.12 C193.85867,27.2693341 194.383998,27.4213326 194.784,27.576 C195.184002,27.7306674 195.525332,27.978665 195.808,28.32 C196.090668,28.661335 196.232,29.1199971 196.232,29.696 C196.232,30.4106702 195.962669,30.9919978 195.424,31.44 C194.885331,31.8880022 194.168004,32.112 193.272,32.112 C192.226661,32.112 191.373337,31.8613358 190.712,31.36 C190.050663,30.8586642 189.661334,30.1600045 189.544,29.264 L190.952,29.264 C191.005334,29.797336 191.237331,30.2293317 191.648,30.56 C192.058669,30.8906683 192.599997,31.056 193.272,31.056 C193.773336,31.056 194.165332,30.9280013 194.448,30.672 C194.730668,30.4159987 194.872,30.0800021 194.872,29.664 C194.872,29.322665 194.770668,29.0506677 194.568,28.848 C194.365332,28.6453323 194.114668,28.4906672 193.816,28.384 C193.517332,28.2773328 193.106669,28.1653339 192.584,28.048 C191.93333,27.8986659 191.413335,27.7493341 191.024,27.6 C190.634665,27.4506659 190.304001,27.213335 190.032,26.888 C189.759999,26.562665 189.624,26.1226694 189.624,25.568 C189.624,24.8319963 189.895997,24.2373356 190.44,23.784 C190.984003,23.3306644 191.725329,23.104 192.664,23.104 Z M206.024,21.136 C205.245329,21.1253333 204.704002,21.2586653 204.4,21.536 C204.095998,21.8133347 203.944,22.2933299 203.944,22.976 L203.944,23.216 L206.024,23.216 L206.024,24.496 L203.944,24.496 L203.944,32 L202.488,32 L202.488,24.496 L201.224,24.496 L201.224,23.216 L202.488,23.216 L202.488,22.864 C202.488,20.7626562 203.666655,19.7599995 206.024,19.856 L206.024,21.136 Z M215.416,23.216 L215.416,32 L213.96,32 L213.96,29.936 C213.735999,30.6506702 213.33867,31.1973314 212.768,31.576 C212.19733,31.9546686 211.533337,32.144 210.776,32.144 C209.762662,32.144 208.941336,31.8160033 208.312,31.16 C207.682664,30.5039967 207.368,29.5626728 207.368,28.336 L207.368,23.216 L208.824,23.216 L208.824,28.192 C208.824,29.066671 209.047998,29.741331 209.496,30.216 C209.944002,30.690669 210.551996,30.928 211.32,30.928 C212.120004,30.928 212.759998,30.6693359 213.24,30.152 C213.720002,29.6346641 213.96,28.880005 213.96,27.888 L213.96,23.216 L215.416,23.216 Z M222.376,23.072 C223.400005,23.072 224.226664,23.3999967 224.856,24.056 C225.485336,24.7120033 225.8,25.6586605 225.8,26.896 L225.8,32 L224.344,32 L224.344,27.024 C224.344,26.149329 224.120002,25.4773357 223.672,25.008 C223.223998,24.5386643 222.616004,24.304 221.848,24.304 C221.047996,24.304 220.408002,24.5626641 219.928,25.08 C219.447998,25.5973359 219.208,26.351995 219.208,27.344 L219.208,32 L217.752,32 L217.752,23.216 L219.208,23.216 L219.208,25.296 C219.432001,24.5813298 219.82933,24.0320019 220.4,23.648 C220.97067,23.2639981 221.62933,23.072 222.376,23.072 Z M231.64,23.104 C232.493338,23.104 233.215997,23.3173312 233.808,23.744 C234.400003,24.1706688 234.813332,24.7413298 235.048,25.456 L235.048,20.16 L236.504,20.16 L236.504,32 L235.048,32 L235.048,29.76 C234.813332,30.4746702 234.400003,31.0453312 233.808,31.472 C233.215997,31.8986688 232.493338,32.112 231.64,32.112 C230.861329,32.112 230.168003,31.9306685 229.56,31.568 C228.951997,31.2053315 228.474668,30.6853367 228.128,30.008 C227.781332,29.3306633 227.608,28.5333379 227.608,27.616 C227.608,26.6986621 227.781332,25.8986701 228.128,25.216 C228.474668,24.5333299 228.951997,24.0106685 229.56,23.648 C230.168003,23.2853315 230.861329,23.104 231.64,23.104 Z M232.056,24.4 C231.159996,24.4 230.442669,24.6853305 229.904,25.256 C229.365331,25.8266695 229.096,26.6133283 229.096,27.616 C229.096,28.6186717 229.365331,29.4053305 229.904,29.976 C230.442669,30.5466695 231.159996,30.832 232.056,30.832 C232.632003,30.832 233.146664,30.698668 233.6,30.432 C234.053336,30.165332 234.407999,29.7893358 234.664,29.304 C234.920001,28.8186642 235.048,28.2560032 235.048,27.616 C235.048,26.9759968 234.920001,26.4106691 234.664,25.92 C234.407999,25.4293309 234.053336,25.0533346 233.6,24.792 C233.146664,24.5306654 232.632003,24.4 232.056,24.4 Z M242.52,20.64 C242.52,20.373332 242.610666,20.1573342 242.792,19.992 C242.973334,19.8266658 243.213332,19.744 243.512,19.744 C243.810668,19.744 244.050666,19.8266658 244.232,19.992 C244.413334,20.1573342 244.504,20.373332 244.504,20.64 C244.504,20.906668 244.413334,21.1226658 244.232,21.288 C244.050666,21.4533342 243.810668,21.536 243.512,21.536 C243.213332,21.536 242.973334,21.4533342 242.792,21.288 C242.610666,21.1226658 242.52,20.906668 242.52,20.64 Z M244.232,23.216 L244.232,32 L242.776,32 L242.776,23.216 L244.232,23.216 Z M249.32,23.104 C250.312005,23.104 251.10933,23.3626641 251.712,23.88 C252.31467,24.3973359 252.679999,25.093329 252.808,25.968 L251.416,25.968 C251.352,25.4453307 251.136002,25.0160017 250.768,24.68 C250.399998,24.3439983 249.90667,24.176 249.288,24.176 C248.765331,24.176 248.357335,24.3013321 248.064,24.552 C247.770665,24.8026679 247.624,25.1413312 247.624,25.568 C247.624,25.8880016 247.722666,26.1466657 247.92,26.344 C248.117334,26.5413343 248.362665,26.6906662 248.656,26.792 C248.949335,26.8933338 249.351997,27.0026661 249.864,27.12 C250.51467,27.2693341 251.039998,27.4213326 251.44,27.576 C251.840002,27.7306674 252.181332,27.978665 252.464,28.32 C252.746668,28.661335 252.888,29.1199971 252.888,29.696 C252.888,30.4106702 252.618669,30.9919978 252.08,31.44 C251.541331,31.8880022 250.824004,32.112 249.928,32.112 C248.882661,32.112 248.029337,31.8613358 247.368,31.36 C246.706663,30.8586642 246.317334,30.1600045 246.2,29.264 L247.608,29.264 C247.661334,29.797336 247.893331,30.2293317 248.304,30.56 C248.714669,30.8906683 249.255997,31.056 249.928,31.056 C250.429336,31.056 250.821332,30.9280013 251.104,30.672 C251.386668,30.4159987 251.528,30.0800021 251.528,29.664 C251.528,29.322665 251.426668,29.0506677 251.224,28.848 C251.021332,28.6453323 250.770668,28.4906672 250.472,28.384 C250.173332,28.2773328 249.762669,28.1653339 249.24,28.048 C248.58933,27.8986659 248.069335,27.7493341 247.68,27.6 C247.290665,27.4506659 246.960001,27.213335 246.688,26.888 C246.415999,26.562665 246.28,26.1226694 246.28,25.568 C246.28,24.8319963 246.551997,24.2373356 247.096,23.784 C247.640003,23.3306644 248.381329,23.104 249.32,23.104 Z M257.592,23.104 C258.584005,23.104 259.38133,23.3626641 259.984,23.88 C260.58667,24.3973359 260.951999,25.093329 261.08,25.968 L259.688,25.968 C259.624,25.4453307 259.408002,25.0160017 259.04,24.68 C258.671998,24.3439983 258.17867,24.176 257.56,24.176 C257.037331,24.176 256.629335,24.3013321 256.336,24.552 C256.042665,24.8026679 255.896,25.1413312 255.896,25.568 C255.896,25.8880016 255.994666,26.1466657 256.192,26.344 C256.389334,26.5413343 256.634665,26.6906662 256.928,26.792 C257.221335,26.8933338 257.623997,27.0026661 258.136,27.12 C258.78667,27.2693341 259.311998,27.4213326 259.712,27.576 C260.112002,27.7306674 260.453332,27.978665 260.736,28.32 C261.018668,28.661335 261.16,29.1199971 261.16,29.696 C261.16,30.4106702 260.890669,30.9919978 260.352,31.44 C259.813331,31.8880022 259.096004,32.112 258.2,32.112 C257.154661,32.112 256.301337,31.8613358 255.64,31.36 C254.978663,30.8586642 254.589334,30.1600045 254.472,29.264 L255.88,29.264 C255.933334,29.797336 256.165331,30.2293317 256.576,30.56 C256.986669,30.8906683 257.527997,31.056 258.2,31.056 C258.701336,31.056 259.093332,30.9280013 259.376,30.672 C259.658668,30.4159987 259.8,30.0800021 259.8,29.664 C259.8,29.322665 259.698668,29.0506677 259.496,28.848 C259.293332,28.6453323 259.042668,28.4906672 258.744,28.384 C258.445332,28.2773328 258.034669,28.1653339 257.512,28.048 C256.86133,27.8986659 256.341335,27.7493341 255.952,27.6 C255.562665,27.4506659 255.232001,27.213335 254.96,26.888 C254.687999,26.562665 254.552,26.1226694 254.552,25.568 C254.552,24.8319963 254.823997,24.2373356 255.368,23.784 C255.912003,23.3306644 256.653329,23.104 257.592,23.104 Z M270.92,23.216 L270.92,32 L269.464,32 L269.464,29.936 C269.239999,30.6506702 268.84267,31.1973314 268.272,31.576 C267.70133,31.9546686 267.037337,32.144 266.28,32.144 C265.266662,32.144 264.445336,31.8160033 263.816,31.16 C263.186664,30.5039967 262.872,29.5626728 262.872,28.336 L262.872,23.216 L264.328,23.216 L264.328,28.192 C264.328,29.066671 264.551998,29.741331 265,30.216 C265.448002,30.690669 266.055996,30.928 266.824,30.928 C267.624004,30.928 268.263998,30.6693359 268.744,30.152 C269.224002,29.6346641 269.464,28.880005 269.464,27.888 L269.464,23.216 L270.92,23.216 Z M281.336,27.12 C281.336,27.4293349 281.314667,27.6959989 281.272,27.92 L274.248,27.92 C274.28,28.9226717 274.565331,29.6746642 275.104,30.176 C275.642669,30.6773358 276.301329,30.928 277.08,30.928 C277.784004,30.928 278.373331,30.7493351 278.848,30.392 C279.322669,30.0346649 279.613333,29.5573363 279.72,28.96 L281.272,28.96 C281.165333,29.568003 280.928002,30.1119976 280.56,30.592 C280.191998,31.0720024 279.71467,31.445332 279.128,31.712 C278.54133,31.978668 277.880004,32.112 277.144,32.112 C276.301329,32.112 275.55467,31.9306685 274.904,31.568 C274.25333,31.2053315 273.744002,30.6853367 273.376,30.008 C273.007998,29.3306633 272.824,28.5333379 272.824,27.616 C272.824,26.6986621 273.007998,25.8986701 273.376,25.216 C273.744002,24.5333299 274.25333,24.0106685 274.904,23.648 C275.55467,23.2853315 276.301329,23.104 277.144,23.104 C277.997338,23.104 278.74133,23.2853315 279.376,23.648 C280.01067,24.0106685 280.495998,24.495997 280.832,25.104 C281.168002,25.712003 281.336,26.3839963 281.336,27.12 Z M279.864,27.216 C279.896,26.5653301 279.789335,26.0213355 279.544,25.584 C279.298665,25.1466645 278.962669,24.8213344 278.536,24.608 C278.109331,24.3946656 277.645336,24.288 277.144,24.288 C276.343996,24.288 275.672003,24.5359975 275.128,25.032 C274.583997,25.5280025 274.290667,26.2559952 274.248,27.216 L279.864,27.216 Z M285.992,23.104 C286.984005,23.104 287.78133,23.3626641 288.384,23.88 C288.98667,24.3973359 289.351999,25.093329 289.48,25.968 L288.088,25.968 C288.024,25.4453307 287.808002,25.0160017 287.44,24.68 C287.071998,24.3439983 286.57867,24.176 285.96,24.176 C285.437331,24.176 285.029335,24.3013321 284.736,24.552 C284.442665,24.8026679 284.296,25.1413312 284.296,25.568 C284.296,25.8880016 284.394666,26.1466657 284.592,26.344 C284.789334,26.5413343 285.034665,26.6906662 285.328,26.792 C285.621335,26.8933338 286.023997,27.0026661 286.536,27.12 C287.18667,27.2693341 287.711998,27.4213326 288.112,27.576 C288.512002,27.7306674 288.853332,27.978665 289.136,28.32 C289.418668,28.661335 289.56,29.1199971 289.56,29.696 C289.56,30.4106702 289.290669,30.9919978 288.752,31.44 C288.213331,31.8880022 287.496004,32.112 286.6,32.112 C285.554661,32.112 284.701337,31.8613358 284.04,31.36 C283.378663,30.8586642 282.989334,30.1600045 282.872,29.264 L284.28,29.264 C284.333334,29.797336 284.565331,30.2293317 284.976,30.56 C285.386669,30.8906683 285.927997,31.056 286.6,31.056 C287.101336,31.056 287.493332,30.9280013 287.776,30.672 C288.058668,30.4159987 288.2,30.0800021 288.2,29.664 C288.2,29.322665 288.098668,29.0506677 287.896,28.848 C287.693332,28.6453323 287.442668,28.4906672 287.144,28.384 C286.845332,28.2773328 286.434669,28.1653339 285.912,28.048 C285.26133,27.8986659 284.741335,27.7493341 284.352,27.6 C283.962665,27.4506659 283.632001,27.213335 283.36,26.888 C283.087999,26.562665 282.952,26.1226694 282.952,25.568 C282.952,24.8319963 283.223997,24.2373356 283.768,23.784 C284.312003,23.3306644 285.053329,23.104 285.992,23.104 Z M295.208,20.64 C295.208,20.373332 295.298666,20.1573342 295.48,19.992 C295.661334,19.8266658 295.901332,19.744 296.2,19.744 C296.498668,19.744 296.738666,19.8266658 296.92,19.992 C297.101334,20.1573342 297.192,20.373332 297.192,20.64 C297.192,20.906668 297.101334,21.1226658 296.92,21.288 C296.738666,21.4533342 296.498668,21.536 296.2,21.536 C295.901332,21.536 295.661334,21.4533342 295.48,21.288 C295.298666,21.1226658 295.208,20.906668 295.208,20.64 Z M296.92,23.216 L296.92,32 L295.464,32 L295.464,23.216 L296.92,23.216 Z M303.88,23.072 C304.904005,23.072 305.730664,23.3999967 306.36,24.056 C306.989336,24.7120033 307.304,25.6586605 307.304,26.896 L307.304,32 L305.848,32 L305.848,27.024 C305.848,26.149329 305.624002,25.4773357 305.176,25.008 C304.727998,24.5386643 304.120004,24.304 303.352,24.304 C302.551996,24.304 301.912002,24.5626641 301.432,25.08 C300.951998,25.5973359 300.712,26.351995 300.712,27.344 L300.712,32 L299.256,32 L299.256,23.216 L300.712,23.216 L300.712,25.296 C300.936001,24.5813298 301.33333,24.0320019 301.904,23.648 C302.47467,23.2639981 303.13333,23.072 303.88,23.072 Z M317.688,30.72 L317.688,32 L316.6,32 C315.703996,32 315.034669,31.7866688 314.592,31.36 C314.149331,30.9333312 313.928,30.2186717 313.928,29.216 L313.928,24.48 L312.616,24.48 L312.616,23.216 L313.928,23.216 L313.928,21.024 L315.4,21.024 L315.4,23.216 L317.672,23.216 L317.672,24.48 L315.4,24.48 L315.4,29.248 C315.4,29.8133362 315.503999,30.199999 315.712,30.408 C315.920001,30.616001 316.279997,30.72 316.792,30.72 L317.688,30.72 Z M324.088,23.072 C325.112005,23.072 325.938664,23.3999967 326.568,24.056 C327.197336,24.7120033 327.512,25.6586605 327.512,26.896 L327.512,32 L326.056,32 L326.056,27.024 C326.056,26.149329 325.832002,25.4773357 325.384,25.008 C324.935998,24.5386643 324.328004,24.304 323.56,24.304 C322.759996,24.304 322.120002,24.5626641 321.64,25.08 C321.159998,25.5973359 320.92,26.351995 320.92,27.344 L320.92,32 L319.464,32 L319.464,20.16 L320.92,20.16 L320.92,25.296 C321.144001,24.5813298 321.54133,24.0320019 322.112,23.648 C322.68267,23.2639981 323.34133,23.072 324.088,23.072 Z M329.496,20.64 C329.496,20.373332 329.586666,20.1573342 329.768,19.992 C329.949334,19.8266658 330.189332,19.744 330.488,19.744 C330.786668,19.744 331.026666,19.8266658 331.208,19.992 C331.389334,20.1573342 331.48,20.373332 331.48,20.64 C331.48,20.906668 331.389334,21.1226658 331.208,21.288 C331.026666,21.4533342 330.786668,21.536 330.488,21.536 C330.189332,21.536 329.949334,21.4533342 329.768,21.288 C329.586666,21.1226658 329.496,20.906668 329.496,20.64 Z M331.208,23.216 L331.208,32 L329.752,32 L329.752,23.216 L331.208,23.216 Z M336.296,23.104 C337.288005,23.104 338.08533,23.3626641 338.688,23.88 C339.29067,24.3973359 339.655999,25.093329 339.784,25.968 L338.392,25.968 C338.328,25.4453307 338.112002,25.0160017 337.744,24.68 C337.375998,24.3439983 336.88267,24.176 336.264,24.176 C335.741331,24.176 335.333335,24.3013321 335.04,24.552 C334.746665,24.8026679 334.6,25.1413312 334.6,25.568 C334.6,25.8880016 334.698666,26.1466657 334.896,26.344 C335.093334,26.5413343 335.338665,26.6906662 335.632,26.792 C335.925335,26.8933338 336.327997,27.0026661 336.84,27.12 C337.49067,27.2693341 338.015998,27.4213326 338.416,27.576 C338.816002,27.7306674 339.157332,27.978665 339.44,28.32 C339.722668,28.661335 339.864,29.1199971 339.864,29.696 C339.864,30.4106702 339.594669,30.9919978 339.056,31.44 C338.517331,31.8880022 337.800004,32.112 336.904,32.112 C335.858661,32.112 335.005337,31.8613358 334.344,31.36 C333.682663,30.8586642 333.293334,30.1600045 333.176,29.264 L334.584,29.264 C334.637334,29.797336 334.869331,30.2293317 335.28,30.56 C335.690669,30.8906683 336.231997,31.056 336.904,31.056 C337.405336,31.056 337.797332,30.9280013 338.08,30.672 C338.362668,30.4159987 338.504,30.0800021 338.504,29.664 C338.504,29.322665 338.402668,29.0506677 338.2,28.848 C337.997332,28.6453323 337.746668,28.4906672 337.448,28.384 C337.149332,28.2773328 336.738669,28.1653339 336.216,28.048 C335.56533,27.8986659 335.045335,27.7493341 334.656,27.6 C334.266665,27.4506659 333.936001,27.213335 333.664,26.888 C333.391999,26.562665 333.256,26.1226694 333.256,25.568 C333.256,24.8319963 333.527997,24.2373356 334.072,23.784 C334.616003,23.3306644 335.357329,23.104 336.296,23.104 Z M347.224,24.992 C347.512001,24.383997 347.933331,23.9120017 348.488,23.576 C349.042669,23.2399983 349.703996,23.072 350.472,23.072 L350.472,24.656 L350.024,24.656 C349.202663,24.656 348.530669,24.8666646 348.008,25.288 C347.485331,25.7093354 347.224,26.4053285 347.224,27.376 L347.224,32 L345.768,32 L345.768,23.216 L347.224,23.216 L347.224,24.992 Z M359.992,27.12 C359.992,27.4293349 359.970667,27.6959989 359.928,27.92 L352.904,27.92 C352.936,28.9226717 353.221331,29.6746642 353.76,30.176 C354.298669,30.6773358 354.957329,30.928 355.736,30.928 C356.440004,30.928 357.029331,30.7493351 357.504,30.392 C357.978669,30.0346649 358.269333,29.5573363 358.376,28.96 L359.928,28.96 C359.821333,29.568003 359.584002,30.1119976 359.216,30.592 C358.847998,31.0720024 358.37067,31.445332 357.784,31.712 C357.19733,31.978668 356.536004,32.112 355.8,32.112 C354.957329,32.112 354.21067,31.9306685 353.56,31.568 C352.90933,31.2053315 352.400002,30.6853367 352.032,30.008 C351.663998,29.3306633 351.48,28.5333379 351.48,27.616 C351.48,26.6986621 351.663998,25.8986701 352.032,25.216 C352.400002,24.5333299 352.90933,24.0106685 353.56,23.648 C354.21067,23.2853315 354.957329,23.104 355.8,23.104 C356.653338,23.104 357.39733,23.2853315 358.032,23.648 C358.66667,24.0106685 359.151998,24.495997 359.488,25.104 C359.824002,25.712003 359.992,26.3839963 359.992,27.12 Z M358.52,27.216 C358.552,26.5653301 358.445335,26.0213355 358.2,25.584 C357.954665,25.1466645 357.618669,24.8213344 357.192,24.608 C356.765331,24.3946656 356.301336,24.288 355.8,24.288 C354.999996,24.288 354.328003,24.5359975 353.784,25.032 C353.239997,25.5280025 352.946667,26.2559952 352.904,27.216 L358.52,27.216 Z M366.744,23.104 C367.522671,23.104 368.215997,23.2853315 368.824,23.648 C369.432003,24.0106685 369.909332,24.5333299 370.256,25.216 C370.602668,25.8986701 370.776,26.6986621 370.776,27.616 C370.776,28.5333379 370.602668,29.3306633 370.256,30.008 C369.909332,30.6853367 369.432003,31.2053315 368.824,31.568 C368.215997,31.9306685 367.522671,32.112 366.744,32.112 C365.890662,32.112 365.168003,31.8960022 364.576,31.464 C363.983997,31.0319978 363.576001,30.4640035 363.352,29.76 L363.352,36.16 L361.896,36.16 L361.896,23.216 L363.352,23.216 L363.352,25.456 C363.576001,24.7519965 363.983997,24.1840022 364.576,23.752 C365.168003,23.3199978 365.890662,23.104 366.744,23.104 Z M366.328,24.4 C365.762664,24.4 365.250669,24.5306654 364.792,24.792 C364.333331,25.0533346 363.976001,25.4293309 363.72,25.92 C363.463999,26.4106691 363.336,26.9759968 363.336,27.616 C363.336,28.2560032 363.463999,28.8186642 363.72,29.304 C363.976001,29.7893358 364.333331,30.165332 364.792,30.432 C365.250669,30.698668 365.762664,30.832 366.328,30.832 C367.234671,30.832 367.957331,30.5466695 368.496,29.976 C369.034669,29.4053305 369.304,28.6186717 369.304,27.616 C369.304,26.6133283 369.034669,25.8266695 368.496,25.256 C367.957331,24.6853305 367.234671,24.4 366.328,24.4 Z M376.664,23.104 C377.506671,23.104 378.26133,23.2853315 378.928,23.648 C379.59467,24.0106685 380.117331,24.5333299 380.496,25.216 C380.874669,25.8986701 381.064,26.6986621 381.064,27.616 C381.064,28.5333379 380.874669,29.3306633 380.496,30.008 C380.117331,30.6853367 379.59467,31.2053315 378.928,31.568 C378.26133,31.9306685 377.506671,32.112 376.664,32.112 C375.821329,32.112 375.06667,31.9306685 374.4,31.568 C373.73333,31.2053315 373.208002,30.6853367 372.824,30.008 C372.439998,29.3306633 372.248,28.5333379 372.248,27.616 C372.248,26.6986621 372.439998,25.8986701 372.824,25.216 C373.208002,24.5333299 373.73333,24.0106685 374.4,23.648 C375.06667,23.2853315 375.821329,23.104 376.664,23.104 Z M376.664,24.384 C376.141331,24.384 375.658669,24.5013322 375.216,24.736 C374.773331,24.9706678 374.416001,25.3306642 374.144,25.816 C373.871999,26.3013358 373.736,26.9013298 373.736,27.616 C373.736,28.3200035 373.871999,28.9146642 374.144,29.4 C374.416001,29.8853358 374.773331,30.2453322 375.216,30.48 C375.658669,30.7146678 376.141331,30.832 376.664,30.832 C377.186669,30.832 377.669331,30.7146678 378.112,30.48 C378.554669,30.2453322 378.911999,29.8853358 379.184,29.4 C379.456001,28.9146642 379.592,28.3200035 379.592,27.616 C379.592,26.9013298 379.456001,26.3013358 379.184,25.816 C378.911999,25.3306642 378.554669,24.9706678 378.112,24.736 C377.669331,24.5013322 377.186669,24.384 376.664,24.384 Z M385.72,23.104 C386.712005,23.104 387.50933,23.3626641 388.112,23.88 C388.71467,24.3973359 389.079999,25.093329 389.208,25.968 L387.816,25.968 C387.752,25.4453307 387.536002,25.0160017 387.168,24.68 C386.799998,24.3439983 386.30667,24.176 385.688,24.176 C385.165331,24.176 384.757335,24.3013321 384.464,24.552 C384.170665,24.8026679 384.024,25.1413312 384.024,25.568 C384.024,25.8880016 384.122666,26.1466657 384.32,26.344 C384.517334,26.5413343 384.762665,26.6906662 385.056,26.792 C385.349335,26.8933338 385.751997,27.0026661 386.264,27.12 C386.91467,27.2693341 387.439998,27.4213326 387.84,27.576 C388.240002,27.7306674 388.581332,27.978665 388.864,28.32 C389.146668,28.661335 389.288,29.1199971 389.288,29.696 C389.288,30.4106702 389.018669,30.9919978 388.48,31.44 C387.941331,31.8880022 387.224004,32.112 386.328,32.112 C385.282661,32.112 384.429337,31.8613358 383.768,31.36 C383.106663,30.8586642 382.717334,30.1600045 382.6,29.264 L384.008,29.264 C384.061334,29.797336 384.293331,30.2293317 384.704,30.56 C385.114669,30.8906683 385.655997,31.056 386.328,31.056 C386.829336,31.056 387.221332,30.9280013 387.504,30.672 C387.786668,30.4159987 387.928,30.0800021 387.928,29.664 C387.928,29.322665 387.826668,29.0506677 387.624,28.848 C387.421332,28.6453323 387.170668,28.4906672 386.872,28.384 C386.573332,28.2773328 386.162669,28.1653339 385.64,28.048 C384.98933,27.8986659 384.469335,27.7493341 384.08,27.6 C383.690665,27.4506659 383.360001,27.213335 383.088,26.888 C382.815999,26.562665 382.68,26.1226694 382.68,25.568 C382.68,24.8319963 382.951997,24.2373356 383.496,23.784 C384.040003,23.3306644 384.781329,23.104 385.72,23.104 Z M390.984,20.64 C390.984,20.373332 391.074666,20.1573342 391.256,19.992 C391.437334,19.8266658 391.677332,19.744 391.976,19.744 C392.274668,19.744 392.514666,19.8266658 392.696,19.992 C392.877334,20.1573342 392.968,20.373332 392.968,20.64 C392.968,20.906668 392.877334,21.1226658 392.696,21.288 C392.514666,21.4533342 392.274668,21.536 391.976,21.536 C391.677332,21.536 391.437334,21.4533342 391.256,21.288 C391.074666,21.1226658 390.984,20.906668 390.984,20.64 Z M392.696,23.216 L392.696,32 L391.24,32 L391.24,23.216 L392.696,23.216 Z M399.224,30.72 L399.224,32 L398.136,32 C397.239996,32 396.570669,31.7866688 396.128,31.36 C395.685331,30.9333312 395.464,30.2186717 395.464,29.216 L395.464,24.48 L394.152,24.48 L394.152,23.216 L395.464,23.216 L395.464,21.024 L396.936,21.024 L396.936,23.216 L399.208,23.216 L399.208,24.48 L396.936,24.48 L396.936,29.248 C396.936,29.8133362 397.039999,30.199999 397.248,30.408 C397.456001,30.616001 397.815997,30.72 398.328,30.72 L399.224,30.72 Z M404.984,23.104 C405.826671,23.104 406.58133,23.2853315 407.248,23.648 C407.91467,24.0106685 408.437331,24.5333299 408.816,25.216 C409.194669,25.8986701 409.384,26.6986621 409.384,27.616 C409.384,28.5333379 409.194669,29.3306633 408.816,30.008 C408.437331,30.6853367 407.91467,31.2053315 407.248,31.568 C406.58133,31.9306685 405.826671,32.112 404.984,32.112 C404.141329,32.112 403.38667,31.9306685 402.72,31.568 C402.05333,31.2053315 401.528002,30.6853367 401.144,30.008 C400.759998,29.3306633 400.568,28.5333379 400.568,27.616 C400.568,26.6986621 400.759998,25.8986701 401.144,25.216 C401.528002,24.5333299 402.05333,24.0106685 402.72,23.648 C403.38667,23.2853315 404.141329,23.104 404.984,23.104 Z M404.984,24.384 C404.461331,24.384 403.978669,24.5013322 403.536,24.736 C403.093331,24.9706678 402.736001,25.3306642 402.464,25.816 C402.191999,26.3013358 402.056,26.9013298 402.056,27.616 C402.056,28.3200035 402.191999,28.9146642 402.464,29.4 C402.736001,29.8853358 403.093331,30.2453322 403.536,30.48 C403.978669,30.7146678 404.461331,30.832 404.984,30.832 C405.506669,30.832 405.989331,30.7146678 406.432,30.48 C406.874669,30.2453322 407.231999,29.8853358 407.504,29.4 C407.776001,28.9146642 407.912,28.3200035 407.912,27.616 C407.912,26.9013298 407.776001,26.3013358 407.504,25.816 C407.231999,25.3306642 406.874669,24.9706678 406.432,24.736 C405.989331,24.5013322 405.506669,24.384 404.984,24.384 Z M412.744,24.992 C413.032001,24.383997 413.453331,23.9120017 414.008,23.576 C414.562669,23.2399983 415.223996,23.072 415.992,23.072 L415.992,24.656 L415.544,24.656 C414.722663,24.656 414.050669,24.8666646 413.528,25.288 C413.005331,25.7093354 412.744,26.4053285 412.744,27.376 L412.744,32 L411.288,32 L411.288,23.216 L412.744,23.216 L412.744,24.992 Z M418.04,23.216 L420.888,30.128 L423.528,23.216 L425.144,23.216 L419.928,36.16 L418.28,36.16 L420.104,31.856 L416.408,23.216 L418.04,23.216 Z" id="Text" fill="#212529"></path>
        </g>
    </g>
</svg>