<svg width="130" height="25" viewBox="0 0 130 25" fill="none" xmlns="http://www.w3.org/2000/svg">
<rect width="130" height="25" rx="2" fill="#FF625A"/>
<path d="M11.457 17V8.46875H14.5215C15.6191 8.46875 16.4531 8.66992 17.0234 9.07227C17.5977 9.47461 17.8848 10.0586 17.8848 10.8242C17.8848 11.2656 17.7832 11.6426 17.5801 11.9551C17.377 12.2676 17.0781 12.498 16.6836 12.6465C17.1289 12.7637 17.4707 12.9824 17.709 13.3027C17.9473 13.623 18.0664 14.0137 18.0664 14.4746C18.0664 15.3105 17.8008 15.9395 17.2695 16.3613C16.7422 16.7793 15.959 16.9922 14.9199 17H11.457ZM13.5137 13.373V15.418H14.8613C15.2324 15.418 15.5176 15.334 15.7168 15.166C15.916 14.9941 16.0156 14.7539 16.0156 14.4453C16.0156 13.7344 15.6621 13.377 14.9551 13.373H13.5137ZM13.5137 12.0254H14.5859C15.0352 12.0215 15.3555 11.9395 15.5469 11.7793C15.7383 11.6191 15.834 11.3828 15.834 11.0703C15.834 10.7109 15.7305 10.4531 15.5234 10.2969C15.3164 10.1367 14.9824 10.0566 14.5215 10.0566H13.5137V12.0254ZM24.4941 13.3848H21.2598V15.418H25.0801V17H19.2031V8.46875H25.0918V10.0566H21.2598V11.8555H24.4941V13.3848ZM32.8203 14.1113C32.793 14.7051 32.6328 15.2305 32.3398 15.6875C32.0469 16.1406 31.6348 16.4922 31.1035 16.7422C30.5762 16.9922 29.9727 17.1172 29.293 17.1172C28.1719 17.1172 27.2891 16.752 26.6445 16.0215C26 15.291 25.6777 14.2598 25.6777 12.9277V12.5059C25.6777 11.6699 25.8223 10.9395 26.1113 10.3145C26.4043 9.68555 26.8242 9.20117 27.3711 8.86133C27.918 8.51758 28.5508 8.3457 29.2695 8.3457C30.3047 8.3457 31.1367 8.61914 31.7656 9.16602C32.3945 9.70898 32.752 10.459 32.8379 11.416H30.7871C30.7715 10.8965 30.6406 10.5234 30.3945 10.2969C30.1484 10.0703 29.7734 9.95703 29.2695 9.95703C28.7578 9.95703 28.3828 10.1484 28.1445 10.5312C27.9062 10.9141 27.7812 11.5254 27.7695 12.3652V12.9688C27.7695 13.8789 27.8828 14.5293 28.1094 14.9199C28.3398 15.3105 28.7344 15.5059 29.293 15.5059C29.7656 15.5059 30.127 15.3945 30.377 15.1719C30.627 14.9492 30.7598 14.5957 30.7754 14.1113H32.8203ZM41.0176 12.9102C41.0176 13.7422 40.8633 14.4785 40.5547 15.1191C40.2461 15.7598 39.8066 16.2539 39.2363 16.6016C38.6699 16.9453 38.0234 17.1172 37.2969 17.1172C36.5703 17.1172 35.9258 16.9512 35.3633 16.6191C34.8008 16.2832 34.3613 15.8047 34.0449 15.1836C33.7324 14.5625 33.5684 13.8496 33.5527 13.0449V12.5645C33.5527 11.7285 33.7051 10.9922 34.0098 10.3555C34.3184 9.71484 34.7578 9.2207 35.3281 8.87305C35.9023 8.52539 36.5547 8.35156 37.2852 8.35156C38.0078 8.35156 38.6523 8.52344 39.2188 8.86719C39.7852 9.21094 40.2246 9.70117 40.5371 10.3379C40.8535 10.9707 41.0137 11.6973 41.0176 12.5176V12.9102ZM38.9258 12.5527C38.9258 11.7051 38.7832 11.0625 38.498 10.625C38.2168 10.1836 37.8125 9.96289 37.2852 9.96289C36.2539 9.96289 35.709 10.7363 35.6504 12.2832L35.6445 12.9102C35.6445 13.7461 35.7832 14.3887 36.0605 14.8379C36.3379 15.2871 36.75 15.5117 37.2969 15.5117C37.8164 15.5117 38.2168 15.291 38.498 14.8496C38.7793 14.4082 38.9219 13.7734 38.9258 12.9453V12.5527ZM44.7793 8.46875L46.6836 14.4043L48.582 8.46875H51.2891V17H49.2266V15.0078L49.4258 10.9297L47.3633 17H46.0039L43.9355 10.9238L44.1348 15.0078V17H42.0781V8.46875H44.7793ZM57.8926 13.3848H54.6582V15.418H58.4785V17H52.6016V8.46875H58.4902V10.0566H54.6582V11.8555H57.8926V13.3848ZM67.1504 15.4062H64.332L63.8398 17H61.6426L64.7715 8.46875H66.7051L69.8574 17H67.6484L67.1504 15.4062ZM64.8242 13.8184H66.6582L65.7383 10.8594L64.8242 13.8184ZM75.5293 14.1055V17H73.4727V8.46875H76.877C77.5293 8.46875 78.1055 8.58984 78.6055 8.83203C79.1094 9.07031 79.498 9.41211 79.7715 9.85742C80.0488 10.2988 80.1875 10.8008 80.1875 11.3633C80.1875 12.1953 79.8887 12.8613 79.291 13.3613C78.6973 13.8574 77.8809 14.1055 76.8418 14.1055H75.5293ZM75.5293 12.5176H76.877C77.2754 12.5176 77.5781 12.418 77.7852 12.2188C77.9961 12.0195 78.1016 11.7383 78.1016 11.375C78.1016 10.9766 77.9941 10.6582 77.7793 10.4199C77.5645 10.1816 77.2715 10.0605 76.9004 10.0566H75.5293V12.5176ZM85.0918 15.4062H82.2734L81.7812 17H79.584L82.7129 8.46875H84.6465L87.7988 17H85.5898L85.0918 15.4062ZM82.7656 13.8184H84.5996L83.6797 10.8594L82.7656 13.8184ZM94.4199 10.0566H91.8594V17H89.8027V10.0566H87.2891V8.46875H94.4199V10.0566ZM98.4629 13.9883H97.3496V17H95.293V8.46875H98.6504C99.6621 8.46875 100.453 8.69336 101.023 9.14258C101.594 9.5918 101.879 10.2266 101.879 11.0469C101.879 11.6406 101.758 12.1328 101.516 12.5234C101.277 12.9141 100.902 13.2305 100.391 13.4727L102.172 16.9121V17H99.9688L98.4629 13.9883ZM97.3496 12.4004H98.6504C99.041 12.4004 99.334 12.2988 99.5293 12.0957C99.7285 11.8887 99.8281 11.6016 99.8281 11.2344C99.8281 10.8672 99.7285 10.5801 99.5293 10.373C99.3301 10.1621 99.0371 10.0566 98.6504 10.0566H97.3496V12.4004ZM110.346 12.9102C110.346 13.7422 110.191 14.4785 109.883 15.1191C109.574 15.7598 109.135 16.2539 108.564 16.6016C107.998 16.9453 107.352 17.1172 106.625 17.1172C105.898 17.1172 105.254 16.9512 104.691 16.6191C104.129 16.2832 103.689 15.8047 103.373 15.1836C103.061 14.5625 102.896 13.8496 102.881 13.0449V12.5645C102.881 11.7285 103.033 10.9922 103.338 10.3555C103.646 9.71484 104.086 9.2207 104.656 8.87305C105.23 8.52539 105.883 8.35156 106.613 8.35156C107.336 8.35156 107.98 8.52344 108.547 8.86719C109.113 9.21094 109.553 9.70117 109.865 10.3379C110.182 10.9707 110.342 11.6973 110.346 12.5176V12.9102ZM108.254 12.5527C108.254 11.7051 108.111 11.0625 107.826 10.625C107.545 10.1836 107.141 9.96289 106.613 9.96289C105.582 9.96289 105.037 10.7363 104.979 12.2832L104.973 12.9102C104.973 13.7461 105.111 14.3887 105.389 14.8379C105.666 15.2871 106.078 15.5117 106.625 15.5117C107.145 15.5117 107.545 15.291 107.826 14.8496C108.107 14.4082 108.25 13.7734 108.254 12.9453V12.5527ZM118.531 17H116.486L113.463 11.6914V17H111.406V8.46875H113.463L116.48 13.7773V8.46875H118.531V17Z" fill="white"/>
</svg>
