<svg width="130" height="20" viewBox="0 0 130 20" fill="none" xmlns="http://www.w3.org/2000/svg">
<rect width="130" height="20" rx="2" fill="#FF6557"/>
<path d="M15.9189 14V6.17969H18.728C19.7342 6.17969 20.4987 6.3641 21.0215 6.73291C21.5479 7.10173 21.811 7.63704 21.811 8.33887C21.811 8.74349 21.7179 9.08903 21.5317 9.37549C21.3455 9.66195 21.0716 9.87321 20.71 10.0093C21.1182 10.1167 21.4315 10.3172 21.6499 10.6108C21.8683 10.9045 21.9775 11.2625 21.9775 11.6851C21.9775 12.4513 21.734 13.0278 21.2471 13.4146C20.7637 13.7977 20.0457 13.9928 19.0933 14H15.9189ZM17.8042 10.6753V12.5498H19.0396C19.3797 12.5498 19.6411 12.4728 19.8237 12.3188C20.0063 12.1613 20.0977 11.9411 20.0977 11.6582C20.0977 11.0065 19.7736 10.6789 19.1255 10.6753H17.8042ZM17.8042 9.43994H18.7871C19.1989 9.43636 19.4925 9.36117 19.668 9.21436C19.8434 9.06755 19.9312 8.85091 19.9312 8.56445C19.9312 8.23503 19.8363 7.9987 19.6465 7.85547C19.4567 7.70866 19.1506 7.63525 18.728 7.63525H17.8042V9.43994ZM27.8696 10.686H24.9048V12.5498H28.4067V14H23.0195V6.17969H28.4175V7.63525H24.9048V9.28418H27.8696V10.686ZM35.502 11.3521C35.4769 11.8963 35.3301 12.3779 35.0615 12.7969C34.793 13.2122 34.4152 13.5345 33.9282 13.7637C33.4448 13.9928 32.8916 14.1074 32.2686 14.1074C31.2409 14.1074 30.4316 13.7726 29.8408 13.103C29.25 12.4334 28.9546 11.4881 28.9546 10.2671V9.88037C28.9546 9.1141 29.0871 8.4445 29.3521 7.87158C29.6206 7.29508 30.0055 6.85107 30.5068 6.53955C31.0081 6.22445 31.5882 6.06689 32.2471 6.06689C33.196 6.06689 33.9587 6.31755 34.5352 6.81885C35.1117 7.31657 35.4393 8.00407 35.5181 8.88135H33.6382C33.6239 8.40511 33.5039 8.06315 33.2783 7.85547C33.0527 7.64779 32.709 7.54395 32.2471 7.54395C31.778 7.54395 31.4342 7.7194 31.2158 8.07031C30.9974 8.42122 30.8828 8.98161 30.8721 9.75146V10.3047C30.8721 11.139 30.9759 11.7352 31.1836 12.0933C31.3949 12.4513 31.7565 12.6304 32.2686 12.6304C32.7018 12.6304 33.033 12.5283 33.2622 12.3242C33.4914 12.1201 33.6131 11.7961 33.6274 11.3521H35.502ZM43.0161 10.251C43.0161 11.0137 42.8747 11.6886 42.5918 12.2759C42.3089 12.8631 41.9061 13.3161 41.3833 13.6348C40.8641 13.9499 40.2715 14.1074 39.6055 14.1074C38.9395 14.1074 38.3486 13.9552 37.833 13.6509C37.3174 13.3429 36.9146 12.9043 36.6245 12.335C36.3381 11.7656 36.1877 11.1121 36.1733 10.3745V9.93408C36.1733 9.16781 36.313 8.49284 36.5923 7.90918C36.8752 7.32194 37.278 6.86898 37.8008 6.55029C38.3271 6.23161 38.9251 6.07227 39.5947 6.07227C40.2572 6.07227 40.848 6.22982 41.3672 6.54492C41.8864 6.86003 42.2892 7.30941 42.5757 7.89307C42.8657 8.47314 43.0125 9.13916 43.0161 9.89111V10.251ZM41.0986 9.92334C41.0986 9.14632 40.9679 8.55729 40.7065 8.15625C40.4487 7.75163 40.0781 7.54932 39.5947 7.54932C38.6494 7.54932 38.1499 8.2583 38.0962 9.67627L38.0908 10.251C38.0908 11.0173 38.2179 11.6063 38.4722 12.0181C38.7264 12.4299 39.1042 12.6357 39.6055 12.6357C40.0817 12.6357 40.4487 12.4334 40.7065 12.0288C40.9644 11.6242 41.0951 11.0423 41.0986 10.2832V9.92334ZM46.4644 6.17969L48.21 11.6206L49.9502 6.17969H52.4316V14H50.541V12.1738L50.7236 8.43555L48.833 14H47.5869L45.6909 8.43018L45.8735 12.1738V14H43.9883V6.17969H46.4644ZM58.4849 10.686H55.52V12.5498H59.022V14H53.6348V6.17969H59.0327V7.63525H55.52V9.28418H58.4849V10.686ZM66.9712 12.5391H64.3877L63.9365 14H61.9224L64.7905 6.17969H66.563L69.4526 14H67.4277L66.9712 12.5391ZM64.8389 11.0835H66.52L65.6768 8.37109L64.8389 11.0835ZM74.6519 11.3467V14H72.7666V6.17969H75.8872C76.4852 6.17969 77.0133 6.29069 77.4717 6.5127C77.9336 6.73112 78.2899 7.04443 78.5405 7.45264C78.7948 7.85726 78.9219 8.31738 78.9219 8.83301C78.9219 9.5957 78.6479 10.2062 78.1001 10.6646C77.5558 11.1193 76.8075 11.3467 75.855 11.3467H74.6519ZM74.6519 9.89111H75.8872C76.2524 9.89111 76.5299 9.7998 76.7197 9.61719C76.9131 9.43457 77.0098 9.17676 77.0098 8.84375C77.0098 8.47852 76.9113 8.18669 76.7144 7.96826C76.5174 7.74984 76.2489 7.63883 75.9087 7.63525H74.6519V9.89111ZM83.4175 12.5391H80.834L80.3828 14H78.3687L81.2368 6.17969H83.0093L85.8989 14H83.874L83.4175 12.5391ZM81.2852 11.0835H82.9663L82.123 8.37109L81.2852 11.0835ZM91.9683 7.63525H89.6211V14H87.7358V7.63525H85.4316V6.17969H91.9683V7.63525ZM95.6743 11.2393H94.6538V14H92.7686V6.17969H95.8462C96.7736 6.17969 97.4987 6.38558 98.0215 6.79736C98.5443 7.20915 98.8057 7.79102 98.8057 8.54297C98.8057 9.08724 98.6947 9.53841 98.4727 9.89648C98.2542 10.2546 97.9105 10.5446 97.4414 10.7666L99.0742 13.9194V14H97.0547L95.6743 11.2393ZM94.6538 9.78369H95.8462C96.2043 9.78369 96.4728 9.69059 96.6519 9.50439C96.8345 9.31462 96.9258 9.05143 96.9258 8.71484C96.9258 8.37826 96.8345 8.11507 96.6519 7.92529C96.4692 7.73193 96.2007 7.63525 95.8462 7.63525H94.6538V9.78369ZM106.567 10.251C106.567 11.0137 106.425 11.6886 106.143 12.2759C105.86 12.8631 105.457 13.3161 104.934 13.6348C104.415 13.9499 103.822 14.1074 103.156 14.1074C102.49 14.1074 101.899 13.9552 101.384 13.6509C100.868 13.3429 100.465 12.9043 100.175 12.335C99.8888 11.7656 99.7384 11.1121 99.7241 10.3745V9.93408C99.7241 9.16781 99.8638 8.49284 100.143 7.90918C100.426 7.32194 100.829 6.86898 101.352 6.55029C101.878 6.23161 102.476 6.07227 103.146 6.07227C103.808 6.07227 104.399 6.22982 104.918 6.54492C105.437 6.86003 105.84 7.30941 106.126 7.89307C106.417 8.47314 106.563 9.13916 106.567 9.89111V10.251ZM104.649 9.92334C104.649 9.14632 104.519 8.55729 104.257 8.15625C104 7.75163 103.629 7.54932 103.146 7.54932C102.2 7.54932 101.701 8.2583 101.647 9.67627L101.642 10.251C101.642 11.0173 101.769 11.6063 102.023 12.0181C102.277 12.4299 102.655 12.6357 103.156 12.6357C103.632 12.6357 104 12.4334 104.257 12.0288C104.515 11.6242 104.646 11.0423 104.649 10.2832V9.92334ZM114.07 14H112.196L109.424 9.13379V14H107.539V6.17969H109.424L112.19 11.0459V6.17969H114.07V14Z" fill="white"/>
</svg>
