<svg width="130" height="20" viewBox="0 0 130 20" fill="none" xmlns="http://www.w3.org/2000/svg">
<rect width="130" height="20" rx="2" fill="#FF6557"/>
<path d="M11.457 14V5.46875H14.5215C15.6191 5.46875 16.4531 5.66992 17.0234 6.07227C17.5977 6.47461 17.8848 7.05859 17.8848 7.82422C17.8848 8.26562 17.7832 8.64258 17.5801 8.95508C17.377 9.26758 17.0781 9.49805 16.6836 9.64648C17.1289 9.76367 17.4707 9.98242 17.709 10.3027C17.9473 10.623 18.0664 11.0137 18.0664 11.4746C18.0664 12.3105 17.8008 12.9395 17.2695 13.3613C16.7422 13.7793 15.959 13.9922 14.9199 14H11.457ZM13.5137 10.373V12.418H14.8613C15.2324 12.418 15.5176 12.334 15.7168 12.166C15.916 11.9941 16.0156 11.7539 16.0156 11.4453C16.0156 10.7344 15.6621 10.377 14.9551 10.373H13.5137ZM13.5137 9.02539H14.5859C15.0352 9.02148 15.3555 8.93945 15.5469 8.7793C15.7383 8.61914 15.834 8.38281 15.834 8.07031C15.834 7.71094 15.7305 7.45312 15.5234 7.29688C15.3164 7.13672 14.9824 7.05664 14.5215 7.05664H13.5137V9.02539ZM24.4941 10.3848H21.2598V12.418H25.0801V14H19.2031V5.46875H25.0918V7.05664H21.2598V8.85547H24.4941V10.3848ZM32.8203 11.1113C32.793 11.7051 32.6328 12.2305 32.3398 12.6875C32.0469 13.1406 31.6348 13.4922 31.1035 13.7422C30.5762 13.9922 29.9727 14.1172 29.293 14.1172C28.1719 14.1172 27.2891 13.752 26.6445 13.0215C26 12.291 25.6777 11.2598 25.6777 9.92773V9.50586C25.6777 8.66992 25.8223 7.93945 26.1113 7.31445C26.4043 6.68555 26.8242 6.20117 27.3711 5.86133C27.918 5.51758 28.5508 5.3457 29.2695 5.3457C30.3047 5.3457 31.1367 5.61914 31.7656 6.16602C32.3945 6.70898 32.752 7.45898 32.8379 8.41602H30.7871C30.7715 7.89648 30.6406 7.52344 30.3945 7.29688C30.1484 7.07031 29.7734 6.95703 29.2695 6.95703C28.7578 6.95703 28.3828 7.14844 28.1445 7.53125C27.9062 7.91406 27.7812 8.52539 27.7695 9.36523V9.96875C27.7695 10.8789 27.8828 11.5293 28.1094 11.9199C28.3398 12.3105 28.7344 12.5059 29.293 12.5059C29.7656 12.5059 30.127 12.3945 30.377 12.1719C30.627 11.9492 30.7598 11.5957 30.7754 11.1113H32.8203ZM41.0176 9.91016C41.0176 10.7422 40.8633 11.4785 40.5547 12.1191C40.2461 12.7598 39.8066 13.2539 39.2363 13.6016C38.6699 13.9453 38.0234 14.1172 37.2969 14.1172C36.5703 14.1172 35.9258 13.9512 35.3633 13.6191C34.8008 13.2832 34.3613 12.8047 34.0449 12.1836C33.7324 11.5625 33.5684 10.8496 33.5527 10.0449V9.56445C33.5527 8.72852 33.7051 7.99219 34.0098 7.35547C34.3184 6.71484 34.7578 6.2207 35.3281 5.87305C35.9023 5.52539 36.5547 5.35156 37.2852 5.35156C38.0078 5.35156 38.6523 5.52344 39.2188 5.86719C39.7852 6.21094 40.2246 6.70117 40.5371 7.33789C40.8535 7.9707 41.0137 8.69727 41.0176 9.51758V9.91016ZM38.9258 9.55273C38.9258 8.70508 38.7832 8.0625 38.498 7.625C38.2168 7.18359 37.8125 6.96289 37.2852 6.96289C36.2539 6.96289 35.709 7.73633 35.6504 9.2832L35.6445 9.91016C35.6445 10.7461 35.7832 11.3887 36.0605 11.8379C36.3379 12.2871 36.75 12.5117 37.2969 12.5117C37.8164 12.5117 38.2168 12.291 38.498 11.8496C38.7793 11.4082 38.9219 10.7734 38.9258 9.94531V9.55273ZM44.7793 5.46875L46.6836 11.4043L48.582 5.46875H51.2891V14H49.2266V12.0078L49.4258 7.92969L47.3633 14H46.0039L43.9355 7.92383L44.1348 12.0078V14H42.0781V5.46875H44.7793ZM57.8926 10.3848H54.6582V12.418H58.4785V14H52.6016V5.46875H58.4902V7.05664H54.6582V8.85547H57.8926V10.3848ZM67.1504 12.4062H64.332L63.8398 14H61.6426L64.7715 5.46875H66.7051L69.8574 14H67.6484L67.1504 12.4062ZM64.8242 10.8184H66.6582L65.7383 7.85938L64.8242 10.8184ZM75.5293 11.1055V14H73.4727V5.46875H76.877C77.5293 5.46875 78.1055 5.58984 78.6055 5.83203C79.1094 6.07031 79.498 6.41211 79.7715 6.85742C80.0488 7.29883 80.1875 7.80078 80.1875 8.36328C80.1875 9.19531 79.8887 9.86133 79.291 10.3613C78.6973 10.8574 77.8809 11.1055 76.8418 11.1055H75.5293ZM75.5293 9.51758H76.877C77.2754 9.51758 77.5781 9.41797 77.7852 9.21875C77.9961 9.01953 78.1016 8.73828 78.1016 8.375C78.1016 7.97656 77.9941 7.6582 77.7793 7.41992C77.5645 7.18164 77.2715 7.06055 76.9004 7.05664H75.5293V9.51758ZM85.0918 12.4062H82.2734L81.7812 14H79.584L82.7129 5.46875H84.6465L87.7988 14H85.5898L85.0918 12.4062ZM82.7656 10.8184H84.5996L83.6797 7.85938L82.7656 10.8184ZM94.4199 7.05664H91.8594V14H89.8027V7.05664H87.2891V5.46875H94.4199V7.05664ZM98.4629 10.9883H97.3496V14H95.293V5.46875H98.6504C99.6621 5.46875 100.453 5.69336 101.023 6.14258C101.594 6.5918 101.879 7.22656 101.879 8.04688C101.879 8.64062 101.758 9.13281 101.516 9.52344C101.277 9.91406 100.902 10.2305 100.391 10.4727L102.172 13.9121V14H99.9688L98.4629 10.9883ZM97.3496 9.40039H98.6504C99.041 9.40039 99.334 9.29883 99.5293 9.0957C99.7285 8.88867 99.8281 8.60156 99.8281 8.23438C99.8281 7.86719 99.7285 7.58008 99.5293 7.37305C99.3301 7.16211 99.0371 7.05664 98.6504 7.05664H97.3496V9.40039ZM110.346 9.91016C110.346 10.7422 110.191 11.4785 109.883 12.1191C109.574 12.7598 109.135 13.2539 108.564 13.6016C107.998 13.9453 107.352 14.1172 106.625 14.1172C105.898 14.1172 105.254 13.9512 104.691 13.6191C104.129 13.2832 103.689 12.8047 103.373 12.1836C103.061 11.5625 102.896 10.8496 102.881 10.0449V9.56445C102.881 8.72852 103.033 7.99219 103.338 7.35547C103.646 6.71484 104.086 6.2207 104.656 5.87305C105.23 5.52539 105.883 5.35156 106.613 5.35156C107.336 5.35156 107.98 5.52344 108.547 5.86719C109.113 6.21094 109.553 6.70117 109.865 7.33789C110.182 7.9707 110.342 8.69727 110.346 9.51758V9.91016ZM108.254 9.55273C108.254 8.70508 108.111 8.0625 107.826 7.625C107.545 7.18359 107.141 6.96289 106.613 6.96289C105.582 6.96289 105.037 7.73633 104.979 9.2832L104.973 9.91016C104.973 10.7461 105.111 11.3887 105.389 11.8379C105.666 12.2871 106.078 12.5117 106.625 12.5117C107.145 12.5117 107.545 12.291 107.826 11.8496C108.107 11.4082 108.25 10.7734 108.254 9.94531V9.55273ZM118.531 14H116.486L113.463 8.69141V14H111.406V5.46875H113.463L116.48 10.7773V5.46875H118.531V14Z" fill="white"/>
</svg>
