<svg width="130" height="20" viewBox="0 0 130 20" fill="none" xmlns="http://www.w3.org/2000/svg">
<rect width="130" height="20" rx="2" fill="#7B7B7B"/>
<path d="M30.1523 11.3467V14H28.2671V6.17969H31.3877C31.9857 6.17969 32.5138 6.29069 32.9722 6.5127C33.4341 6.73112 33.7904 7.04443 34.041 7.45264C34.2952 7.85726 34.4224 8.31738 34.4224 8.83301C34.4224 9.5957 34.1484 10.2062 33.6006 10.6646C33.0563 11.1193 32.3079 11.3467 31.3555 11.3467H30.1523ZM30.1523 9.89111H31.3877C31.7529 9.89111 32.0304 9.7998 32.2202 9.61719C32.4136 9.43457 32.5103 9.17676 32.5103 8.84375C32.5103 8.47852 32.4118 8.18669 32.2148 7.96826C32.0179 7.74984 31.7493 7.63883 31.4092 7.63525H30.1523V9.89111ZM38.3379 11.2393H37.3174V14H35.4321V6.17969H38.5098C39.4372 6.17969 40.1623 6.38558 40.6851 6.79736C41.2078 7.20915 41.4692 7.79102 41.4692 8.54297C41.4692 9.08724 41.3582 9.53841 41.1362 9.89648C40.9178 10.2546 40.5741 10.5446 40.105 10.7666L41.7378 13.9194V14H39.7183L38.3379 11.2393ZM37.3174 9.78369H38.5098C38.8678 9.78369 39.1364 9.69059 39.3154 9.50439C39.498 9.31462 39.5894 9.05143 39.5894 8.71484C39.5894 8.37826 39.498 8.11507 39.3154 7.92529C39.1328 7.73193 38.8643 7.63525 38.5098 7.63525H37.3174V9.78369ZM49.2305 10.251C49.2305 11.0137 49.089 11.6886 48.8062 12.2759C48.5233 12.8631 48.1204 13.3161 47.5977 13.6348C47.0785 13.9499 46.4858 14.1074 45.8198 14.1074C45.1538 14.1074 44.563 13.9552 44.0474 13.6509C43.5317 13.3429 43.1289 12.9043 42.8389 12.335C42.5524 11.7656 42.402 11.1121 42.3877 10.3745V9.93408C42.3877 9.16781 42.5273 8.49284 42.8066 7.90918C43.0895 7.32194 43.4924 6.86898 44.0151 6.55029C44.5415 6.23161 45.1395 6.07227 45.8091 6.07227C46.4715 6.07227 47.0623 6.22982 47.5815 6.54492C48.1007 6.86003 48.5036 7.30941 48.79 7.89307C49.0801 8.47314 49.2269 9.13916 49.2305 9.89111V10.251ZM47.313 9.92334C47.313 9.14632 47.1823 8.55729 46.9209 8.15625C46.6631 7.75163 46.2925 7.54932 45.8091 7.54932C44.8638 7.54932 44.3643 8.2583 44.3105 9.67627L44.3052 10.251C44.3052 11.0173 44.4323 11.6063 44.6865 12.0181C44.9408 12.4299 45.3185 12.6357 45.8198 12.6357C46.2961 12.6357 46.6631 12.4334 46.9209 12.0288C47.1787 11.6242 47.3094 11.0423 47.313 10.2832V9.92334ZM56.9756 11.9214C56.9756 11.6457 56.8771 11.4308 56.6802 11.2769C56.4868 11.1229 56.1449 10.9635 55.6543 10.7988C55.1637 10.6341 54.7627 10.4748 54.4512 10.3208C53.4378 9.82308 52.9312 9.13916 52.9312 8.26904C52.9312 7.83577 53.0565 7.45443 53.3071 7.125C53.5614 6.79199 53.9194 6.53418 54.3813 6.35156C54.8433 6.16536 55.3625 6.07227 55.939 6.07227C56.5011 6.07227 57.0042 6.17253 57.4482 6.37305C57.8958 6.57357 58.2432 6.86003 58.4902 7.23242C58.7373 7.60124 58.8608 8.02376 58.8608 8.5H56.981C56.981 8.18132 56.8825 7.93424 56.6855 7.75879C56.4922 7.58333 56.229 7.49561 55.896 7.49561C55.5594 7.49561 55.2926 7.5708 55.0957 7.72119C54.9023 7.868 54.8057 8.05599 54.8057 8.28516C54.8057 8.48568 54.9131 8.66829 55.1279 8.83301C55.3428 8.99414 55.7205 9.16243 56.2612 9.33789C56.8019 9.50977 57.2459 9.69596 57.5933 9.89648C58.4383 10.3835 58.8608 11.0549 58.8608 11.9106C58.8608 12.5946 58.603 13.1317 58.0874 13.522C57.5718 13.9123 56.8646 14.1074 55.9658 14.1074C55.332 14.1074 54.7573 13.9946 54.2417 13.769C53.7297 13.5399 53.3429 13.2284 53.0815 12.8345C52.8237 12.437 52.6948 11.9805 52.6948 11.4648H54.5854C54.5854 11.8838 54.6929 12.1935 54.9077 12.394C55.1261 12.591 55.4788 12.6895 55.9658 12.6895C56.2773 12.6895 56.5226 12.6232 56.7017 12.4907C56.8843 12.3547 56.9756 12.1649 56.9756 11.9214ZM65.9614 6.17969V11.2983C65.9614 11.8784 65.8379 12.3815 65.5908 12.8076C65.3438 13.2301 64.9893 13.5524 64.5273 13.7744C64.0654 13.9964 63.5194 14.1074 62.8892 14.1074C61.9367 14.1074 61.1865 13.8604 60.6387 13.3662C60.0908 12.8721 59.8115 12.1953 59.8008 11.3359V6.17969H61.6968V11.3735C61.7183 12.2293 62.1157 12.6572 62.8892 12.6572C63.2795 12.6572 63.5749 12.5498 63.7754 12.335C63.9759 12.1201 64.0762 11.771 64.0762 11.2876V6.17969H65.9614ZM69.0283 11.3467V14H67.1431V6.17969H70.2637C70.8617 6.17969 71.3898 6.29069 71.8481 6.5127C72.3101 6.73112 72.6663 7.04443 72.917 7.45264C73.1712 7.85726 73.2983 8.31738 73.2983 8.83301C73.2983 9.5957 73.0244 10.2062 72.4766 10.6646C71.9323 11.1193 71.1839 11.3467 70.2314 11.3467H69.0283ZM69.0283 9.89111H70.2637C70.6289 9.89111 70.9064 9.7998 71.0962 9.61719C71.2896 9.43457 71.3862 9.17676 71.3862 8.84375C71.3862 8.47852 71.2878 8.18669 71.0908 7.96826C70.8939 7.74984 70.6253 7.63883 70.2852 7.63525H69.0283V9.89111ZM76.1934 11.3467V14H74.3081V6.17969H77.4287C78.0267 6.17969 78.5549 6.29069 79.0132 6.5127C79.4751 6.73112 79.8314 7.04443 80.082 7.45264C80.3363 7.85726 80.4634 8.31738 80.4634 8.83301C80.4634 9.5957 80.1895 10.2062 79.6416 10.6646C79.0973 11.1193 78.349 11.3467 77.3965 11.3467H76.1934ZM76.1934 9.89111H77.4287C77.7939 9.89111 78.0715 9.7998 78.2612 9.61719C78.4546 9.43457 78.5513 9.17676 78.5513 8.84375C78.5513 8.47852 78.4528 8.18669 78.2559 7.96826C78.0589 7.74984 77.7904 7.63883 77.4502 7.63525H76.1934V9.89111ZM88.0957 10.251C88.0957 11.0137 87.9543 11.6886 87.6714 12.2759C87.3885 12.8631 86.9857 13.3161 86.4629 13.6348C85.9437 13.9499 85.3511 14.1074 84.6851 14.1074C84.019 14.1074 83.4282 13.9552 82.9126 13.6509C82.397 13.3429 81.9941 12.9043 81.7041 12.335C81.4176 11.7656 81.2673 11.1121 81.2529 10.3745V9.93408C81.2529 9.16781 81.3926 8.49284 81.6719 7.90918C81.9548 7.32194 82.3576 6.86898 82.8804 6.55029C83.4067 6.23161 84.0047 6.07227 84.6743 6.07227C85.3368 6.07227 85.9276 6.22982 86.4468 6.54492C86.966 6.86003 87.3688 7.30941 87.6553 7.89307C87.9453 8.47314 88.0921 9.13916 88.0957 9.89111V10.251ZM86.1782 9.92334C86.1782 9.14632 86.0475 8.55729 85.7861 8.15625C85.5283 7.75163 85.1577 7.54932 84.6743 7.54932C83.729 7.54932 83.2295 8.2583 83.1758 9.67627L83.1704 10.251C83.1704 11.0173 83.2975 11.6063 83.5518 12.0181C83.806 12.4299 84.1838 12.6357 84.6851 12.6357C85.1613 12.6357 85.5283 12.4334 85.7861 12.0288C86.0439 11.6242 86.1746 11.0423 86.1782 10.2832V9.92334ZM91.9736 11.2393H90.9531V14H89.0679V6.17969H92.1455C93.0729 6.17969 93.798 6.38558 94.3208 6.79736C94.8436 7.20915 95.105 7.79102 95.105 8.54297C95.105 9.08724 94.994 9.53841 94.772 9.89648C94.5535 10.2546 94.2098 10.5446 93.7407 10.7666L95.3735 13.9194V14H93.354L91.9736 11.2393ZM90.9531 9.78369H92.1455C92.5036 9.78369 92.7721 9.69059 92.9512 9.50439C93.1338 9.31462 93.2251 9.05143 93.2251 8.71484C93.2251 8.37826 93.1338 8.11507 92.9512 7.92529C92.7686 7.73193 92.5 7.63525 92.1455 7.63525H90.9531V9.78369ZM102.114 7.63525H99.7671V14H97.8818V7.63525H95.5776V6.17969H102.114V7.63525Z" fill="white"/>
</svg>
