<svg width="130" height="20" viewBox="0 0 130 20" fill="none" xmlns="http://www.w3.org/2000/svg">
<rect width="130" height="20" rx="2" fill="#7B7B7B"/>
<path d="M26.9844 11.1055V14H24.9277V5.46875H28.332C28.9844 5.46875 29.5605 5.58984 30.0605 5.83203C30.5645 6.07031 30.9531 6.41211 31.2266 6.85742C31.5039 7.29883 31.6426 7.80078 31.6426 8.36328C31.6426 9.19531 31.3438 9.86133 30.7461 10.3613C30.1523 10.8574 29.3359 11.1055 28.2969 11.1055H26.9844ZM26.9844 9.51758H28.332C28.7305 9.51758 29.0332 9.41797 29.2402 9.21875C29.4512 9.01953 29.5566 8.73828 29.5566 8.375C29.5566 7.97656 29.4492 7.6582 29.2344 7.41992C29.0195 7.18164 28.7266 7.06055 28.3555 7.05664H26.9844V9.51758ZM35.9141 10.9883H34.8008V14H32.7441V5.46875H36.1016C37.1133 5.46875 37.9043 5.69336 38.4746 6.14258C39.0449 6.5918 39.3301 7.22656 39.3301 8.04688C39.3301 8.64062 39.209 9.13281 38.9668 9.52344C38.7285 9.91406 38.3535 10.2305 37.8418 10.4727L39.623 13.9121V14H37.4199L35.9141 10.9883ZM34.8008 9.40039H36.1016C36.4922 9.40039 36.7852 9.29883 36.9805 9.0957C37.1797 8.88867 37.2793 8.60156 37.2793 8.23438C37.2793 7.86719 37.1797 7.58008 36.9805 7.37305C36.7812 7.16211 36.4883 7.05664 36.1016 7.05664H34.8008V9.40039ZM47.7969 9.91016C47.7969 10.7422 47.6426 11.4785 47.334 12.1191C47.0254 12.7598 46.5859 13.2539 46.0156 13.6016C45.4492 13.9453 44.8027 14.1172 44.0762 14.1172C43.3496 14.1172 42.7051 13.9512 42.1426 13.6191C41.5801 13.2832 41.1406 12.8047 40.8242 12.1836C40.5117 11.5625 40.3477 10.8496 40.332 10.0449V9.56445C40.332 8.72852 40.4844 7.99219 40.7891 7.35547C41.0977 6.71484 41.5371 6.2207 42.1074 5.87305C42.6816 5.52539 43.334 5.35156 44.0645 5.35156C44.7871 5.35156 45.4316 5.52344 45.998 5.86719C46.5645 6.21094 47.0039 6.70117 47.3164 7.33789C47.6328 7.9707 47.793 8.69727 47.7969 9.51758V9.91016ZM45.7051 9.55273C45.7051 8.70508 45.5625 8.0625 45.2773 7.625C44.9961 7.18359 44.5918 6.96289 44.0645 6.96289C43.0332 6.96289 42.4883 7.73633 42.4297 9.2832L42.4238 9.91016C42.4238 10.7461 42.5625 11.3887 42.8398 11.8379C43.1172 12.2871 43.5293 12.5117 44.0762 12.5117C44.5957 12.5117 44.9961 12.291 45.2773 11.8496C45.5586 11.4082 45.7012 10.7734 45.7051 9.94531V9.55273ZM56.2461 11.7324C56.2461 11.4316 56.1387 11.1973 55.9238 11.0293C55.7129 10.8613 55.3398 10.6875 54.8047 10.5078C54.2695 10.3281 53.832 10.1543 53.4922 9.98633C52.3867 9.44336 51.834 8.69727 51.834 7.74805C51.834 7.27539 51.9707 6.85938 52.2441 6.5C52.5215 6.13672 52.9121 5.85547 53.416 5.65625C53.9199 5.45312 54.4863 5.35156 55.1152 5.35156C55.7285 5.35156 56.2773 5.46094 56.7617 5.67969C57.25 5.89844 57.6289 6.21094 57.8984 6.61719C58.168 7.01953 58.3027 7.48047 58.3027 8H56.252C56.252 7.65234 56.1445 7.38281 55.9297 7.19141C55.7188 7 55.4316 6.9043 55.0684 6.9043C54.7012 6.9043 54.4102 6.98633 54.1953 7.15039C53.9844 7.31055 53.8789 7.51562 53.8789 7.76562C53.8789 7.98438 53.9961 8.18359 54.2305 8.36328C54.4648 8.53906 54.877 8.72266 55.4668 8.91406C56.0566 9.10156 56.541 9.30469 56.9199 9.52344C57.8418 10.0547 58.3027 10.7871 58.3027 11.7207C58.3027 12.4668 58.0215 13.0527 57.459 13.4785C56.8965 13.9043 56.125 14.1172 55.1445 14.1172C54.4531 14.1172 53.8262 13.9941 53.2637 13.748C52.7051 13.498 52.2832 13.1582 51.998 12.7285C51.7168 12.2949 51.5762 11.7969 51.5762 11.2344H53.6387C53.6387 11.6914 53.7559 12.0293 53.9902 12.248C54.2285 12.4629 54.6133 12.5703 55.1445 12.5703C55.4844 12.5703 55.752 12.498 55.9473 12.3535C56.1465 12.2051 56.2461 11.998 56.2461 11.7324ZM66.0488 5.46875V11.0527C66.0488 11.6855 65.9141 12.2344 65.6445 12.6992C65.375 13.1602 64.9883 13.5117 64.4844 13.7539C63.9805 13.9961 63.3848 14.1172 62.6973 14.1172C61.6582 14.1172 60.8398 13.8477 60.2422 13.3086C59.6445 12.7695 59.3398 12.0312 59.3281 11.0938V5.46875H61.3965V11.1348C61.4199 12.0684 61.8535 12.5352 62.6973 12.5352C63.123 12.5352 63.4453 12.418 63.6641 12.1836C63.8828 11.9492 63.9922 11.5684 63.9922 11.041V5.46875H66.0488ZM69.3945 11.1055V14H67.3379V5.46875H70.7422C71.3945 5.46875 71.9707 5.58984 72.4707 5.83203C72.9746 6.07031 73.3633 6.41211 73.6367 6.85742C73.9141 7.29883 74.0527 7.80078 74.0527 8.36328C74.0527 9.19531 73.7539 9.86133 73.1562 10.3613C72.5625 10.8574 71.7461 11.1055 70.707 11.1055H69.3945ZM69.3945 9.51758H70.7422C71.1406 9.51758 71.4434 9.41797 71.6504 9.21875C71.8613 9.01953 71.9668 8.73828 71.9668 8.375C71.9668 7.97656 71.8594 7.6582 71.6445 7.41992C71.4297 7.18164 71.1367 7.06055 70.7656 7.05664H69.3945V9.51758ZM77.2109 11.1055V14H75.1543V5.46875H78.5586C79.2109 5.46875 79.7871 5.58984 80.2871 5.83203C80.791 6.07031 81.1797 6.41211 81.4531 6.85742C81.7305 7.29883 81.8691 7.80078 81.8691 8.36328C81.8691 9.19531 81.5703 9.86133 80.9727 10.3613C80.3789 10.8574 79.5625 11.1055 78.5234 11.1055H77.2109ZM77.2109 9.51758H78.5586C78.957 9.51758 79.2598 9.41797 79.4668 9.21875C79.6777 9.01953 79.7832 8.73828 79.7832 8.375C79.7832 7.97656 79.6758 7.6582 79.4609 7.41992C79.2461 7.18164 78.9531 7.06055 78.582 7.05664H77.2109V9.51758ZM90.1953 9.91016C90.1953 10.7422 90.041 11.4785 89.7324 12.1191C89.4238 12.7598 88.9844 13.2539 88.4141 13.6016C87.8477 13.9453 87.2012 14.1172 86.4746 14.1172C85.748 14.1172 85.1035 13.9512 84.541 13.6191C83.9785 13.2832 83.5391 12.8047 83.2227 12.1836C82.9102 11.5625 82.7461 10.8496 82.7305 10.0449V9.56445C82.7305 8.72852 82.8828 7.99219 83.1875 7.35547C83.4961 6.71484 83.9355 6.2207 84.5059 5.87305C85.0801 5.52539 85.7324 5.35156 86.4629 5.35156C87.1855 5.35156 87.8301 5.52344 88.3965 5.86719C88.9629 6.21094 89.4023 6.70117 89.7148 7.33789C90.0312 7.9707 90.1914 8.69727 90.1953 9.51758V9.91016ZM88.1035 9.55273C88.1035 8.70508 87.9609 8.0625 87.6758 7.625C87.3945 7.18359 86.9902 6.96289 86.4629 6.96289C85.4316 6.96289 84.8867 7.73633 84.8281 9.2832L84.8223 9.91016C84.8223 10.7461 84.9609 11.3887 85.2383 11.8379C85.5156 12.2871 85.9277 12.5117 86.4746 12.5117C86.9941 12.5117 87.3945 12.291 87.6758 11.8496C87.957 11.4082 88.0996 10.7734 88.1035 9.94531V9.55273ZM94.4258 10.9883H93.3125V14H91.2559V5.46875H94.6133C95.625 5.46875 96.416 5.69336 96.9863 6.14258C97.5566 6.5918 97.8418 7.22656 97.8418 8.04688C97.8418 8.64062 97.7207 9.13281 97.4785 9.52344C97.2402 9.91406 96.8652 10.2305 96.3535 10.4727L98.1348 13.9121V14H95.9316L94.4258 10.9883ZM93.3125 9.40039H94.6133C95.0039 9.40039 95.2969 9.29883 95.4922 9.0957C95.6914 8.88867 95.791 8.60156 95.791 8.23438C95.791 7.86719 95.6914 7.58008 95.4922 7.37305C95.293 7.16211 95 7.05664 94.6133 7.05664H93.3125V9.40039ZM105.488 7.05664H102.928V14H100.871V7.05664H98.3574V5.46875H105.488V7.05664Z" fill="white"/>
</svg>
