<svg width="130" height="25" viewBox="0 0 130 25" fill="none" xmlns="http://www.w3.org/2000/svg">
<rect width="130" height="25" rx="2" fill="#F78451"/>
<path d="M26.9844 14.1055V17H24.9277V8.46875H28.332C28.9844 8.46875 29.5605 8.58984 30.0605 8.83203C30.5645 9.07031 30.9531 9.41211 31.2266 9.85742C31.5039 10.2988 31.6426 10.8008 31.6426 11.3633C31.6426 12.1953 31.3438 12.8613 30.7461 13.3613C30.1523 13.8574 29.3359 14.1055 28.2969 14.1055H26.9844ZM26.9844 12.5176H28.332C28.7305 12.5176 29.0332 12.418 29.2402 12.2188C29.4512 12.0195 29.5566 11.7383 29.5566 11.375C29.5566 10.9766 29.4492 10.6582 29.2344 10.4199C29.0195 10.1816 28.7266 10.0605 28.3555 10.0566H26.9844V12.5176ZM35.9141 13.9883H34.8008V17H32.7441V8.46875H36.1016C37.1133 8.46875 37.9043 8.69336 38.4746 9.14258C39.0449 9.5918 39.3301 10.2266 39.3301 11.0469C39.3301 11.6406 39.209 12.1328 38.9668 12.5234C38.7285 12.9141 38.3535 13.2305 37.8418 13.4727L39.623 16.9121V17H37.4199L35.9141 13.9883ZM34.8008 12.4004H36.1016C36.4922 12.4004 36.7852 12.2988 36.9805 12.0957C37.1797 11.8887 37.2793 11.6016 37.2793 11.2344C37.2793 10.8672 37.1797 10.5801 36.9805 10.373C36.7812 10.1621 36.4883 10.0566 36.1016 10.0566H34.8008V12.4004ZM47.7969 12.9102C47.7969 13.7422 47.6426 14.4785 47.334 15.1191C47.0254 15.7598 46.5859 16.2539 46.0156 16.6016C45.4492 16.9453 44.8027 17.1172 44.0762 17.1172C43.3496 17.1172 42.7051 16.9512 42.1426 16.6191C41.5801 16.2832 41.1406 15.8047 40.8242 15.1836C40.5117 14.5625 40.3477 13.8496 40.332 13.0449V12.5645C40.332 11.7285 40.4844 10.9922 40.7891 10.3555C41.0977 9.71484 41.5371 9.2207 42.1074 8.87305C42.6816 8.52539 43.334 8.35156 44.0645 8.35156C44.7871 8.35156 45.4316 8.52344 45.998 8.86719C46.5645 9.21094 47.0039 9.70117 47.3164 10.3379C47.6328 10.9707 47.793 11.6973 47.7969 12.5176V12.9102ZM45.7051 12.5527C45.7051 11.7051 45.5625 11.0625 45.2773 10.625C44.9961 10.1836 44.5918 9.96289 44.0645 9.96289C43.0332 9.96289 42.4883 10.7363 42.4297 12.2832L42.4238 12.9102C42.4238 13.7461 42.5625 14.3887 42.8398 14.8379C43.1172 15.2871 43.5293 15.5117 44.0762 15.5117C44.5957 15.5117 44.9961 15.291 45.2773 14.8496C45.5586 14.4082 45.7012 13.7734 45.7051 12.9453V12.5527ZM56.2461 14.7324C56.2461 14.4316 56.1387 14.1973 55.9238 14.0293C55.7129 13.8613 55.3398 13.6875 54.8047 13.5078C54.2695 13.3281 53.832 13.1543 53.4922 12.9863C52.3867 12.4434 51.834 11.6973 51.834 10.748C51.834 10.2754 51.9707 9.85938 52.2441 9.5C52.5215 9.13672 52.9121 8.85547 53.416 8.65625C53.9199 8.45312 54.4863 8.35156 55.1152 8.35156C55.7285 8.35156 56.2773 8.46094 56.7617 8.67969C57.25 8.89844 57.6289 9.21094 57.8984 9.61719C58.168 10.0195 58.3027 10.4805 58.3027 11H56.252C56.252 10.6523 56.1445 10.3828 55.9297 10.1914C55.7188 10 55.4316 9.9043 55.0684 9.9043C54.7012 9.9043 54.4102 9.98633 54.1953 10.1504C53.9844 10.3105 53.8789 10.5156 53.8789 10.7656C53.8789 10.9844 53.9961 11.1836 54.2305 11.3633C54.4648 11.5391 54.877 11.7227 55.4668 11.9141C56.0566 12.1016 56.541 12.3047 56.9199 12.5234C57.8418 13.0547 58.3027 13.7871 58.3027 14.7207C58.3027 15.4668 58.0215 16.0527 57.459 16.4785C56.8965 16.9043 56.125 17.1172 55.1445 17.1172C54.4531 17.1172 53.8262 16.9941 53.2637 16.748C52.7051 16.498 52.2832 16.1582 51.998 15.7285C51.7168 15.2949 51.5762 14.7969 51.5762 14.2344H53.6387C53.6387 14.6914 53.7559 15.0293 53.9902 15.248C54.2285 15.4629 54.6133 15.5703 55.1445 15.5703C55.4844 15.5703 55.752 15.498 55.9473 15.3535C56.1465 15.2051 56.2461 14.998 56.2461 14.7324ZM66.0488 8.46875V14.0527C66.0488 14.6855 65.9141 15.2344 65.6445 15.6992C65.375 16.1602 64.9883 16.5117 64.4844 16.7539C63.9805 16.9961 63.3848 17.1172 62.6973 17.1172C61.6582 17.1172 60.8398 16.8477 60.2422 16.3086C59.6445 15.7695 59.3398 15.0312 59.3281 14.0938V8.46875H61.3965V14.1348C61.4199 15.0684 61.8535 15.5352 62.6973 15.5352C63.123 15.5352 63.4453 15.418 63.6641 15.1836C63.8828 14.9492 63.9922 14.5684 63.9922 14.041V8.46875H66.0488ZM69.3945 14.1055V17H67.3379V8.46875H70.7422C71.3945 8.46875 71.9707 8.58984 72.4707 8.83203C72.9746 9.07031 73.3633 9.41211 73.6367 9.85742C73.9141 10.2988 74.0527 10.8008 74.0527 11.3633C74.0527 12.1953 73.7539 12.8613 73.1562 13.3613C72.5625 13.8574 71.7461 14.1055 70.707 14.1055H69.3945ZM69.3945 12.5176H70.7422C71.1406 12.5176 71.4434 12.418 71.6504 12.2188C71.8613 12.0195 71.9668 11.7383 71.9668 11.375C71.9668 10.9766 71.8594 10.6582 71.6445 10.4199C71.4297 10.1816 71.1367 10.0605 70.7656 10.0566H69.3945V12.5176ZM77.2109 14.1055V17H75.1543V8.46875H78.5586C79.2109 8.46875 79.7871 8.58984 80.2871 8.83203C80.791 9.07031 81.1797 9.41211 81.4531 9.85742C81.7305 10.2988 81.8691 10.8008 81.8691 11.3633C81.8691 12.1953 81.5703 12.8613 80.9727 13.3613C80.3789 13.8574 79.5625 14.1055 78.5234 14.1055H77.2109ZM77.2109 12.5176H78.5586C78.957 12.5176 79.2598 12.418 79.4668 12.2188C79.6777 12.0195 79.7832 11.7383 79.7832 11.375C79.7832 10.9766 79.6758 10.6582 79.4609 10.4199C79.2461 10.1816 78.9531 10.0605 78.582 10.0566H77.2109V12.5176ZM90.1953 12.9102C90.1953 13.7422 90.041 14.4785 89.7324 15.1191C89.4238 15.7598 88.9844 16.2539 88.4141 16.6016C87.8477 16.9453 87.2012 17.1172 86.4746 17.1172C85.748 17.1172 85.1035 16.9512 84.541 16.6191C83.9785 16.2832 83.5391 15.8047 83.2227 15.1836C82.9102 14.5625 82.7461 13.8496 82.7305 13.0449V12.5645C82.7305 11.7285 82.8828 10.9922 83.1875 10.3555C83.4961 9.71484 83.9355 9.2207 84.5059 8.87305C85.0801 8.52539 85.7324 8.35156 86.4629 8.35156C87.1855 8.35156 87.8301 8.52344 88.3965 8.86719C88.9629 9.21094 89.4023 9.70117 89.7148 10.3379C90.0312 10.9707 90.1914 11.6973 90.1953 12.5176V12.9102ZM88.1035 12.5527C88.1035 11.7051 87.9609 11.0625 87.6758 10.625C87.3945 10.1836 86.9902 9.96289 86.4629 9.96289C85.4316 9.96289 84.8867 10.7363 84.8281 12.2832L84.8223 12.9102C84.8223 13.7461 84.9609 14.3887 85.2383 14.8379C85.5156 15.2871 85.9277 15.5117 86.4746 15.5117C86.9941 15.5117 87.3945 15.291 87.6758 14.8496C87.957 14.4082 88.0996 13.7734 88.1035 12.9453V12.5527ZM94.4258 13.9883H93.3125V17H91.2559V8.46875H94.6133C95.625 8.46875 96.416 8.69336 96.9863 9.14258C97.5566 9.5918 97.8418 10.2266 97.8418 11.0469C97.8418 11.6406 97.7207 12.1328 97.4785 12.5234C97.2402 12.9141 96.8652 13.2305 96.3535 13.4727L98.1348 16.9121V17H95.9316L94.4258 13.9883ZM93.3125 12.4004H94.6133C95.0039 12.4004 95.2969 12.2988 95.4922 12.0957C95.6914 11.8887 95.791 11.6016 95.791 11.2344C95.791 10.8672 95.6914 10.5801 95.4922 10.373C95.293 10.1621 95 10.0566 94.6133 10.0566H93.3125V12.4004ZM105.488 10.0566H102.928V17H100.871V10.0566H98.3574V8.46875H105.488V10.0566Z" fill="white"/>
</svg>
